<?xml version="1.0" encoding="UTF-8" standalone="no" ?>
<!DOCTYPE svg PUBLIC "-//W3C//DTD SVG 1.1//EN" "http://www.w3.org/Graphics/SVG/1.1/DTD/svg11.dtd">
<svg xmlns="http://www.w3.org/2000/svg" xmlns:xlink="http://www.w3.org/1999/xlink" version="1.1" width="350" height="350" viewBox="0 0 350 350" xml:space="preserve">
<desc>Created with Fabric.js 1.7.22</desc>
<defs>
</defs>
<g id="icon" style="stroke: none; stroke-width: 1; stroke-dasharray: none; stroke-linecap: butt; stroke-linejoin: miter; stroke-miterlimit: 10; fill: none; fill-rule: nonzero; opacity: 1;" transform="translate(-1.9444444444444287 -1.9444444444444287) scale(3.89 3.89)" >
	<path d="M 81.132 69.402 l 1.145 2.02 c 1.276 2.251 -0.35 5.043 -2.938 5.043 h -2.937 c -2.228 0 -4.291 -1.178 -5.423 -3.098 l -2.337 -3.964 H 81.132 z" style="stroke: none; stroke-width: 1; stroke-dasharray: none; stroke-linecap: butt; stroke-linejoin: miter; stroke-miterlimit: 10; fill: rgb(174,173,179); fill-rule: nonzero; opacity: 1;" transform=" matrix(1 0 0 1 0 0) " stroke-linecap="round" />
	<path d="M 8.868 69.402 l -1.145 2.02 c -1.276 2.251 0.35 5.043 2.938 5.043 h 2.937 c 2.228 0 4.291 -1.178 5.423 -3.098 l 2.337 -3.964 H 8.868 z" style="stroke: none; stroke-width: 1; stroke-dasharray: none; stroke-linecap: butt; stroke-linejoin: miter; stroke-miterlimit: 10; fill: rgb(174,173,179); fill-rule: nonzero; opacity: 1;" transform=" matrix(1 0 0 1 0 0) " stroke-linecap="round" />
	<path d="M 83.353 29.03 v -8.248 c 0 -3.986 -3.261 -7.248 -7.248 -7.248 h -62.21 c -3.986 0 -7.248 3.261 -7.248 7.248 v 8.248 v 24.909 l 76.047 0.857 L 83.353 29.03 z" style="stroke: none; stroke-width: 1; stroke-dasharray: none; stroke-linecap: butt; stroke-linejoin: miter; stroke-miterlimit: 10; fill: rgb(242,179,216); fill-rule: nonzero; opacity: 1;" transform=" matrix(1 0 0 1 0 0) " stroke-linecap="round" />
	<path d="M 71.471 31.461 v 15.804 c 0 1.342 -1.088 2.431 -2.431 2.431 H 20.96 c -1.342 0 -2.431 -1.088 -2.431 -2.431 V 31.461 c 0 -1.342 -1.088 -2.431 -2.431 -2.431 H 2.431 C 1.088 29.03 0 30.119 0 31.461 v 18.235 v 17.275 v 0 c 0 1.342 1.088 2.431 2.431 2.431 h 85.138 c 1.342 0 2.431 -1.088 2.431 -2.431 v 0 V 49.696 V 31.461 c 0 -1.342 -1.088 -2.431 -2.431 -2.431 H 73.901 C 72.559 29.03 71.471 30.119 71.471 31.461 z" style="stroke: none; stroke-width: 1; stroke-dasharray: none; stroke-linecap: butt; stroke-linejoin: miter; stroke-miterlimit: 10; fill: rgb(229,146,191); fill-rule: nonzero; opacity: 1;" transform=" matrix(1 0 0 1 0 0) " stroke-linecap="round" />
	<path d="M 71.471 42.544 H 18.529 c -0.565 0 -1.023 -0.458 -1.023 -1.023 s 0.458 -1.023 1.023 -1.023 h 52.942 c 0.565 0 1.023 0.458 1.023 1.023 S 72.036 42.544 71.471 42.544 z" style="stroke: none; stroke-width: 1; stroke-dasharray: none; stroke-linecap: butt; stroke-linejoin: miter; stroke-miterlimit: 10; fill: rgb(229,146,191); fill-rule: nonzero; opacity: 1;" transform=" matrix(1 0 0 1 0 0) " stroke-linecap="round" />
	<path d="M 45.565 24.271 h -1.131 c -0.565 0 -1.023 -0.458 -1.023 -1.023 c 0 -0.565 0.458 -1.023 1.023 -1.023 h 1.131 c 0.565 0 1.023 0.458 1.023 1.023 C 46.588 23.813 46.131 24.271 45.565 24.271 z" style="stroke: none; stroke-width: 1; stroke-dasharray: none; stroke-linecap: butt; stroke-linejoin: miter; stroke-miterlimit: 10; fill: rgb(229,146,191); fill-rule: nonzero; opacity: 1;" transform=" matrix(1 0 0 1 0 0) " stroke-linecap="round" />
	<path d="M 55.793 24.271 h -1.131 c -0.565 0 -1.023 -0.458 -1.023 -1.023 c 0 -0.565 0.457 -1.023 1.023 -1.023 h 1.131 c 0.565 0 1.023 0.458 1.023 1.023 C 56.815 23.813 56.358 24.271 55.793 24.271 z" style="stroke: none; stroke-width: 1; stroke-dasharray: none; stroke-linecap: butt; stroke-linejoin: miter; stroke-miterlimit: 10; fill: rgb(229,146,191); fill-rule: nonzero; opacity: 1;" transform=" matrix(1 0 0 1 0 0) " stroke-linecap="round" />
	<path d="M 66.02 24.271 h -1.131 c -0.565 0 -1.023 -0.458 -1.023 -1.023 c 0 -0.565 0.457 -1.023 1.023 -1.023 h 1.131 c 0.565 0 1.023 0.458 1.023 1.023 C 67.043 23.813 66.585 24.271 66.02 24.271 z" style="stroke: none; stroke-width: 1; stroke-dasharray: none; stroke-linecap: butt; stroke-linejoin: miter; stroke-miterlimit: 10; fill: rgb(229,146,191); fill-rule: nonzero; opacity: 1;" transform=" matrix(1 0 0 1 0 0) " stroke-linecap="round" />
	<path d="M 35.338 24.271 h -1.131 c -0.565 0 -1.023 -0.458 -1.023 -1.023 c 0 -0.565 0.458 -1.023 1.023 -1.023 h 1.131 c 0.565 0 1.023 0.458 1.023 1.023 C 36.361 23.813 35.903 24.271 35.338 24.271 z" style="stroke: none; stroke-width: 1; stroke-dasharray: none; stroke-linecap: butt; stroke-linejoin: miter; stroke-miterlimit: 10; fill: rgb(229,146,191); fill-rule: nonzero; opacity: 1;" transform=" matrix(1 0 0 1 0 0) " stroke-linecap="round" />
	<path d="M 25.111 24.271 H 23.98 c -0.565 0 -1.023 -0.458 -1.023 -1.023 c 0 -0.565 0.458 -1.023 1.023 -1.023 h 1.131 c 0.565 0 1.023 0.458 1.023 1.023 C 26.133 23.813 25.676 24.271 25.111 24.271 z" style="stroke: none; stroke-width: 1; stroke-dasharray: none; stroke-linecap: butt; stroke-linejoin: miter; stroke-miterlimit: 10; fill: rgb(229,146,191); fill-rule: nonzero; opacity: 1;" transform=" matrix(1 0 0 1 0 0) " stroke-linecap="round" />
	<path d="M 45.565 34.498 h -1.131 c -0.565 0 -1.023 -0.458 -1.023 -1.023 s 0.458 -1.023 1.023 -1.023 h 1.131 c 0.565 0 1.023 0.458 1.023 1.023 S 46.131 34.498 45.565 34.498 z" style="stroke: none; stroke-width: 1; stroke-dasharray: none; stroke-linecap: butt; stroke-linejoin: miter; stroke-miterlimit: 10; fill: rgb(229,146,191); fill-rule: nonzero; opacity: 1;" transform=" matrix(1 0 0 1 0 0) " stroke-linecap="round" />
	<path d="M 55.793 34.498 h -1.131 c -0.565 0 -1.023 -0.458 -1.023 -1.023 s 0.457 -1.023 1.023 -1.023 h 1.131 c 0.565 0 1.023 0.458 1.023 1.023 S 56.358 34.498 55.793 34.498 z" style="stroke: none; stroke-width: 1; stroke-dasharray: none; stroke-linecap: butt; stroke-linejoin: miter; stroke-miterlimit: 10; fill: rgb(229,146,191); fill-rule: nonzero; opacity: 1;" transform=" matrix(1 0 0 1 0 0) " stroke-linecap="round" />
	<path d="M 35.338 34.498 h -1.131 c -0.565 0 -1.023 -0.458 -1.023 -1.023 s 0.458 -1.023 1.023 -1.023 h 1.131 c 0.565 0 1.023 0.458 1.023 1.023 S 35.903 34.498 35.338 34.498 z" style="stroke: none; stroke-width: 1; stroke-dasharray: none; stroke-linecap: butt; stroke-linejoin: miter; stroke-miterlimit: 10; fill: rgb(229,146,191); fill-rule: nonzero; opacity: 1;" transform=" matrix(1 0 0 1 0 0) " stroke-linecap="round" />
</g>
</svg>