<?xml version="1.0" encoding="UTF-8" standalone="no" ?>
<!DOCTYPE svg PUBLIC "-//W3C//DTD SVG 1.1//EN" "http://www.w3.org/Graphics/SVG/1.1/DTD/svg11.dtd">
<svg xmlns="http://www.w3.org/2000/svg" xmlns:xlink="http://www.w3.org/1999/xlink" version="1.1" width="350" height="350" viewBox="0 0 350 350" xml:space="preserve">
<desc>Created with Fabric.js 1.7.22</desc>
<defs>
</defs>
<g id="icon" style="stroke: none; stroke-width: 1; stroke-dasharray: none; stroke-linecap: butt; stroke-linejoin: miter; stroke-miterlimit: 10; fill: none; fill-rule: nonzero; opacity: 1;" transform="translate(-1.9444444444444287 -1.9444444444444287) scale(3.89 3.89)" >
	<path d="M 81.159 25.776 l -0.9 -10.05 c -0.101 -1.123 -1.092 -1.952 -2.215 -1.851 L 1.86 20.698 c -1.123 0.101 -1.952 1.092 -1.851 2.215 l 4.128 46.09 c 0.101 1.123 1.092 1.952 2.215 1.851 l 3.076 -0.276 L 81.159 25.776 z" style="stroke: none; stroke-width: 1; stroke-dasharray: none; stroke-linecap: butt; stroke-linejoin: miter; stroke-miterlimit: 10; fill: rgb(176,182,188); fill-rule: nonzero; opacity: 1;" transform=" matrix(1 0 0 1 0 0) " stroke-linecap="round" />
	<path d="M 9.428 74.189 c 0 1.074 0.871 1.944 1.944 1.944 h 76.683 c 1.074 0 1.944 -0.871 1.944 -1.944 V 49.73 c -26.255 -4.947 -53.138 -4.734 -80.572 0 V 74.189 z" style="stroke: none; stroke-width: 1; stroke-dasharray: none; stroke-linecap: butt; stroke-linejoin: miter; stroke-miterlimit: 10; fill: rgb(64,89,107); fill-rule: nonzero; opacity: 1;" transform=" matrix(1 0 0 1 0 0) " stroke-linecap="round" />
	<path d="M 88.056 25.776 H 11.372 c -1.074 0 -1.944 0.871 -1.944 1.945 v 7.719 c 26.857 6.175 53.715 6.175 80.572 0 v -7.719 C 90 26.647 89.129 25.776 88.056 25.776 z" style="stroke: none; stroke-width: 1; stroke-dasharray: none; stroke-linecap: butt; stroke-linejoin: miter; stroke-miterlimit: 10; fill: rgb(64,89,107); fill-rule: nonzero; opacity: 1;" transform=" matrix(1 0 0 1 0 0) " stroke-linecap="round" />
	<rect x="9.43" y="35.44" rx="0" ry="0" width="80.57" height="14.29" style="stroke: none; stroke-width: 1; stroke-dasharray: none; stroke-linecap: butt; stroke-linejoin: miter; stroke-miterlimit: 10; fill: rgb(242,242,242); fill-rule: nonzero; opacity: 1;" transform=" matrix(1 0 0 1 0 0) "/>
	<path d="M 51.045 60.484 H 19.469 c -0.552 0 -1 -0.447 -1 -1 s 0.448 -1 1 -1 h 31.576 c 0.553 0 1 0.447 1 1 S 51.598 60.484 51.045 60.484 z" style="stroke: none; stroke-width: 1; stroke-dasharray: none; stroke-linecap: butt; stroke-linejoin: miter; stroke-miterlimit: 10; fill: rgb(242,242,242); fill-rule: nonzero; opacity: 1;" transform=" matrix(1 0 0 1 0 0) " stroke-linecap="round" />
	<path d="M 37.707 68.001 H 19.469 c -0.552 0 -1 -0.447 -1 -1 s 0.448 -1 1 -1 h 18.238 c 0.552 0 1 0.447 1 1 S 38.259 68.001 37.707 68.001 z" style="stroke: none; stroke-width: 1; stroke-dasharray: none; stroke-linecap: butt; stroke-linejoin: miter; stroke-miterlimit: 10; fill: rgb(242,242,242); fill-rule: nonzero; opacity: 1;" transform=" matrix(1 0 0 1 0 0) " stroke-linecap="round" />
	<path d="M 51.045 68.001 h -8.574 c -0.552 0 -1 -0.447 -1 -1 s 0.448 -1 1 -1 h 8.574 c 0.553 0 1 0.447 1 1 S 51.598 68.001 51.045 68.001 z" style="stroke: none; stroke-width: 1; stroke-dasharray: none; stroke-linecap: butt; stroke-linejoin: miter; stroke-miterlimit: 10; fill: rgb(242,242,242); fill-rule: nonzero; opacity: 1;" transform=" matrix(1 0 0 1 0 0) " stroke-linecap="round" />
	<path d="M 81.153 58.484 H 65.638 c -0.553 0 -1 0.447 -1 1 v 7.517 c 0 0.553 0.447 1 1 1 h 15.516 c 0.553 0 1 -0.447 1 -1 v -7.517 C 82.153 58.932 81.706 58.484 81.153 58.484 z" style="stroke: none; stroke-width: 1; stroke-dasharray: none; stroke-linecap: butt; stroke-linejoin: miter; stroke-miterlimit: 10; fill: rgb(242,242,242); fill-rule: nonzero; opacity: 1;" transform=" matrix(1 0 0 1 0 0) " stroke-linecap="round" />
</g>
</svg>