<?xml version="1.0" encoding="UTF-8" standalone="no" ?>
<!DOCTYPE svg PUBLIC "-//W3C//DTD SVG 1.1//EN" "http://www.w3.org/Graphics/SVG/1.1/DTD/svg11.dtd">
<svg xmlns="http://www.w3.org/2000/svg" xmlns:xlink="http://www.w3.org/1999/xlink" version="1.1" width="350" height="350" viewBox="0 0 350 350" xml:space="preserve">
<desc>Created with Fabric.js 1.7.22</desc>
<defs>
</defs>
<g id="icon" style="stroke: none; stroke-width: 1; stroke-dasharray: none; stroke-linecap: butt; stroke-linejoin: miter; stroke-miterlimit: 10; fill: none; fill-rule: nonzero; opacity: 1;" transform="translate(-1.9444444444444287 -1.9444444444444287) scale(3.89 3.89)" >
	<path d="M 71.996 29.366 c -0.14 -1.52 -1.415 -2.683 -2.942 -2.683 H 45.756 h -1.513 H 20.946 c -1.527 0 -2.802 1.163 -2.942 2.683 l -5.288 57.409 C 12.557 88.506 13.92 90 15.659 90 h 28.585 h 1.513 h 28.585 c 1.739 0 3.101 -1.494 2.942 -3.225 L 71.996 29.366 z M 28.512 40.837 c -2.339 0 -4.242 -1.903 -4.242 -4.242 c 0 -2.339 1.903 -4.242 4.242 -4.242 c 2.339 0 4.242 1.903 4.242 4.242 C 32.754 38.934 30.851 40.837 28.512 40.837 z M 61.488 40.837 c -2.339 0 -4.242 -1.903 -4.242 -4.242 c 0 -2.339 1.903 -4.242 4.242 -4.242 c 2.339 0 4.242 1.903 4.242 4.242 C 65.73 38.934 63.827 40.837 61.488 40.837 z" style="stroke: none; stroke-width: 1; stroke-dasharray: none; stroke-linecap: butt; stroke-linejoin: miter; stroke-miterlimit: 10; fill: rgb(231,78,58); fill-rule: nonzero; opacity: 1;" transform=" matrix(1 0 0 1 0 0) " stroke-linecap="round" />
	<path d="M 61.488 37.606 c -0.559 0 -1.011 -0.453 -1.011 -1.011 V 17.499 c 0 -8.534 -6.942 -15.477 -15.477 -15.477 c -8.534 0 -15.477 6.943 -15.477 15.477 v 19.096 c 0 0.558 -0.453 1.011 -1.011 1.011 s -1.011 -0.453 -1.011 -1.011 V 17.499 C 27.501 7.85 35.351 0 45 0 s 17.499 7.85 17.499 17.499 v 19.096 C 62.499 37.154 62.047 37.606 61.488 37.606 z" style="stroke: none; stroke-width: 1; stroke-dasharray: none; stroke-linecap: butt; stroke-linejoin: miter; stroke-miterlimit: 10; fill: rgb(64,89,107); fill-rule: nonzero; opacity: 1;" transform=" matrix(1 0 0 1 0 0) " stroke-linecap="round" />
	<path d="M 51.942 78.5 c -3.34 0 -6.057 -2.718 -6.057 -6.058 s 2.717 -6.057 6.057 -6.057 S 58 69.103 58 72.442 S 55.282 78.5 51.942 78.5 z M 51.942 68.386 c -2.237 0 -4.057 1.819 -4.057 4.057 s 1.819 4.058 4.057 4.058 S 56 74.68 56 72.442 S 54.18 68.386 51.942 68.386 z" style="stroke: none; stroke-width: 1; stroke-dasharray: none; stroke-linecap: butt; stroke-linejoin: miter; stroke-miterlimit: 10; fill: rgb(242,242,242); fill-rule: nonzero; opacity: 1;" transform=" matrix(1 0 0 1 0 0) " stroke-linecap="round" />
	<path d="M 38.057 64.614 c -3.34 0 -6.057 -2.717 -6.057 -6.057 s 2.717 -6.058 6.057 -6.058 s 6.057 2.718 6.057 6.058 S 41.397 64.614 38.057 64.614 z M 38.057 54.5 C 35.82 54.5 34 56.32 34 58.558 s 1.82 4.057 4.057 4.057 s 4.057 -1.819 4.057 -4.057 S 40.294 54.5 38.057 54.5 z" style="stroke: none; stroke-width: 1; stroke-dasharray: none; stroke-linecap: butt; stroke-linejoin: miter; stroke-miterlimit: 10; fill: rgb(242,242,242); fill-rule: nonzero; opacity: 1;" transform=" matrix(1 0 0 1 0 0) " stroke-linecap="round" />
	<path d="M 33 78.5 c -0.256 0 -0.512 -0.098 -0.707 -0.293 c -0.391 -0.391 -0.391 -1.023 0 -1.414 l 24 -24 c 0.391 -0.391 1.023 -0.391 1.414 0 s 0.391 1.023 0 1.414 l -24 24 C 33.512 78.402 33.256 78.5 33 78.5 z" style="stroke: none; stroke-width: 1; stroke-dasharray: none; stroke-linecap: butt; stroke-linejoin: miter; stroke-miterlimit: 10; fill: rgb(242,242,242); fill-rule: nonzero; opacity: 1;" transform=" matrix(1 0 0 1 0 0) " stroke-linecap="round" />
</g>
</svg>