<?xml version="1.0" encoding="UTF-8" standalone="no" ?>
<!DOCTYPE svg PUBLIC "-//W3C//DTD SVG 1.1//EN" "http://www.w3.org/Graphics/SVG/1.1/DTD/svg11.dtd">
<svg xmlns="http://www.w3.org/2000/svg" xmlns:xlink="http://www.w3.org/1999/xlink" version="1.1" width="350" height="350" viewBox="0 0 350 350" xml:space="preserve">
<desc>Created with Fabric.js 1.7.22</desc>
<defs>
</defs>
<g id="icon" style="stroke: none; stroke-width: 1; stroke-dasharray: none; stroke-linecap: butt; stroke-linejoin: miter; stroke-miterlimit: 10; fill: none; fill-rule: nonzero; opacity: 1;" transform="translate(-1.9444444444444287 -1.9444444444444287) scale(3.89 3.89)" >
	<circle cx="45" cy="45" r="45" style="stroke: none; stroke-width: 1; stroke-dasharray: none; stroke-linecap: butt; stroke-linejoin: miter; stroke-miterlimit: 10; fill: rgb(60,90,153); fill-rule: nonzero; opacity: 1;" transform="  matrix(1 0 0 1 0 0) "/>
	<path d="M 38.633 37.184 v 9.136 h -10.64 v 12.388 h 10.64 v 30.836 C 40.714 89.838 42.838 90 45 90 c 2.159 0 4.28 -0.162 6.359 -0.456 V 58.708 h 10.613 l 1.589 -12.388 H 51.359 v -7.909 c 0 -3.587 0.991 -6.031 6.107 -6.031 l 6.525 -0.003 v -11.08 c -1.128 -0.151 -5.002 -0.488 -9.508 -0.488 C 45.074 20.81 38.633 26.582 38.633 37.184 z" style="stroke: none; stroke-width: 1; stroke-dasharray: none; stroke-linecap: butt; stroke-linejoin: miter; stroke-miterlimit: 10; fill: rgb(255,255,255); fill-rule: nonzero; opacity: 1;" transform=" matrix(1 0 0 1 0 0) " stroke-linecap="round" />
</g>
</svg>