<?xml version="1.0" encoding="UTF-8" standalone="no" ?>
<!DOCTYPE svg PUBLIC "-//W3C//DTD SVG 1.1//EN" "http://www.w3.org/Graphics/SVG/1.1/DTD/svg11.dtd">
<svg xmlns="http://www.w3.org/2000/svg" xmlns:xlink="http://www.w3.org/1999/xlink" version="1.1" width="350" height="350" viewBox="0 0 350 350" xml:space="preserve">
<desc>Created with Fabric.js 1.7.22</desc>
<defs>
</defs>
<g id="icon" style="stroke: none; stroke-width: 1; stroke-dasharray: none; stroke-linecap: butt; stroke-linejoin: miter; stroke-miterlimit: 10; fill: none; fill-rule: nonzero; opacity: 1;" transform="translate(-1.9444444444444287 -1.9444444444444287) scale(3.89 3.89)" >
	<circle cx="80.71300000000001" cy="60.793" r="5.563" style="stroke: none; stroke-width: 1; stroke-dasharray: none; stroke-linecap: butt; stroke-linejoin: miter; stroke-miterlimit: 10; fill: rgb(64,89,107); fill-rule: nonzero; opacity: 1;" transform="  matrix(1 0 0 1 0 0) "/>
	<path d="M 89.582 47.937 L 79.276 36.344 c -0.314 -0.353 -0.764 -0.555 -1.237 -0.555 l -10.475 0 c -3.419 8.412 -3.419 16.825 0 25.237 h 5.574 c -0.002 -0.079 -0.012 -0.156 -0.012 -0.235 c 0 -4.19 3.396 -7.586 7.586 -7.586 c 4.19 0 7.586 3.396 7.586 7.586 c 0 0.079 -0.009 0.157 -0.012 0.235 h 0.059 c 0.914 0 1.655 -0.741 1.655 -1.655 V 49.037 C 90 48.631 89.851 48.24 89.582 47.937 z" style="stroke: none; stroke-width: 1; stroke-dasharray: none; stroke-linecap: butt; stroke-linejoin: miter; stroke-miterlimit: 10; fill: rgb(255,112,88); fill-rule: nonzero; opacity: 1;" transform=" matrix(1 0 0 1 0 0) " stroke-linecap="round" />
	<path d="M 63.841 23.646 H 32.209 c -2.056 0 -3.723 2.055 -3.723 4.589 v 30.577 c 0 1.222 0.804 2.213 1.795 2.213 h 3.875 h 1.43 c -0.002 -0.079 -0.012 -0.156 -0.012 -0.235 c 0 -4.19 3.396 -7.586 7.586 -7.586 c 4.19 0 7.586 3.396 7.586 7.586 c 0 0.079 -0.009 0.157 -0.012 0.235 h 16.829 V 45.057 v -8.039 v -8.782 C 67.564 25.701 65.897 23.646 63.841 23.646 z" style="stroke: none; stroke-width: 1; stroke-dasharray: none; stroke-linecap: butt; stroke-linejoin: miter; stroke-miterlimit: 10; fill: rgb(231,78,58); fill-rule: nonzero; opacity: 1;" transform=" matrix(1 0 0 1 0 0) " stroke-linecap="round" />
	<circle cx="43.163000000000004" cy="60.793" r="5.563" style="stroke: none; stroke-width: 1; stroke-dasharray: none; stroke-linecap: butt; stroke-linejoin: miter; stroke-miterlimit: 10; fill: rgb(64,89,107); fill-rule: nonzero; opacity: 1;" transform="  matrix(1 0 0 1 0 0) "/>
	<path d="M 90 48.407 H 75.454 c -0.817 0 -1.48 -0.662 -1.48 -1.48 v -5.502 c 0 -0.817 0.662 -1.48 1.48 -1.48 l 7.024 0 C 85.428 42.142 87.863 45.065 90 48.407 z" style="stroke: none; stroke-width: 1; stroke-dasharray: none; stroke-linecap: butt; stroke-linejoin: miter; stroke-miterlimit: 10; fill: rgb(242,242,242); fill-rule: nonzero; opacity: 1;" transform=" matrix(1 0 0 1 0 0) " stroke-linecap="round" />
	<path d="M 21.428 52.555 H 8.692 c -0.546 0 -0.989 -0.442 -0.989 -0.989 s 0.443 -0.989 0.989 -0.989 h 12.737 c 0.546 0 0.989 0.442 0.989 0.989 S 21.975 52.555 21.428 52.555 z" style="stroke: none; stroke-width: 1; stroke-dasharray: none; stroke-linecap: butt; stroke-linejoin: miter; stroke-miterlimit: 10; fill: rgb(255,112,88); fill-rule: nonzero; opacity: 1;" transform=" matrix(1 0 0 1 0 0) " stroke-linecap="round" />
	<path d="M 21.428 45.565 H 4.648 c -0.546 0 -0.989 -0.443 -0.989 -0.989 c 0 -0.546 0.443 -0.989 0.989 -0.989 h 16.781 c 0.546 0 0.989 0.443 0.989 0.989 C 22.417 45.122 21.975 45.565 21.428 45.565 z" style="stroke: none; stroke-width: 1; stroke-dasharray: none; stroke-linecap: butt; stroke-linejoin: miter; stroke-miterlimit: 10; fill: rgb(255,112,88); fill-rule: nonzero; opacity: 1;" transform=" matrix(1 0 0 1 0 0) " stroke-linecap="round" />
	<path d="M 21.428 38.574 H 0.989 C 0.443 38.574 0 38.131 0 37.585 s 0.443 -0.989 0.989 -0.989 h 20.439 c 0.546 0 0.989 0.443 0.989 0.989 S 21.975 38.574 21.428 38.574 z" style="stroke: none; stroke-width: 1; stroke-dasharray: none; stroke-linecap: butt; stroke-linejoin: miter; stroke-miterlimit: 10; fill: rgb(255,112,88); fill-rule: nonzero; opacity: 1;" transform=" matrix(1 0 0 1 0 0) " stroke-linecap="round" />
	<path d="M 56.613 30.891 c -0.35 -0.418 -0.973 -0.474 -1.393 -0.122 l -7.868 6.602 h -2.073 c -0.724 0 -1.314 -0.589 -1.314 -1.314 v -3.544 c 0 -0.724 0.589 -1.314 1.314 -1.314 h 6.252 c 0.547 0 0.989 -0.443 0.989 -0.989 s -0.442 -0.989 -0.989 -0.989 h -2.979 V 27.36 c 0 -0.546 -0.442 -0.989 -0.989 -0.989 s -0.989 0.443 -0.989 0.989 v 1.863 h -1.295 c -1.815 0 -3.292 1.477 -3.292 3.292 v 3.544 c 0 1.728 1.343 3.134 3.038 3.266 l -6.391 5.363 c -0.419 0.351 -0.473 0.975 -0.122 1.394 c 0.196 0.233 0.476 0.353 0.758 0.353 c 0.225 0 0.45 -0.076 0.635 -0.232 l 8.167 -6.853 h 1.776 c 0.723 0 1.313 0.589 1.313 1.314 v 3.544 c 0 0.724 -0.589 1.314 -1.313 1.314 h -6.295 c -0.546 0 -0.989 0.443 -0.989 0.989 c 0 0.547 0.443 0.989 0.989 0.989 h 3.022 v 2.113 c 0 0.547 0.442 0.989 0.989 0.989 s 0.989 -0.442 0.989 -0.989 v -2.113 h 1.295 c 1.815 0 3.291 -1.477 3.291 -3.292 v -3.544 c 0 -1.637 -1.204 -2.988 -2.771 -3.239 l 6.125 -5.14 C 56.91 31.933 56.965 31.309 56.613 30.891 z" style="stroke: none; stroke-width: 1; stroke-dasharray: none; stroke-linecap: butt; stroke-linejoin: miter; stroke-miterlimit: 10; fill: rgb(242,242,242); fill-rule: nonzero; opacity: 1;" transform=" matrix(1 0 0 1 0 0) " stroke-linecap="round" />
</g>
</svg>