<?xml version="1.0" encoding="UTF-8" standalone="no" ?>
<!DOCTYPE svg PUBLIC "-//W3C//DTD SVG 1.1//EN" "http://www.w3.org/Graphics/SVG/1.1/DTD/svg11.dtd">
<svg xmlns="http://www.w3.org/2000/svg" xmlns:xlink="http://www.w3.org/1999/xlink" version="1.1" width="350" height="350" viewBox="0 0 350 350" xml:space="preserve">
<desc>Created with Fabric.js 1.7.22</desc>
<defs>
</defs>
<g id="icon" style="stroke: none; stroke-width: 1; stroke-dasharray: none; stroke-linecap: butt; stroke-linejoin: miter; stroke-miterlimit: 10; fill: none; fill-rule: nonzero; opacity: 1;" transform="translate(-1.9444444444444287 -1.9444444444444287) scale(3.89 3.89)" >
	<circle cx="44.01" cy="54.7" r="26.18" style="stroke: none; stroke-width: 1; stroke-dasharray: none; stroke-linecap: butt; stroke-linejoin: miter; stroke-miterlimit: 10; fill: rgb(242,81,60); fill-rule: nonzero; opacity: 1;" transform="  matrix(1 0 0 1 0 0) "/>
	<path d="M 45 5.025 L 3.285 36.637 h 7.603 V 88.5 c 0 0.828 0.671 1.5 1.5 1.5 h 65.225 c 0.828 0 1.5 -0.672 1.5 -1.5 V 36.637 h 7.75 L 45 5.025 z M 60.308 57.851 l -12.88 12.823 c -0.67 0.666 -1.549 0.999 -2.428 0.999 s -1.758 -0.333 -2.427 -0.999 l -12.878 -12.82 c -4.515 -4.516 -4.515 -11.858 -0.002 -16.371 c 4.025 -4.025 10.848 -4.526 15.53 -1.139 c 0.164 0.118 0.375 0.114 0.539 -0.008 c 4.517 -3.37 10.497 -2.901 14.546 1.146 C 64.82 45.995 64.82 53.338 60.308 57.851 z" style="stroke: none; stroke-width: 1; stroke-dasharray: none; stroke-linecap: butt; stroke-linejoin: miter; stroke-miterlimit: 10; fill: rgb(66,172,196); fill-rule: nonzero; opacity: 1;" transform=" matrix(1 0 0 1 0 0) " stroke-linecap="round" />
	<path d="M 89.418 33.95 l -43.5 -33.637 c -0.54 -0.418 -1.295 -0.418 -1.835 0 L 0.583 33.95 C 0.215 34.234 0 34.672 0 35.137 v 10 c 0 0.572 0.326 1.095 0.839 1.347 c 0.513 0.251 1.126 0.19 1.579 -0.16 L 45 13.396 l 42.582 32.927 c 0.269 0.207 0.592 0.313 0.918 0.313 c 0.226 0 0.451 -0.051 0.661 -0.153 C 89.675 46.231 90 45.709 90 45.137 v -10 C 90 34.672 89.785 34.234 89.418 33.95 z" style="stroke: none; stroke-width: 1; stroke-dasharray: none; stroke-linecap: butt; stroke-linejoin: miter; stroke-miterlimit: 10; fill: rgb(222,83,60); fill-rule: nonzero; opacity: 1;" transform=" matrix(1 0 0 1 0 0) " stroke-linecap="round" />
</g>
</svg>