<?xml version="1.0" encoding="UTF-8" standalone="no" ?>
<!DOCTYPE svg PUBLIC "-//W3C//DTD SVG 1.1//EN" "http://www.w3.org/Graphics/SVG/1.1/DTD/svg11.dtd">
<svg xmlns="http://www.w3.org/2000/svg" xmlns:xlink="http://www.w3.org/1999/xlink" version="1.1" width="350" height="350" viewBox="0 0 350 350" xml:space="preserve">
<desc>Created with Fabric.js 1.7.22</desc>
<defs>
</defs>
<g id="icon" style="stroke: none; stroke-width: 1; stroke-dasharray: none; stroke-linecap: butt; stroke-linejoin: miter; stroke-miterlimit: 10; fill: none; fill-rule: nonzero; opacity: 1;" transform="translate(-1.9444444444444287 -1.9444444444444287) scale(3.89 3.89)" >
	<path d="M 19.283 49.713 v 9.625 c 0 3.335 2.703 6.038 6.038 6.038 h 52.482 c 3.335 0 6.038 -2.703 6.038 -6.038 V 24.504 c 0 -3.335 -2.703 -6.038 -6.038 -6.038 H 25.321 c -3.335 0 -6.038 2.703 -6.038 6.038 v 9.51 C 19.283 34.014 19.283 49.713 19.283 49.713 z" style="stroke: none; stroke-width: 1; stroke-dasharray: none; stroke-linecap: butt; stroke-linejoin: miter; stroke-miterlimit: 10; fill: rgb(255,236,0); fill-rule: nonzero; opacity: 1;" transform=" matrix(1 0 0 1 0 0) " stroke-linecap="round" />
	<path d="M 24.085 43.342 H 7.142 c -0.785 0 -1.421 -0.636 -1.421 -1.421 S 6.357 40.5 7.142 40.5 h 16.943 c 0.785 0 1.421 0.636 1.421 1.421 C 25.506 42.706 24.87 43.342 24.085 43.342 z" style="stroke: none; stroke-width: 1; stroke-dasharray: none; stroke-linecap: butt; stroke-linejoin: miter; stroke-miterlimit: 10; fill: rgb(255,236,0); fill-rule: nonzero; opacity: 1;" transform=" matrix(1 0 0 1 0 0) " stroke-linecap="round" />
	<path d="M 11.839 33.41 H 1.421 C 0.636 33.41 0 32.774 0 31.989 s 0.636 -1.421 1.421 -1.421 h 10.418 c 0.785 0 1.421 0.636 1.421 1.421 C 13.26 32.774 12.624 33.41 11.839 33.41 z" style="stroke: none; stroke-width: 1; stroke-dasharray: none; stroke-linecap: butt; stroke-linejoin: miter; stroke-miterlimit: 10; fill: rgb(255,236,0); fill-rule: nonzero; opacity: 1;" transform=" matrix(1 0 0 1 0 0) " stroke-linecap="round" />
	<path d="M 11.839 53.275 H 4.162 c -0.785 0 -1.421 -0.637 -1.421 -1.421 c 0 -0.785 0.636 -1.421 1.421 -1.421 h 7.677 c 0.785 0 1.421 0.637 1.421 1.421 S 12.624 53.275 11.839 53.275 z" style="stroke: none; stroke-width: 1; stroke-dasharray: none; stroke-linecap: butt; stroke-linejoin: miter; stroke-miterlimit: 10; fill: rgb(255,236,0); fill-rule: nonzero; opacity: 1;" transform=" matrix(1 0 0 1 0 0) " stroke-linecap="round" />
	<path d="M 82.541 71.534 H 30.058 c -4.113 0 -7.459 -3.346 -7.459 -7.459 V 54.45 c 0 -0.785 0.636 -1.421 1.421 -1.421 c 0.785 0 1.421 0.637 1.421 1.421 v 9.625 c 0 2.545 2.071 4.617 4.617 4.617 h 52.483 c 2.545 0 4.617 -2.071 4.617 -4.617 V 29.241 c 0 -2.546 -2.071 -4.617 -4.617 -4.617 H 30.058 c -2.546 0 -4.617 2.071 -4.617 4.617 v 9.51 c 0 0.785 -0.636 1.421 -1.421 1.421 c -0.785 0 -1.421 -0.636 -1.421 -1.421 v -9.51 c 0 -4.113 3.346 -7.459 7.459 -7.459 h 52.483 c 4.112 0 7.459 3.346 7.459 7.459 v 34.834 C 90 68.187 86.654 71.534 82.541 71.534 z" style="stroke: none; stroke-width: 1; stroke-dasharray: none; stroke-linecap: butt; stroke-linejoin: miter; stroke-miterlimit: 10; fill: rgb(0,0,0); fill-rule: nonzero; opacity: 1;" transform=" matrix(1 0 0 1 0 0) " stroke-linecap="round" />
	<path d="M 56.299 54.238 c -0.344 0 -0.689 -0.125 -0.96 -0.374 l -23.7 -21.743 c -0.578 -0.531 -0.617 -1.43 -0.087 -2.008 c 0.531 -0.578 1.429 -0.616 2.008 -0.087 l 22.739 20.862 L 79.04 30.027 c 0.579 -0.53 1.477 -0.491 2.008 0.087 c 0.53 0.579 0.491 1.477 -0.087 2.008 L 57.259 53.864 C 56.988 54.113 56.643 54.238 56.299 54.238 z" style="stroke: none; stroke-width: 1; stroke-dasharray: none; stroke-linecap: butt; stroke-linejoin: miter; stroke-miterlimit: 10; fill: rgb(0,0,0); fill-rule: nonzero; opacity: 1;" transform=" matrix(1 0 0 1 0 0) " stroke-linecap="round" />
	<path d="M 32.6 63.663 c -0.384 0 -0.767 -0.155 -1.048 -0.461 c -0.531 -0.578 -0.492 -1.477 0.087 -2.008 L 48.626 45.61 c 0.578 -0.529 1.477 -0.491 2.008 0.087 c 0.53 0.578 0.491 1.477 -0.087 2.008 L 33.56 63.29 C 33.287 63.539 32.943 63.663 32.6 63.663 z" style="stroke: none; stroke-width: 1; stroke-dasharray: none; stroke-linecap: butt; stroke-linejoin: miter; stroke-miterlimit: 10; fill: rgb(0,0,0); fill-rule: nonzero; opacity: 1;" transform=" matrix(1 0 0 1 0 0) " stroke-linecap="round" />
	<path d="M 80 63.663 c -0.343 0 -0.687 -0.124 -0.96 -0.374 L 62.053 47.705 c -0.578 -0.531 -0.617 -1.43 -0.087 -2.008 c 0.531 -0.578 1.429 -0.617 2.008 -0.087 L 80.96 61.195 c 0.578 0.531 0.617 1.429 0.087 2.008 C 80.767 63.509 80.384 63.663 80 63.663 z" style="stroke: none; stroke-width: 1; stroke-dasharray: none; stroke-linecap: butt; stroke-linejoin: miter; stroke-miterlimit: 10; fill: rgb(0,0,0); fill-rule: nonzero; opacity: 1;" transform=" matrix(1 0 0 1 0 0) " stroke-linecap="round" />
	<path d="M 28.822 48.079 H 11.879 c -0.785 0 -1.421 -0.636 -1.421 -1.421 s 0.636 -1.421 1.421 -1.421 h 16.943 c 0.785 0 1.421 0.636 1.421 1.421 C 30.243 47.443 29.607 48.079 28.822 48.079 z" style="stroke: none; stroke-width: 1; stroke-dasharray: none; stroke-linecap: butt; stroke-linejoin: miter; stroke-miterlimit: 10; fill: rgb(0,0,0); fill-rule: nonzero; opacity: 1;" transform=" matrix(1 0 0 1 0 0) " stroke-linecap="round" />
	<path d="M 16.576 38.147 H 6.158 c -0.785 0 -1.421 -0.636 -1.421 -1.421 s 0.636 -1.421 1.421 -1.421 h 10.418 c 0.785 0 1.421 0.636 1.421 1.421 C 17.997 37.511 17.361 38.147 16.576 38.147 z" style="stroke: none; stroke-width: 1; stroke-dasharray: none; stroke-linecap: butt; stroke-linejoin: miter; stroke-miterlimit: 10; fill: rgb(0,0,0); fill-rule: nonzero; opacity: 1;" transform=" matrix(1 0 0 1 0 0) " stroke-linecap="round" />
	<path d="M 16.576 58.012 H 8.899 c -0.785 0 -1.421 -0.637 -1.421 -1.421 c 0 -0.784 0.636 -1.421 1.421 -1.421 h 7.677 c 0.785 0 1.421 0.637 1.421 1.421 C 17.997 57.375 17.361 58.012 16.576 58.012 z" style="stroke: none; stroke-width: 1; stroke-dasharray: none; stroke-linecap: butt; stroke-linejoin: miter; stroke-miterlimit: 10; fill: rgb(0,0,0); fill-rule: nonzero; opacity: 1;" transform=" matrix(1 0 0 1 0 0) " stroke-linecap="round" />
</g>
</svg>