<?xml version="1.0" encoding="UTF-8" standalone="no" ?>
<!DOCTYPE svg PUBLIC "-//W3C//DTD SVG 1.1//EN" "http://www.w3.org/Graphics/SVG/1.1/DTD/svg11.dtd">
<svg xmlns="http://www.w3.org/2000/svg" xmlns:xlink="http://www.w3.org/1999/xlink" version="1.1" width="350" height="350" viewBox="0 0 350 350" xml:space="preserve">
<desc>Created with Fabric.js 1.7.22</desc>
<defs>
</defs>
<g id="icon" style="stroke: none; stroke-width: 1; stroke-dasharray: none; stroke-linecap: butt; stroke-linejoin: miter; stroke-miterlimit: 10; fill: none; fill-rule: nonzero; opacity: 1;" transform="translate(-1.9444444444444287 -1.9444444444444287) scale(3.89 3.89)" >
	<path d="M 90 49.5 h -9 C 81 27.168 62.832 9 40.5 9 V 0 C 67.794 0 90 22.206 90 49.5 z" style="stroke: none; stroke-width: 1; stroke-dasharray: none; stroke-linecap: butt; stroke-linejoin: miter; stroke-miterlimit: 10; fill: rgb(38,185,153); fill-rule: nonzero; opacity: 1;" transform=" matrix(1 0 0 1 0 0) " stroke-linecap="round" />
	<path d="M 72.5 49.5 h -9 c 0 -12.682 -10.317 -23 -23 -23 v -9 C 58.145 17.5 72.5 31.855 72.5 49.5 z" style="stroke: none; stroke-width: 1; stroke-dasharray: none; stroke-linecap: butt; stroke-linejoin: miter; stroke-miterlimit: 10; fill: rgb(38,185,153); fill-rule: nonzero; opacity: 1;" transform=" matrix(1 0 0 1 0 0) " stroke-linecap="round" />
	<path d="M 49.665 62.087 c 0.974 0.974 2.471 1.194 3.684 0.543 l 6.198 -3.328 c 11.764 2.454 21.211 7.851 28.004 16.618 c 0.016 -0.038 0.032 -0.074 0.049 -0.112 c -1.393 3.212 -2.871 6.667 -3.621 8.581 c -0.247 0.631 -0.615 1.208 -1.127 1.652 c -12.674 10.986 -37.89 -2.4 -57.191 -21.701 C 6.358 45.039 -7.028 19.823 3.958 7.149 c 0.444 -0.512 1.022 -0.88 1.652 -1.127 c 1.914 -0.75 5.369 -2.228 8.581 -3.621 c -0.038 0.016 -0.074 0.032 -0.112 0.049 c 8.767 6.793 14.164 16.24 16.618 28.004 l -3.328 6.198 c -0.651 1.213 -0.431 2.71 0.543 3.684 l 10.876 10.876 L 49.665 62.087 z" style="stroke: none; stroke-width: 1; stroke-dasharray: none; stroke-linecap: butt; stroke-linejoin: miter; stroke-miterlimit: 10; fill: rgb(105,188,69); fill-rule: nonzero; opacity: 1;" transform=" matrix(1 0 0 1 0 0) " stroke-linecap="round" />
	<path d="M 59.547 59.302 l 6.835 -3.669 c 0.964 -0.518 2.129 -0.493 3.07 0.066 l 19.017 11.285 c 1.357 0.805 1.903 2.489 1.268 3.933 c -0.599 1.363 -1.38 3.146 -2.185 5.003 L 59.547 59.302 z" style="stroke: none; stroke-width: 1; stroke-dasharray: none; stroke-linecap: butt; stroke-linejoin: miter; stroke-miterlimit: 10; fill: rgb(71,160,71); fill-rule: nonzero; opacity: 1;" transform=" matrix(1 0 0 1 0 0) " stroke-linecap="round" />
	<path d="M 30.698 30.453 l 3.669 -6.835 c 0.518 -0.964 0.493 -2.129 -0.066 -3.07 L 23.017 1.531 c -0.805 -1.357 -2.489 -1.903 -3.933 -1.268 c -1.363 0.599 -3.146 1.38 -5.003 2.185 L 30.698 30.453 z" style="stroke: none; stroke-width: 1; stroke-dasharray: none; stroke-linecap: butt; stroke-linejoin: miter; stroke-miterlimit: 10; fill: rgb(71,160,71); fill-rule: nonzero; opacity: 1;" transform=" matrix(1 0 0 1 0 0) " stroke-linecap="round" />
</g>
</svg>