<?xml version="1.0" encoding="UTF-8" standalone="no" ?>
<!DOCTYPE svg PUBLIC "-//W3C//DTD SVG 1.1//EN" "http://www.w3.org/Graphics/SVG/1.1/DTD/svg11.dtd">
<svg xmlns="http://www.w3.org/2000/svg" xmlns:xlink="http://www.w3.org/1999/xlink" version="1.1" width="350" height="350" viewBox="0 0 350 350" xml:space="preserve">
<desc>Created with Fabric.js 1.7.22</desc>
<defs>
</defs>
<g id="icon" style="stroke: none; stroke-width: 1; stroke-dasharray: none; stroke-linecap: butt; stroke-linejoin: miter; stroke-miterlimit: 10; fill: none; fill-rule: nonzero; opacity: 1;" transform="translate(-1.9444444444444287 -1.9444444444444287) scale(3.89 3.89)" >
	<path d="M 45 0 C 20.147 0 0 20.147 0 45 c 0 24.853 20.147 45 45 45 c 24.853 0 45 -20.147 45 -45 C 90 20.147 69.853 0 45 0 z M 64.882 34.804 c 0.02 0.44 0.029 0.882 0.029 1.326 c 0 13.555 -10.318 29.187 -29.187 29.187 c -5.794 0 -11.185 -1.698 -15.725 -4.608 c 0.803 0.095 1.619 0.142 2.447 0.142 c 4.806 0 9.229 -1.64 12.741 -4.391 c -4.49 -0.084 -8.277 -3.049 -9.583 -7.125 c 0.625 0.12 1.268 0.185 1.928 0.185 c 0.936 0 1.843 -0.126 2.704 -0.361 c -4.693 -0.941 -8.23 -5.088 -8.23 -10.057 c 0 -0.045 0 -0.088 0.002 -0.131 c 1.383 0.769 2.964 1.231 4.646 1.283 c -2.754 -1.838 -4.565 -4.98 -4.565 -8.539 c 0 -1.879 0.507 -3.64 1.389 -5.156 c 5.059 6.207 12.619 10.289 21.144 10.718 c -0.176 -0.751 -0.266 -1.534 -0.266 -2.339 c 0 -5.663 4.594 -10.258 10.26 -10.258 c 2.95 0 5.616 1.247 7.488 3.241 c 2.337 -0.46 4.531 -1.315 6.514 -2.49 c -0.767 2.395 -2.393 4.405 -4.511 5.675 c 2.075 -0.248 4.053 -0.798 5.891 -1.615 C 68.626 31.55 66.885 33.357 64.882 34.804 z" style="stroke: none; stroke-width: 1; stroke-dasharray: none; stroke-linecap: butt; stroke-linejoin: miter; stroke-miterlimit: 10; fill: rgb(22,145,181); fill-rule: nonzero; opacity: 1;" transform=" matrix(1 0 0 1 0 0) " stroke-linecap="round" />
</g>
</svg>