<?xml version="1.0" encoding="UTF-8" standalone="no" ?>
<!DOCTYPE svg PUBLIC "-//W3C//DTD SVG 1.1//EN" "http://www.w3.org/Graphics/SVG/1.1/DTD/svg11.dtd">
<svg xmlns="http://www.w3.org/2000/svg" xmlns:xlink="http://www.w3.org/1999/xlink" version="1.1" width="350" height="350" viewBox="0 0 350 350" xml:space="preserve">
<desc>Created with Fabric.js 1.7.22</desc>
<defs>
</defs>
<g id="icon" style="stroke: none; stroke-width: 1; stroke-dasharray: none; stroke-linecap: butt; stroke-linejoin: miter; stroke-miterlimit: 10; fill: none; fill-rule: nonzero; opacity: 1;" transform="translate(-1.9444444444444287 -1.9444444444444287) scale(3.89 3.89)" >
	<path d="M 2.113 44.609 c -0.003 7.587 1.98 14.994 5.749 21.524 l -6.11 22.31 l 22.83 -5.986 c 6.29 3.428 13.372 5.237 20.58 5.24 h 0.019 c 23.736 0 43.056 -19.315 43.066 -43.053 c 0.005 -11.504 -4.471 -22.32 -12.603 -30.459 C 67.514 6.047 56.702 1.563 45.18 1.558 c -23.737 0 -43.057 19.312 -43.067 43.052" style="stroke: none; stroke-width: 1; stroke-dasharray: none; stroke-linecap: butt; stroke-linejoin: miter; stroke-miterlimit: 10; fill: rgb(42,181,64); fill-rule: nonzero; opacity: 1;" transform=" matrix(1 0 0 1 0 0) " stroke-linecap="round" />
	<path d="M 0.576 44.596 C 0.573 52.456 2.626 60.129 6.53 66.892 L 0.201 90 l 23.65 -6.201 c 6.516 3.553 13.852 5.426 21.318 5.429 h 0.019 c 24.586 0 44.601 -20.009 44.612 -44.597 c 0.004 -11.917 -4.633 -23.122 -13.055 -31.552 C 68.321 4.65 57.121 0.005 45.188 0 C 20.597 0 0.585 20.005 0.575 44.595 M 14.658 65.727 l -0.883 -1.402 c -3.712 -5.902 -5.671 -12.723 -5.669 -19.726 C 8.115 24.161 24.748 7.532 45.201 7.532 c 9.905 0.004 19.213 3.865 26.215 10.871 c 7.001 7.006 10.854 16.32 10.851 26.224 c -0.009 20.439 -16.643 37.068 -37.08 37.068 h -0.015 c -6.655 -0.004 -13.181 -1.79 -18.872 -5.168 l -1.355 -0.803 l -14.035 3.68 L 14.658 65.727 z M 45.188 89.228 L 45.188 89.228 L 45.188 89.228 C 45.187 89.228 45.187 89.228 45.188 89.228" style="stroke: none; stroke-width: 1; stroke-dasharray: none; stroke-linecap: butt; stroke-linejoin: miter; stroke-miterlimit: 10; fill: rgb(251,251,251); fill-rule: nonzero; opacity: 1;" transform=" matrix(1 0 0 1 0 0) " stroke-linecap="round" />
	<path d="M 34.038 25.95 c -0.835 -1.856 -1.714 -1.894 -2.508 -1.926 c -0.65 -0.028 -1.394 -0.026 -2.136 -0.026 c -0.744 0 -1.951 0.279 -2.972 1.394 c -1.022 1.116 -3.902 3.812 -3.902 9.296 c 0 5.485 3.995 10.784 4.551 11.529 c 0.558 0.743 7.712 12.357 19.041 16.825 c 9.416 3.713 11.333 2.975 13.376 2.789 c 2.044 -0.186 6.595 -2.696 7.524 -5.299 c 0.929 -2.603 0.929 -4.834 0.651 -5.299 c -0.279 -0.465 -1.022 -0.744 -2.137 -1.301 c -1.115 -0.558 -6.595 -3.254 -7.617 -3.626 c -1.022 -0.372 -1.765 -0.557 -2.509 0.559 c -0.743 1.115 -2.878 3.625 -3.528 4.368 c -0.65 0.745 -1.301 0.838 -2.415 0.28 c -1.115 -0.559 -4.705 -1.735 -8.964 -5.532 c -3.314 -2.955 -5.551 -6.603 -6.201 -7.719 c -0.65 -1.115 -0.069 -1.718 0.489 -2.274 c 0.501 -0.499 1.115 -1.301 1.673 -1.952 c 0.556 -0.651 0.742 -1.116 1.113 -1.859 c 0.372 -0.744 0.186 -1.395 -0.093 -1.953 C 37.195 33.666 35.029 28.154 34.038 25.95" style="stroke: none; stroke-width: 1; stroke-dasharray: none; stroke-linecap: butt; stroke-linejoin: miter; stroke-miterlimit: 10; fill: rgb(251,251,251); fill-rule: nonzero; opacity: 1;" transform=" matrix(1 0 0 1 0 0) " stroke-linecap="round" />
</g>
</svg>