<?xml version="1.0" encoding="UTF-8" standalone="no" ?>
<!DOCTYPE svg PUBLIC "-//W3C//DTD SVG 1.1//EN" "http://www.w3.org/Graphics/SVG/1.1/DTD/svg11.dtd">
<svg xmlns="http://www.w3.org/2000/svg" xmlns:xlink="http://www.w3.org/1999/xlink" version="1.1" width="350" height="350" viewBox="0 0 350 350" xml:space="preserve">
<desc>Created with Fabric.js 1.7.22</desc>
<defs>
</defs>
<g id="icon" style="stroke: none; stroke-width: 1; stroke-dasharray: none; stroke-linecap: butt; stroke-linejoin: miter; stroke-miterlimit: 10; fill: none; fill-rule: nonzero; opacity: 1;" transform="translate(-1.9444444444444287 -1.9444444444444287) scale(3.89 3.89)" >
	<path d="M 45 28.965 c -11.326 0 -20.54 9.214 -20.54 20.54 c 0 11.325 9.214 20.539 20.54 20.539 c 11.325 0 20.539 -9.214 20.539 -20.539 C 65.539 38.179 56.325 28.965 45 28.965 z M 45 65.505 c -8.822 0 -16 -7.178 -16 -16 c 0 -8.823 7.178 -16 16 -16 s 16 7.178 16 16 C 61 58.327 53.822 65.505 45 65.505 z" style="stroke: none; stroke-width: 1; stroke-dasharray: none; stroke-linecap: butt; stroke-linejoin: miter; stroke-miterlimit: 10; fill: rgb(33,255,91); fill-rule: nonzero; opacity: 1;" transform=" matrix(1 0 0 1 0 0) " stroke-linecap="round" />
	<path d="M 45 35.504 c -7.72 0 -14 6.281 -14 14 s 6.28 14 14 14 s 14 -6.28 14 -14 S 52.72 35.504 45 35.504 z M 35.416 45.981 l 6.451 -6.451 c 0.391 -0.391 1.023 -0.391 1.414 0 s 0.391 1.023 0 1.414 l -6.451 6.451 c -0.195 0.195 -0.451 0.293 -0.707 0.293 s -0.512 -0.098 -0.707 -0.293 C 35.025 47.005 35.025 46.372 35.416 45.981 z M 44.456 46.993 l -7.437 7.438 c -0.195 0.195 -0.451 0.293 -0.707 0.293 s -0.512 -0.098 -0.707 -0.293 c -0.391 -0.391 -0.391 -1.023 0 -1.414 l 7.437 -7.438 c 0.391 -0.391 1.023 -0.391 1.414 0 S 44.846 46.603 44.456 46.993 z M 50.316 41.133 l -3.037 3.037 c -0.195 0.195 -0.451 0.293 -0.707 0.293 s -0.512 -0.098 -0.707 -0.293 c -0.391 -0.391 -0.391 -1.023 0 -1.414 l 3.037 -3.037 c 0.391 -0.391 1.023 -0.391 1.414 0 S 50.707 40.742 50.316 41.133 z" style="stroke: none; stroke-width: 1; stroke-dasharray: none; stroke-linecap: butt; stroke-linejoin: miter; stroke-miterlimit: 10; fill: rgb(33,255,91); fill-rule: nonzero; opacity: 1;" transform=" matrix(1 0 0 1 0 0) " stroke-linecap="round" />
	<path d="M 14.366 28.083 h -3.915 c -1.495 0 -2.711 1.216 -2.711 2.711 s 1.216 2.711 2.711 2.711 h 3.915 c 1.495 0 2.711 -1.216 2.711 -2.711 S 15.86 28.083 14.366 28.083 z" style="stroke: none; stroke-width: 1; stroke-dasharray: none; stroke-linecap: butt; stroke-linejoin: miter; stroke-miterlimit: 10; fill: rgb(33,255,91); fill-rule: nonzero; opacity: 1;" transform=" matrix(1 0 0 1 0 0) " stroke-linecap="round" />
	<path d="M 86.018 18.81 H 64.651 v -4.878 c 0 -2.278 -1.854 -4.131 -4.131 -4.131 H 29.479 c -2.278 0 -4.131 1.853 -4.131 4.131 v 4.878 H 3.982 C 1.786 18.81 0 20.596 0 22.792 v 53.425 c 0 2.196 1.786 3.982 3.982 3.982 h 82.036 c 2.196 0 3.982 -1.786 3.982 -3.982 V 22.792 C 90 20.596 88.214 18.81 86.018 18.81 z M 14.366 35.504 h -3.915 c -2.598 0 -4.711 -2.113 -4.711 -4.711 s 2.113 -4.711 4.711 -4.711 h 3.915 c 2.598 0 4.711 2.113 4.711 4.711 S 16.963 35.504 14.366 35.504 z M 45 72.044 c -12.428 0 -22.54 -10.111 -22.54 -22.539 c 0 -12.429 10.111 -22.54 22.54 -22.54 c 12.428 0 22.539 10.111 22.539 22.54 C 67.539 61.933 57.428 72.044 45 72.044 z M 78.023 35.504 c -2.598 0 -4.711 -2.113 -4.711 -4.711 s 2.113 -4.711 4.711 -4.711 s 4.711 2.113 4.711 4.711 S 80.621 35.504 78.023 35.504 z" style="stroke: none; stroke-width: 1; stroke-dasharray: none; stroke-linecap: butt; stroke-linejoin: miter; stroke-miterlimit: 10; fill: rgb(33,255,91); fill-rule: nonzero; opacity: 1;" transform=" matrix(1 0 0 1 0 0) " stroke-linecap="round" />
	<circle cx="78.021" cy="30.790999999999997" r="2.711" style="stroke: none; stroke-width: 1; stroke-dasharray: none; stroke-linecap: butt; stroke-linejoin: miter; stroke-miterlimit: 10; fill: rgb(33,255,91); fill-rule: nonzero; opacity: 1;" transform="  matrix(1 0 0 1 0 0) "/>
</g>
</svg>