<?xml version="1.0" encoding="UTF-8" standalone="no" ?>
<!DOCTYPE svg PUBLIC "-//W3C//DTD SVG 1.1//EN" "http://www.w3.org/Graphics/SVG/1.1/DTD/svg11.dtd">
<svg xmlns="http://www.w3.org/2000/svg" xmlns:xlink="http://www.w3.org/1999/xlink" version="1.1" width="350" height="350" viewBox="0 0 350 350" xml:space="preserve">
<desc>Created with Fabric.js 1.7.22</desc>
<defs>
</defs>
<g id="icon" style="stroke: none; stroke-width: 1; stroke-dasharray: none; stroke-linecap: butt; stroke-linejoin: miter; stroke-miterlimit: 10; fill: none; fill-rule: nonzero; opacity: 1;" transform="translate(-1.9444444444444287 -1.9444444444444287) scale(3.89 3.89)" >
	<path d="M 33.085 45 H 45 V 33.085 c 5.57 0 10.085 -4.515 10.085 -10.085 c 0 -5.57 -4.515 -10.085 -10.085 -10.085 V 1 H 1 v 44 h 11.915" style="stroke: none; stroke-width: 1; stroke-dasharray: none; stroke-linecap: butt; stroke-linejoin: miter; stroke-miterlimit: 10; fill: rgb(33,255,91); fill-rule: nonzero; opacity: 1;" transform=" matrix(1 0 0 1 0 0) " stroke-linecap="round" />
	<path d="M 45 77.085 V 89 H 1 V 45 h 11.915 c 0 -5.57 4.515 -10.085 10.085 -10.085 c 5.57 0 10.085 4.515 10.085 10.085 H 45 v 11.915" style="stroke: none; stroke-width: 1; stroke-dasharray: none; stroke-linecap: butt; stroke-linejoin: miter; stroke-miterlimit: 10; fill: rgb(76,37,135); fill-rule: nonzero; opacity: 1;" transform=" matrix(1 0 0 1 0 0) " stroke-linecap="round" />
	<path d="M 56.915 45 H 45 v 11.915 c -5.57 0 -10.085 4.515 -10.085 10.085 c 0 5.57 4.515 10.085 10.085 10.085 V 89 h 44 V 45 H 77.085" style="stroke: none; stroke-width: 1; stroke-dasharray: none; stroke-linecap: butt; stroke-linejoin: miter; stroke-miterlimit: 10; fill: rgb(33,156,255); fill-rule: nonzero; opacity: 1;" transform=" matrix(1 0 0 1 0 0) " stroke-linecap="round" />
	<path d="M 45 1 v 11.915 c 5.57 0 10.085 4.515 10.085 10.085 c 0 5.57 -4.515 10.085 -10.085 10.085 V 45 h 11.915 c 0 5.57 4.515 10.085 10.085 10.085 c 5.57 0 10.085 -4.515 10.085 -10.085 H 89 V 1 H 45 z" style="stroke: none; stroke-width: 1; stroke-dasharray: none; stroke-linecap: butt; stroke-linejoin: miter; stroke-miterlimit: 10; fill: rgb(253,76,58); fill-rule: nonzero; opacity: 1;" transform=" matrix(1 0 0 1 0 0) " stroke-linecap="round" />
	<path d="M 89 90 H 1 c -0.552 0 -1 -0.447 -1 -1 V 1 c 0 -0.552 0.448 -1 1 -1 h 88 c 0.553 0 1 0.448 1 1 v 88 C 90 89.553 89.553 90 89 90 z M 2 88 h 86 V 2 H 2 V 88 z" style="stroke: none; stroke-width: 1; stroke-dasharray: none; stroke-linecap: butt; stroke-linejoin: miter; stroke-miterlimit: 10; fill: rgb(0,0,0); fill-rule: nonzero; opacity: 1;" transform=" matrix(1 0 0 1 0 0) " stroke-linecap="round" />
	<path d="M 67 56.085 c -5.775 0 -10.533 -4.439 -11.04 -10.085 H 45 c -0.552 0 -1 -0.448 -1 -1 V 33.084 c 0 -0.552 0.448 -1 1 -1 s 1 0.448 1 1 V 44 h 10.915 c 0.553 0 1 0.448 1 1 c 0 5.01 4.075 9.085 9.085 9.085 S 76.085 50.01 76.085 45 c 0 -0.552 0.447 -1 1 -1 H 88 V 2 H 46 v 10.916 c 0 0.552 -0.448 1 -1 1 s -1 -0.448 -1 -1 V 1 c 0 -0.552 0.448 -1 1 -1 h 44 c 0.553 0 1 0.448 1 1 v 44 c 0 0.552 -0.447 1 -1 1 H 78.04 C 77.533 51.646 72.775 56.085 67 56.085 z" style="stroke: none; stroke-width: 1; stroke-dasharray: none; stroke-linecap: butt; stroke-linejoin: miter; stroke-miterlimit: 10; fill: rgb(0,0,0); fill-rule: nonzero; opacity: 1;" transform=" matrix(1 0 0 1 0 0) " stroke-linecap="round" />
	<path d="M 45 90 H 1 c -0.552 0 -1 -0.447 -1 -1 V 45 c 0 -0.552 0.448 -1 1 -1 h 10.96 c 0.507 -5.646 5.265 -10.084 11.04 -10.084 S 33.533 38.354 34.04 44 H 45 c 0.552 0 1 0.448 1 1 v 11.915 c 0 0.553 -0.448 1 -1 1 s -1 -0.447 -1 -1 V 46 H 33.084 c -0.552 0 -1 -0.448 -1 -1 c 0 -5.009 -4.075 -9.084 -9.084 -9.084 S 13.916 39.991 13.916 45 c 0 0.552 -0.448 1 -1 1 H 2 v 42 h 42 V 77.085 c 0 -0.553 0.448 -1 1 -1 s 1 0.447 1 1 V 89 C 46 89.553 45.552 90 45 90 z" style="stroke: none; stroke-width: 1; stroke-dasharray: none; stroke-linecap: butt; stroke-linejoin: miter; stroke-miterlimit: 10; fill: rgb(0,0,0); fill-rule: nonzero; opacity: 1;" transform=" matrix(1 0 0 1 0 0) " stroke-linecap="round" />
	<path d="M 45 46 H 33.084 c -0.552 0 -1 -0.448 -1 -1 s 0.448 -1 1 -1 H 44 V 33.084 c 0 -0.552 0.448 -1 1 -1 c 5.01 0 9.085 -4.075 9.085 -9.084 S 50.01 13.916 45 13.916 c -0.552 0 -1 -0.448 -1 -1 V 2 H 2 v 42 h 10.916 c 0.552 0 1 0.448 1 1 s -0.448 1 -1 1 H 1 c -0.552 0 -1 -0.448 -1 -1 V 1 c 0 -0.552 0.448 -1 1 -1 h 44 c 0.552 0 1 0.448 1 1 v 10.96 c 5.646 0.507 10.085 5.265 10.085 11.04 S 51.646 33.533 46 34.04 V 45 C 46 45.552 45.552 46 45 46 z" style="stroke: none; stroke-width: 1; stroke-dasharray: none; stroke-linecap: butt; stroke-linejoin: miter; stroke-miterlimit: 10; fill: rgb(0,0,0); fill-rule: nonzero; opacity: 1;" transform=" matrix(1 0 0 1 0 0) " stroke-linecap="round" />
	<path d="M 89 90 H 45 c -0.552 0 -1 -0.447 -1 -1 V 78.04 C 38.354 77.533 33.916 72.775 33.916 67 S 38.354 56.467 44 55.96 V 45 c 0 -0.552 0.448 -1 1 -1 h 11.915 c 0.553 0 1 0.448 1 1 s -0.447 1 -1 1 H 46 v 10.915 c 0 0.553 -0.448 1 -1 1 c -5.009 0 -9.084 4.075 -9.084 9.085 s 4.075 9.085 9.084 9.085 c 0.552 0 1 0.447 1 1 V 88 h 42 V 46 H 77.085 c -0.553 0 -1 -0.448 -1 -1 s 0.447 -1 1 -1 H 89 c 0.553 0 1 0.448 1 1 v 44 C 90 89.553 89.553 90 89 90 z" style="stroke: none; stroke-width: 1; stroke-dasharray: none; stroke-linecap: butt; stroke-linejoin: miter; stroke-miterlimit: 10; fill: rgb(0,0,0); fill-rule: nonzero; opacity: 1;" transform=" matrix(1 0 0 1 0 0) " stroke-linecap="round" />
</g>
</svg>