<?xml version="1.0" encoding="UTF-8" standalone="no" ?>
<!DOCTYPE svg PUBLIC "-//W3C//DTD SVG 1.1//EN" "http://www.w3.org/Graphics/SVG/1.1/DTD/svg11.dtd">
<svg xmlns="http://www.w3.org/2000/svg" xmlns:xlink="http://www.w3.org/1999/xlink" version="1.1" width="350" height="350" viewBox="0 0 350 350" xml:space="preserve">
<desc>Created with Fabric.js 1.7.22</desc>
<defs>
</defs>
<g id="icon" style="stroke: none; stroke-width: 1; stroke-dasharray: none; stroke-linecap: butt; stroke-linejoin: miter; stroke-miterlimit: 10; fill: none; fill-rule: nonzero; opacity: 1;" transform="translate(-1.9444444444444287 -1.9444444444444287) scale(3.89 3.89)" >
	<circle cx="45" cy="45" r="44" style="stroke: none; stroke-width: 1; stroke-dasharray: none; stroke-linecap: butt; stroke-linejoin: miter; stroke-miterlimit: 10; fill: rgb(33,255,91); fill-rule: nonzero; opacity: 1;" transform="  matrix(1 0 0 1 0 0) "/>
	<path d="M 45 90 C 20.187 90 0 69.813 0 45 C 0 20.187 20.187 0 45 0 c 24.813 0 45 20.187 45 45 C 90 69.813 69.813 90 45 90 z M 45 2 C 21.29 2 2 21.29 2 45 c 0 23.71 19.29 43 43 43 c 23.71 0 43 -19.29 43 -43 C 88 21.29 68.71 2 45 2 z" style="stroke: none; stroke-width: 1; stroke-dasharray: none; stroke-linecap: butt; stroke-linejoin: miter; stroke-miterlimit: 10; fill: rgb(0,0,0); fill-rule: nonzero; opacity: 1;" transform=" matrix(1 0 0 1 0 0) " stroke-linecap="round" />
	<path d="M 20.204 29.378 c -0.552 0 -1 -0.448 -1 -1 v -7.193 c 0 -0.552 0.448 -1 1 -1 s 1 0.448 1 1 v 7.193 C 21.204 28.93 20.756 29.378 20.204 29.378 z" style="stroke: none; stroke-width: 1; stroke-dasharray: none; stroke-linecap: butt; stroke-linejoin: miter; stroke-miterlimit: 10; fill: rgb(0,0,0); fill-rule: nonzero; opacity: 1;" transform=" matrix(1 0 0 1 0 0) " stroke-linecap="round" />
	<path d="M 26.657 37.002 c -0.552 0 -1 -0.448 -1 -1 V 4.999 c 0 -0.552 0.448 -1 1 -1 s 1 0.448 1 1 v 31.004 C 27.657 36.555 27.209 37.002 26.657 37.002 z" style="stroke: none; stroke-width: 1; stroke-dasharray: none; stroke-linecap: butt; stroke-linejoin: miter; stroke-miterlimit: 10; fill: rgb(0,0,0); fill-rule: nonzero; opacity: 1;" transform=" matrix(1 0 0 1 0 0) " stroke-linecap="round" />
	<path d="M 33.11 44.531 c -0.552 0 -1 -0.448 -1 -1 V 8.225 c 0 -0.552 0.448 -1 1 -1 s 1 0.448 1 1 v 35.306 C 34.11 44.083 33.662 44.531 33.11 44.531 z" style="stroke: none; stroke-width: 1; stroke-dasharray: none; stroke-linecap: butt; stroke-linejoin: miter; stroke-miterlimit: 10; fill: rgb(0,0,0); fill-rule: nonzero; opacity: 1;" transform=" matrix(1 0 0 1 0 0) " stroke-linecap="round" />
	<path d="M 39.563 33.187 c -0.552 0 -1 -0.448 -1 -1 V 9.3 c 0 -0.552 0.448 -1 1 -1 s 1 0.448 1 1 v 22.886 C 40.563 32.739 40.115 33.187 39.563 33.187 z" style="stroke: none; stroke-width: 1; stroke-dasharray: none; stroke-linecap: butt; stroke-linejoin: miter; stroke-miterlimit: 10; fill: rgb(0,0,0); fill-rule: nonzero; opacity: 1;" transform=" matrix(1 0 0 1 0 0) " stroke-linecap="round" />
	<path d="M 46.016 36.413 c -0.552 0 -1 -0.448 -1 -1 V 14.678 c 0 -0.552 0.448 -1 1 -1 c 0.553 0 1 0.448 1 1 v 20.735 C 47.016 35.965 46.568 36.413 46.016 36.413 z" style="stroke: none; stroke-width: 1; stroke-dasharray: none; stroke-linecap: butt; stroke-linejoin: miter; stroke-miterlimit: 10; fill: rgb(0,0,0); fill-rule: nonzero; opacity: 1;" transform=" matrix(1 0 0 1 0 0) " stroke-linecap="round" />
	<path d="M 46.016 4.147 c -0.552 0 -1 -0.448 -1 -1 V 1.013 c 0 -0.552 0.448 -1 1 -1 c 0.553 0 1 0.448 1 1 v 2.134 C 47.016 3.7 46.568 4.147 46.016 4.147 z" style="stroke: none; stroke-width: 1; stroke-dasharray: none; stroke-linecap: butt; stroke-linejoin: miter; stroke-miterlimit: 10; fill: rgb(0,0,0); fill-rule: nonzero; opacity: 1;" transform=" matrix(1 0 0 1 0 0) " stroke-linecap="round" />
	<path d="M 52.469 22.431 c -0.553 0 -1 -0.448 -1 -1 v -8.904 c 0 -0.552 0.447 -1 1 -1 s 1 0.448 1 1 v 8.904 C 53.469 21.983 53.021 22.431 52.469 22.431 z" style="stroke: none; stroke-width: 1; stroke-dasharray: none; stroke-linecap: butt; stroke-linejoin: miter; stroke-miterlimit: 10; fill: rgb(0,0,0); fill-rule: nonzero; opacity: 1;" transform=" matrix(1 0 0 1 0 0) " stroke-linecap="round" />
	<path d="M 39.563 47.168 c -0.552 0 -1 -0.447 -1 -1 V 40.49 c 0 -0.552 0.448 -1 1 -1 s 1 0.448 1 1 v 5.678 C 40.563 46.721 40.115 47.168 39.563 47.168 z" style="stroke: none; stroke-width: 1; stroke-dasharray: none; stroke-linecap: butt; stroke-linejoin: miter; stroke-miterlimit: 10; fill: rgb(0,0,0); fill-rule: nonzero; opacity: 1;" transform=" matrix(1 0 0 1 0 0) " stroke-linecap="round" />
	<path d="M 46.016 51.47 c -0.552 0 -1 -0.447 -1 -1 v -1.376 c 0 -0.553 0.448 -1 1 -1 c 0.553 0 1 0.447 1 1 v 1.376 C 47.016 51.022 46.568 51.47 46.016 51.47 z" style="stroke: none; stroke-width: 1; stroke-dasharray: none; stroke-linecap: butt; stroke-linejoin: miter; stroke-miterlimit: 10; fill: rgb(0,0,0); fill-rule: nonzero; opacity: 1;" transform=" matrix(1 0 0 1 0 0) " stroke-linecap="round" />
	<path d="M 46.016 63.301 c -0.552 0 -1 -0.447 -1 -1 v -3.527 c 0 -0.553 0.448 -1 1 -1 c 0.553 0 1 0.447 1 1 v 3.527 C 47.016 62.854 46.568 63.301 46.016 63.301 z" style="stroke: none; stroke-width: 1; stroke-dasharray: none; stroke-linecap: butt; stroke-linejoin: miter; stroke-miterlimit: 10; fill: rgb(0,0,0); fill-rule: nonzero; opacity: 1;" transform=" matrix(1 0 0 1 0 0) " stroke-linecap="round" />
	<path d="M 52.469 68.678 c -0.553 0 -1 -0.447 -1 -1 V 50.17 c 0 -0.553 0.447 -1 1 -1 s 1 0.447 1 1 v 17.508 C 53.469 68.23 53.021 68.678 52.469 68.678 z" style="stroke: none; stroke-width: 1; stroke-dasharray: none; stroke-linecap: butt; stroke-linejoin: miter; stroke-miterlimit: 10; fill: rgb(0,0,0); fill-rule: nonzero; opacity: 1;" transform=" matrix(1 0 0 1 0 0) " stroke-linecap="round" />
	<path d="M 58.922 82.66 c -0.553 0 -1 -0.447 -1 -1 V 46.943 c 0 -0.553 0.447 -1 1 -1 s 1 0.447 1 1 V 81.66 C 59.922 82.213 59.475 82.66 58.922 82.66 z" style="stroke: none; stroke-width: 1; stroke-dasharray: none; stroke-linecap: butt; stroke-linejoin: miter; stroke-miterlimit: 10; fill: rgb(0,0,0); fill-rule: nonzero; opacity: 1;" transform=" matrix(1 0 0 1 0 0) " stroke-linecap="round" />
	<path d="M 52.469 88.761 c -0.553 0 -1 -0.447 -1 -1 v -4.25 c 0 -0.553 0.447 -1 1 -1 s 1 0.447 1 1 v 4.25 C 53.469 88.313 53.021 88.761 52.469 88.761 z" style="stroke: none; stroke-width: 1; stroke-dasharray: none; stroke-linecap: butt; stroke-linejoin: miter; stroke-miterlimit: 10; fill: rgb(0,0,0); fill-rule: nonzero; opacity: 1;" transform=" matrix(1 0 0 1 0 0) " stroke-linecap="round" />
	<path d="M 65.375 77.282 c -0.553 0 -1 -0.447 -1 -1 V 50.17 c 0 -0.553 0.447 -1 1 -1 s 1 0.447 1 1 v 26.112 C 66.375 76.835 65.928 77.282 65.375 77.282 z" style="stroke: none; stroke-width: 1; stroke-dasharray: none; stroke-linecap: butt; stroke-linejoin: miter; stroke-miterlimit: 10; fill: rgb(0,0,0); fill-rule: nonzero; opacity: 1;" transform=" matrix(1 0 0 1 0 0) " stroke-linecap="round" />
	<path d="M 71.828 70.829 c -0.553 0 -1 -0.447 -1 -1 V 55.547 c 0 -0.553 0.447 -1 1 -1 s 1 0.447 1 1 v 14.282 C 72.828 70.382 72.381 70.829 71.828 70.829 z" style="stroke: none; stroke-width: 1; stroke-dasharray: none; stroke-linecap: butt; stroke-linejoin: miter; stroke-miterlimit: 10; fill: rgb(0,0,0); fill-rule: nonzero; opacity: 1;" transform=" matrix(1 0 0 1 0 0) " stroke-linecap="round" />
	<path d="M 78.281 63.301 c -0.553 0 -1 -0.447 -1 -1 v -5.678 c 0 -0.553 0.447 -1 1 -1 s 1 0.447 1 1 v 5.678 C 79.281 62.854 78.834 63.301 78.281 63.301 z" style="stroke: none; stroke-width: 1; stroke-dasharray: none; stroke-linecap: butt; stroke-linejoin: miter; stroke-miterlimit: 10; fill: rgb(0,0,0); fill-rule: nonzero; opacity: 1;" transform=" matrix(1 0 0 1 0 0) " stroke-linecap="round" />
	<path d="M 52.469 7.374 c -0.553 0 -1 -0.448 -1 -1 V 1.633 c 0 -0.552 0.447 -1 1 -1 s 1 0.448 1 1 v 4.741 C 53.469 6.926 53.021 7.374 52.469 7.374 z" style="stroke: none; stroke-width: 1; stroke-dasharray: none; stroke-linecap: butt; stroke-linejoin: miter; stroke-miterlimit: 10; fill: rgb(0,0,0); fill-rule: nonzero; opacity: 1;" transform=" matrix(1 0 0 1 0 0) " stroke-linecap="round" />
	<path d="M 58.922 10.601 c -0.553 0 -1 -0.448 -1 -1 V 9.162 c 0 -0.552 0.447 -1 1 -1 s 1 0.448 1 1 v 0.438 C 59.922 10.153 59.475 10.601 58.922 10.601 z" style="stroke: none; stroke-width: 1; stroke-dasharray: none; stroke-linecap: butt; stroke-linejoin: miter; stroke-miterlimit: 10; fill: rgb(0,0,0); fill-rule: nonzero; opacity: 1;" transform=" matrix(1 0 0 1 0 0) " stroke-linecap="round" />
	<path d="M 20.204 12.17 c -0.552 0 -1 -0.448 -1 -1 V 8.651 c 0 -0.552 0.448 -1 1 -1 s 1 0.448 1 1 v 2.519 C 21.204 11.722 20.756 12.17 20.204 12.17 z" style="stroke: none; stroke-width: 1; stroke-dasharray: none; stroke-linecap: butt; stroke-linejoin: miter; stroke-miterlimit: 10; fill: rgb(0,0,0); fill-rule: nonzero; opacity: 1;" transform=" matrix(1 0 0 1 0 0) " stroke-linecap="round" />
</g>
</svg>