<?xml version="1.0" encoding="UTF-8" standalone="no" ?>
<!DOCTYPE svg PUBLIC "-//W3C//DTD SVG 1.1//EN" "http://www.w3.org/Graphics/SVG/1.1/DTD/svg11.dtd">
<svg xmlns="http://www.w3.org/2000/svg" xmlns:xlink="http://www.w3.org/1999/xlink" version="1.1" width="350" height="350" viewBox="0 0 350 350" xml:space="preserve">
<desc>Created with Fabric.js 1.7.22</desc>
<defs>
</defs>
<g id="icon" style="stroke: none; stroke-width: 1; stroke-dasharray: none; stroke-linecap: butt; stroke-linejoin: miter; stroke-miterlimit: 10; fill: none; fill-rule: nonzero; opacity: 1;" transform="translate(-1.9444444444444287 -1.9444444444444287) scale(3.89 3.89)" >
	<path d="M 78.192 0 H 35.668 c -2.75 0 -4.987 2.237 -4.987 4.987 V 42.47 c 0 0.552 0.448 1 1 1 s 1 -0.448 1 -1 V 11.472 h 48.497 V 75.45 H 36.089 c -0.552 0 -1 0.447 -1 1 s 0.448 1 1 1 h 45.089 v 7.563 c 0 1.646 -1.34 2.986 -2.986 2.986 H 35.668 c -1.647 0 -2.987 -1.34 -2.987 -2.986 c 0 -0.553 -0.448 -1 -1 -1 s -1 0.447 -1 1 c 0 2.749 2.237 4.986 4.987 4.986 h 42.523 c 2.749 0 4.986 -2.237 4.986 -4.986 V 4.987 C 83.178 2.237 80.941 0 78.192 0 z M 32.682 9.472 V 4.987 C 32.682 3.34 34.021 2 35.668 2 h 42.523 c 1.646 0 2.986 1.34 2.986 2.987 v 4.485 H 32.682 z" style="stroke: none; stroke-width: 1; stroke-dasharray: none; stroke-linecap: butt; stroke-linejoin: miter; stroke-miterlimit: 10; fill: rgb(0,0,0); fill-rule: nonzero; opacity: 1;" transform=" matrix(1 0 0 1 0 0) " stroke-linecap="round" />
	<path d="M 56.93 86.329 c -1.958 0 -3.551 -1.593 -3.551 -3.551 s 1.593 -3.552 3.551 -3.552 s 3.551 1.594 3.551 3.552 S 58.888 86.329 56.93 86.329 z M 56.93 81.227 c -0.855 0 -1.551 0.696 -1.551 1.552 s 0.695 1.551 1.551 1.551 s 1.551 -0.695 1.551 -1.551 S 57.786 81.227 56.93 81.227 z" style="stroke: none; stroke-width: 1; stroke-dasharray: none; stroke-linecap: butt; stroke-linejoin: miter; stroke-miterlimit: 10; fill: rgb(0,0,0); fill-rule: nonzero; opacity: 1;" transform=" matrix(1 0 0 1 0 0) " stroke-linecap="round" />
	<path d="M 63.016 6.668 H 50.844 c -0.553 0 -1 -0.448 -1 -1 s 0.447 -1 1 -1 h 12.172 c 0.553 0 1 0.448 1 1 S 63.569 6.668 63.016 6.668 z" style="stroke: none; stroke-width: 1; stroke-dasharray: none; stroke-linecap: butt; stroke-linejoin: miter; stroke-miterlimit: 10; fill: rgb(0,0,0); fill-rule: nonzero; opacity: 1;" transform=" matrix(1 0 0 1 0 0) " stroke-linecap="round" />
	<circle cx="56.93" cy="27" r="12" style="stroke: none; stroke-width: 1; stroke-dasharray: none; stroke-linecap: butt; stroke-linejoin: miter; stroke-miterlimit: 10; fill: rgb(33,255,91); fill-rule: nonzero; opacity: 1;" transform="  matrix(1 0 0 1 0 0) "/>
	<path d="M 63.091 40.469 c -0.385 -0.385 -0.842 -0.653 -1.328 -0.805 c 0.457 -1.156 0.219 -2.525 -0.715 -3.459 c -0.383 -0.383 -0.84 -0.649 -1.325 -0.798 c 0.135 -0.357 0.204 -0.739 0.204 -1.132 c 0 -0.859 -0.335 -1.667 -0.942 -2.273 c -0.304 -0.304 -0.654 -0.534 -1.028 -0.691 l 1.734 -1.734 c 1.254 -1.254 1.254 -3.293 0 -4.547 c -1.216 -1.216 -3.334 -1.214 -4.548 0 L 44.478 35.693 c -0.241 -1.415 -1.417 -2.544 -2.912 -2.665 c -0.854 -0.07 -1.688 0.199 -2.343 0.756 c -0.654 0.557 -1.052 1.334 -1.121 2.19 l -0.8 9.932 c -0.024 0.216 -0.042 0.435 -0.054 0.702 c -0.116 2.755 0.936 5.451 2.884 7.399 c 1.926 1.926 4.455 2.889 6.984 2.889 s 5.059 -0.963 6.984 -2.889 l 8.991 -8.991 C 64.345 43.763 64.345 41.723 63.091 40.469 z M 61.677 43.603 l -8.991 8.991 c -3.071 3.07 -8.068 3.071 -11.141 0 c -1.553 -1.553 -2.392 -3.704 -2.298 -5.94 c 0.008 -0.175 0.022 -0.349 0.045 -0.555 l 0.803 -9.963 c 0.026 -0.324 0.177 -0.618 0.424 -0.828 c 0.222 -0.188 0.498 -0.29 0.786 -0.29 c 0.033 0 0.066 0.001 0.1 0.004 c 0.668 0.054 1.167 0.641 1.114 1.309 l -0.146 1.803 c -0.034 0.418 0.196 0.813 0.577 0.988 c 0.38 0.175 0.83 0.096 1.126 -0.201 l 12.48 -12.48 c 0.474 -0.473 1.244 -0.474 1.72 0 c 0.229 0.229 0.356 0.535 0.356 0.86 c 0 0.324 -0.127 0.63 -0.356 0.859 L 54.438 32 l -4.712 4.711 c -0.391 0.391 -0.391 1.023 0 1.414 c 0.195 0.195 0.451 0.293 0.707 0.293 s 0.512 -0.098 0.707 -0.293 l 4.712 -4.711 c 0.459 -0.459 1.26 -0.459 1.719 0 c 0.23 0.229 0.356 0.535 0.356 0.859 c 0 0.325 -0.126 0.63 -0.356 0.86 l -1.07 1.071 l -3.641 3.641 c -0.391 0.391 -0.391 1.023 0 1.414 c 0.195 0.195 0.451 0.293 0.707 0.293 s 0.512 -0.098 0.707 -0.293 l 3.641 -3.641 c 0.474 -0.473 1.244 -0.475 1.72 0 c 0.474 0.474 0.474 1.246 0 1.72 l -1.104 1.104 c -0.004 0.003 -0.007 0.007 -0.011 0.011 l -0.095 0.095 l -2.431 2.431 c -0.391 0.391 -0.391 1.024 0 1.414 c 0.195 0.195 0.451 0.293 0.707 0.293 s 0.512 -0.098 0.707 -0.293 l 2.431 -2.431 l 0.1 -0.1 c 0.225 -0.222 0.526 -0.343 0.851 -0.343 c 0.004 0 0.007 0 0.01 0 c 0.334 0.002 0.646 0.132 0.879 0.364 C 62.151 42.357 62.151 43.128 61.677 43.603 z" style="stroke: none; stroke-width: 1; stroke-dasharray: none; stroke-linecap: butt; stroke-linejoin: miter; stroke-miterlimit: 10; fill: rgb(0,0,0); fill-rule: nonzero; opacity: 1;" transform=" matrix(1 0 0 1 0 0) " stroke-linecap="round" />
	<path d="M 15.137 80.118 c -0.256 0 -0.512 -0.098 -0.707 -0.293 c -0.391 -0.391 -0.391 -1.023 0 -1.414 l 20.953 -20.953 c 0.391 -0.391 1.023 -0.391 1.414 0 s 0.391 1.023 0 1.414 L 15.844 79.825 C 15.648 80.021 15.393 80.118 15.137 80.118 z" style="stroke: none; stroke-width: 1; stroke-dasharray: none; stroke-linecap: butt; stroke-linejoin: miter; stroke-miterlimit: 10; fill: rgb(33,255,91); fill-rule: nonzero; opacity: 1;" transform=" matrix(1 0 0 1 0 0) " stroke-linecap="round" />
	<path d="M 32.891 74.593 c -0.256 0 -0.512 -0.098 -0.707 -0.293 c -0.391 -0.391 -0.391 -1.023 0 -1.414 l 11.842 -11.843 c 0.391 -0.391 1.023 -0.391 1.414 0 s 0.391 1.023 0 1.414 L 33.598 74.3 C 33.403 74.495 33.147 74.593 32.891 74.593 z" style="stroke: none; stroke-width: 1; stroke-dasharray: none; stroke-linecap: butt; stroke-linejoin: miter; stroke-miterlimit: 10; fill: rgb(33,255,91); fill-rule: nonzero; opacity: 1;" transform=" matrix(1 0 0 1 0 0) " stroke-linecap="round" />
	<path d="M 12.394 83.146 h -1.286 V 81.86 c 0 -0.553 -0.448 -1 -1 -1 s -1 0.447 -1 1 v 1.286 H 7.822 c -0.552 0 -1 0.447 -1 1 s 0.448 1 1 1 h 1.286 v 1.286 c 0 0.553 0.448 1 1 1 s 1 -0.447 1 -1 v -1.286 h 1.286 c 0.552 0 1 -0.447 1 -1 S 12.946 83.146 12.394 83.146 z" style="stroke: none; stroke-width: 1; stroke-dasharray: none; stroke-linecap: butt; stroke-linejoin: miter; stroke-miterlimit: 10; fill: rgb(33,255,91); fill-rule: nonzero; opacity: 1;" transform=" matrix(1 0 0 1 0 0) " stroke-linecap="round" />
	<path d="M 27.522 82.317 c -0.86 0 -1.719 -0.327 -2.374 -0.981 c -1.309 -1.31 -1.309 -3.438 -0.001 -4.748 c 1.27 -1.27 3.48 -1.268 4.749 0 c 1.309 1.309 1.309 3.439 0 4.748 l 0 0 C 29.241 81.99 28.381 82.317 27.522 82.317 z M 29.188 80.629 h 0.01 H 29.188 z M 27.522 77.604 c -0.362 0 -0.704 0.141 -0.96 0.397 c -0.529 0.529 -0.529 1.391 0 1.92 c 0.529 0.53 1.39 0.528 1.919 0 c 0.529 -0.529 0.529 -1.391 0 -1.92 C 28.225 77.745 27.884 77.604 27.522 77.604 z" style="stroke: none; stroke-width: 1; stroke-dasharray: none; stroke-linecap: butt; stroke-linejoin: miter; stroke-miterlimit: 10; fill: rgb(33,255,91); fill-rule: nonzero; opacity: 1;" transform=" matrix(1 0 0 1 0 0) " stroke-linecap="round" />
	<path d="M 25.165 58.319 c -0.256 0 -0.512 -0.098 -0.707 -0.293 c -0.391 -0.391 -0.391 -1.023 0 -1.414 l 7.569 -7.569 c 0.391 -0.391 1.023 -0.391 1.414 0 s 0.391 1.023 0 1.414 l -7.569 7.569 C 25.676 58.222 25.42 58.319 25.165 58.319 z" style="stroke: none; stroke-width: 1; stroke-dasharray: none; stroke-linecap: butt; stroke-linejoin: miter; stroke-miterlimit: 10; fill: rgb(33,255,91); fill-rule: nonzero; opacity: 1;" transform=" matrix(1 0 0 1 0 0) " stroke-linecap="round" />
	<path d="M 19.522 66.317 c -0.86 0 -1.719 -0.327 -2.374 -0.981 c -1.309 -1.31 -1.309 -3.438 -0.001 -4.748 c 1.27 -1.27 3.48 -1.268 4.749 0 c 1.309 1.309 1.309 3.439 0 4.748 l 0 0 C 21.241 65.99 20.381 66.317 19.522 66.317 z M 21.188 64.629 h 0.01 H 21.188 z M 19.522 61.604 c -0.362 0 -0.704 0.141 -0.96 0.397 c -0.529 0.529 -0.529 1.391 0 1.92 c 0.528 0.529 1.39 0.529 1.919 0 s 0.529 -1.391 0 -1.92 C 20.225 61.745 19.884 61.604 19.522 61.604 z" style="stroke: none; stroke-width: 1; stroke-dasharray: none; stroke-linecap: butt; stroke-linejoin: miter; stroke-miterlimit: 10; fill: rgb(33,255,91); fill-rule: nonzero; opacity: 1;" transform=" matrix(1 0 0 1 0 0) " stroke-linecap="round" />
</g>
</svg>