<?xml version="1.0" encoding="UTF-8" standalone="no" ?>
<!DOCTYPE svg PUBLIC "-//W3C//DTD SVG 1.1//EN" "http://www.w3.org/Graphics/SVG/1.1/DTD/svg11.dtd">
<svg xmlns="http://www.w3.org/2000/svg" xmlns:xlink="http://www.w3.org/1999/xlink" version="1.1" width="350" height="350" viewBox="0 0 350 350" xml:space="preserve">
<desc>Created with Fabric.js 1.7.22</desc>
<defs>
</defs>
<g id="icon" style="stroke: none; stroke-width: 1; stroke-dasharray: none; stroke-linecap: butt; stroke-linejoin: miter; stroke-miterlimit: 10; fill: none; fill-rule: nonzero; opacity: 1;" transform="translate(-1.9444444444444287 -1.9444444444444287) scale(3.89 3.89)" >
	<path d="M 55.441 76.296 c -0.306 0 -0.606 0.024 -0.903 0.055 c -0.814 -4.533 -4.77 -7.976 -9.538 -7.976 c -4.711 0 -8.635 3.36 -9.513 7.813 c -0.015 0.073 -0.041 0.142 -0.054 0.216 c -0.444 -0.064 -0.895 -0.108 -1.357 -0.108 c -5.244 0 -9.495 4.251 -9.495 9.495 c 0 1.513 0.363 2.939 0.993 4.209 h 21.365 h 17.004 c 0.63 -1.27 0.993 -2.695 0.993 -4.209 C 64.936 80.547 60.685 76.296 55.441 76.296 z" style="stroke: none; stroke-width: 1; stroke-dasharray: none; stroke-linecap: butt; stroke-linejoin: miter; stroke-miterlimit: 10; fill: rgb(215,222,237); fill-rule: nonzero; opacity: 1;" transform=" matrix(1 0 0 1 0 0) " stroke-linecap="round" />
	<path d="M 57.304 54.061 l 8.185 4.692 c 1.133 0.65 2.546 -0.168 2.546 -1.475 v -8.094 c 0 -1.664 -0.683 -3.254 -1.888 -4.401 l -9.29 -8.831 C 55.327 42.384 55.218 48.481 57.304 54.061 z" style="stroke: none; stroke-width: 1; stroke-dasharray: none; stroke-linecap: butt; stroke-linejoin: miter; stroke-miterlimit: 10; fill: rgb(26,203,72); fill-rule: nonzero; opacity: 1;" transform=" matrix(1 0 0 1 0 0) " stroke-linecap="round" />
	<path d="M 32.696 54.061 l -8.185 4.692 c -1.133 0.65 -2.546 -0.168 -2.546 -1.475 v -8.094 c 0 -1.664 0.683 -3.254 1.888 -4.401 l 9.29 -8.831 C 35.172 42.308 35.108 48.356 32.696 54.061 z" style="stroke: none; stroke-width: 1; stroke-dasharray: none; stroke-linecap: butt; stroke-linejoin: miter; stroke-miterlimit: 10; fill: rgb(26,203,72); fill-rule: nonzero; opacity: 1;" transform=" matrix(1 0 0 1 0 0) " stroke-linecap="round" />
	<path d="M 49.211 54.061 h 8.093 c 0.444 -26.815 -3.421 -44.256 -11.065 -53.479 c -0.643 -0.776 -1.835 -0.776 -2.478 0 c -7.644 9.223 -11.509 26.665 -11.065 53.479 H 49.211 z" style="stroke: none; stroke-width: 1; stroke-dasharray: none; stroke-linecap: butt; stroke-linejoin: miter; stroke-miterlimit: 10; fill: rgb(33,255,91); fill-rule: nonzero; opacity: 1;" transform=" matrix(1 0 0 1 0 0) " stroke-linecap="round" />
	<circle cx="44.757999999999996" cy="24.228" r="4.428" style="stroke: none; stroke-width: 1; stroke-dasharray: none; stroke-linecap: butt; stroke-linejoin: miter; stroke-miterlimit: 10; fill: rgb(255,255,255); fill-rule: nonzero; opacity: 1;" transform="  matrix(1 0 0 1 0 0) "/>
	<path d="M 45 74.34 c -0.552 0 -1 -0.447 -1 -1 V 57.613 c 0 -0.553 0.448 -1 1 -1 s 1 0.447 1 1 V 73.34 C 46 73.893 45.552 74.34 45 74.34 z" style="stroke: none; stroke-width: 1; stroke-dasharray: none; stroke-linecap: butt; stroke-linejoin: miter; stroke-miterlimit: 10; fill: rgb(215,222,237); fill-rule: nonzero; opacity: 1;" transform=" matrix(1 0 0 1 0 0) " stroke-linecap="round" />
	<path d="M 41 63.233 c -0.552 0 -1 -0.447 -1 -1 v -4.62 c 0 -0.553 0.448 -1 1 -1 s 1 0.447 1 1 v 4.62 C 42 62.786 41.552 63.233 41 63.233 z" style="stroke: none; stroke-width: 1; stroke-dasharray: none; stroke-linecap: butt; stroke-linejoin: miter; stroke-miterlimit: 10; fill: rgb(215,222,237); fill-rule: nonzero; opacity: 1;" transform=" matrix(1 0 0 1 0 0) " stroke-linecap="round" />
	<path d="M 49 63.233 c -0.553 0 -1 -0.447 -1 -1 v -4.62 c 0 -0.553 0.447 -1 1 -1 s 1 0.447 1 1 v 4.62 C 50 62.786 49.553 63.233 49 63.233 z" style="stroke: none; stroke-width: 1; stroke-dasharray: none; stroke-linecap: butt; stroke-linejoin: miter; stroke-miterlimit: 10; fill: rgb(215,222,237); fill-rule: nonzero; opacity: 1;" transform=" matrix(1 0 0 1 0 0) " stroke-linecap="round" />
</g>
</svg>