<?xml version="1.0" encoding="UTF-8" standalone="no" ?>
<!DOCTYPE svg PUBLIC "-//W3C//DTD SVG 1.1//EN" "http://www.w3.org/Graphics/SVG/1.1/DTD/svg11.dtd">
<svg xmlns="http://www.w3.org/2000/svg" xmlns:xlink="http://www.w3.org/1999/xlink" version="1.1" width="350" height="350" viewBox="0 0 350 350" xml:space="preserve">
<desc>Created with Fabric.js 1.7.22</desc>
<defs>
</defs>
<g id="icon" style="stroke: none; stroke-width: 1; stroke-dasharray: none; stroke-linecap: butt; stroke-linejoin: miter; stroke-miterlimit: 10; fill: none; fill-rule: nonzero; opacity: 1;" transform="translate(-1.9444444444444287 -1.9444444444444287) scale(3.89 3.89)" >
	<path d="M 83.802 75.794 H 6.198 C 2.775 75.794 0 73.018 0 69.595 v -1.077 c 0 -0.606 0.491 -1.097 1.097 -1.097 h 87.806 c 0.606 0 1.097 0.491 1.097 1.097 v 1.077 C 90 73.018 87.225 75.794 83.802 75.794 z" style="stroke: none; stroke-width: 1; stroke-dasharray: none; stroke-linecap: butt; stroke-linejoin: miter; stroke-miterlimit: 10; fill: rgb(0,0,0); fill-rule: nonzero; opacity: 1;" transform=" matrix(1 0 0 1 0 0) " stroke-linecap="round" />
	<path d="M 2.903 67.422 V 18.948 c 0 -2.619 2.123 -4.741 4.741 -4.741 h 74.303 c 2.619 0 4.741 2.123 4.741 4.741 v 48.474" style="stroke: none; stroke-width: 1; stroke-dasharray: none; stroke-linecap: butt; stroke-linejoin: miter; stroke-miterlimit: 10; fill: rgb(97,94,102); fill-rule: nonzero; opacity: 1;" transform=" matrix(1 0 0 1 0 0) " stroke-linecap="round" />
	<path d="M 82.328 62.922 H 7.672 V 28.177 c 26.55 -1.286 51.756 -1.534 74.656 0 V 62.922 z" style="stroke: none; stroke-width: 1; stroke-dasharray: none; stroke-linecap: butt; stroke-linejoin: miter; stroke-miterlimit: 10; fill: rgb(255,255,255); fill-rule: nonzero; opacity: 1;" transform=" matrix(1 0 0 1 0 0) " stroke-linecap="round" />
	<path d="M 50.311 70.329 H 39.689 c -1.606 0 -2.907 -1.302 -2.907 -2.907 l 0 0 h 16.437 l 0 0 C 53.219 69.027 51.917 70.329 50.311 70.329 z" style="stroke: none; stroke-width: 1; stroke-dasharray: none; stroke-linecap: butt; stroke-linejoin: miter; stroke-miterlimit: 10; fill: rgb(0,0,0); fill-rule: nonzero; opacity: 1;" transform=" matrix(1 0 0 1 0 0) " stroke-linecap="round" />
	<path d="M 82.328 28.177 H 7.672 v -6.766 c 0 -1.363 1.105 -2.467 2.467 -2.467 h 69.722 c 1.363 0 2.467 1.105 2.467 2.467 V 28.177 z" style="stroke: none; stroke-width: 1; stroke-dasharray: none; stroke-linecap: butt; stroke-linejoin: miter; stroke-miterlimit: 10; fill: rgb(0,0,0); fill-rule: nonzero; opacity: 1;" transform=" matrix(1 0 0 1 0 0) " stroke-linecap="round" />
	<path d="M 58.187 34.799 H 31.685 c -0.829 0 -1.5 -0.671 -1.5 -1.5 s 0.671 -1.5 1.5 -1.5 h 26.501 c 0.828 0 1.5 0.671 1.5 1.5 S 59.015 34.799 58.187 34.799 z" style="stroke: none; stroke-width: 1; stroke-dasharray: none; stroke-linecap: butt; stroke-linejoin: miter; stroke-miterlimit: 10; fill: rgb(0,0,0); fill-rule: nonzero; opacity: 1;" transform=" matrix(1 0 0 1 0 0) " stroke-linecap="round" />
	<path d="M 58.187 40.799 H 31.685 c -0.829 0 -1.5 -0.671 -1.5 -1.5 s 0.671 -1.5 1.5 -1.5 h 26.501 c 0.828 0 1.5 0.671 1.5 1.5 S 59.015 40.799 58.187 40.799 z" style="stroke: none; stroke-width: 1; stroke-dasharray: none; stroke-linecap: butt; stroke-linejoin: miter; stroke-miterlimit: 10; fill: rgb(0,0,0); fill-rule: nonzero; opacity: 1;" transform=" matrix(1 0 0 1 0 0) " stroke-linecap="round" />
	<path d="M 58.187 46.799 H 31.685 c -0.829 0 -1.5 -0.672 -1.5 -1.5 c 0 -0.829 0.671 -1.5 1.5 -1.5 h 26.501 c 0.828 0 1.5 0.671 1.5 1.5 C 59.687 46.127 59.015 46.799 58.187 46.799 z" style="stroke: none; stroke-width: 1; stroke-dasharray: none; stroke-linecap: butt; stroke-linejoin: miter; stroke-miterlimit: 10; fill: rgb(0,0,0); fill-rule: nonzero; opacity: 1;" transform=" matrix(1 0 0 1 0 0) " stroke-linecap="round" />
	<path d="M 45.505 52.799 h -13.82 c -0.829 0 -1.5 -0.672 -1.5 -1.5 s 0.671 -1.5 1.5 -1.5 h 13.82 c 0.829 0 1.5 0.672 1.5 1.5 S 46.334 52.799 45.505 52.799 z" style="stroke: none; stroke-width: 1; stroke-dasharray: none; stroke-linecap: butt; stroke-linejoin: miter; stroke-miterlimit: 10; fill: rgb(0,0,0); fill-rule: nonzero; opacity: 1;" transform=" matrix(1 0 0 1 0 0) " stroke-linecap="round" />
	<path d="M 24.86 59.954 H 12.14 c -0.914 0 -1.655 -0.741 -1.655 -1.655 V 32.683 c 0 -0.914 0.741 -1.655 1.655 -1.655 h 12.72 c 0.914 0 1.655 0.741 1.655 1.655 v 25.615 C 26.516 59.213 25.774 59.954 24.86 59.954 z" style="stroke: none; stroke-width: 1; stroke-dasharray: none; stroke-linecap: butt; stroke-linejoin: miter; stroke-miterlimit: 10; fill: rgb(33,255,91); fill-rule: nonzero; opacity: 1;" transform=" matrix(1 0 0 1 0 0) " stroke-linecap="round" />
	<path d="M 77.86 47.059 H 65.14 c -0.914 0 -1.655 -0.741 -1.655 -1.655 v -12.72 c 0 -0.914 0.741 -1.655 1.655 -1.655 h 12.72 c 0.914 0 1.655 0.741 1.655 1.655 v 12.72 C 79.516 46.318 78.774 47.059 77.86 47.059 z" style="stroke: none; stroke-width: 1; stroke-dasharray: none; stroke-linecap: butt; stroke-linejoin: miter; stroke-miterlimit: 10; fill: rgb(33,255,91); fill-rule: nonzero; opacity: 1;" transform=" matrix(1 0 0 1 0 0) " stroke-linecap="round" />
	<path d="M 18.564 25.06 h -5.699 c -0.829 0 -1.5 -0.671 -1.5 -1.5 s 0.671 -1.5 1.5 -1.5 h 5.699 c 0.829 0 1.5 0.671 1.5 1.5 S 19.393 25.06 18.564 25.06 z" style="stroke: none; stroke-width: 1; stroke-dasharray: none; stroke-linecap: butt; stroke-linejoin: miter; stroke-miterlimit: 10; fill: rgb(33,255,91); fill-rule: nonzero; opacity: 1;" transform=" matrix(1 0 0 1 0 0) " stroke-linecap="round" />
</g>
</svg>