<?xml version="1.0" encoding="UTF-8" standalone="no" ?>
<!DOCTYPE svg PUBLIC "-//W3C//DTD SVG 1.1//EN" "http://www.w3.org/Graphics/SVG/1.1/DTD/svg11.dtd">
<svg xmlns="http://www.w3.org/2000/svg" xmlns:xlink="http://www.w3.org/1999/xlink" version="1.1" width="350" height="350" viewBox="0 0 350 350" xml:space="preserve">
<desc>Created with Fabric.js 1.7.22</desc>
<defs>
</defs>
<g id="icon" style="stroke: none; stroke-width: 1; stroke-dasharray: none; stroke-linecap: butt; stroke-linejoin: miter; stroke-miterlimit: 10; fill: none; fill-rule: nonzero; opacity: 1;" transform="translate(-1.9444444444444287 -1.9444444444444287) scale(3.89 3.89)" >
	<path d="M 84.27 37.71 L 49.289 13.302 c 0.151 -0.452 0.253 -0.928 0.253 -1.43 c 0 -2.505 -2.037 -4.542 -4.542 -4.542 s -4.542 2.038 -4.542 4.542 c 0 0.501 0.101 0.974 0.251 1.425 L 5.731 37.71 C 2.537 37.918 0 40.575 0 43.821 v 32.718 c 0 3.381 2.751 6.132 6.132 6.132 h 77.736 c 3.381 0 6.132 -2.751 6.132 -6.132 V 43.821 C 90 40.576 87.463 37.918 84.27 37.71 z M 45 9.329 c 1.401 0 2.542 1.141 2.542 2.542 S 46.401 14.414 45 14.414 c -1.402 0 -2.542 -1.141 -2.542 -2.542 S 43.598 9.329 45 9.329 z M 45 16.414 c 1.28 0 2.433 -0.537 3.259 -1.391 l 32.485 22.667 H 9.254 l 32.482 -22.672 C 42.563 15.875 43.717 16.414 45 16.414 z M 88 76.539 c 0 2.278 -1.854 4.132 -4.132 4.132 H 6.132 C 3.854 80.671 2 78.817 2 76.539 V 43.821 c 0 -2.278 1.854 -4.132 4.132 -4.132 h 77.736 c 2.278 0 4.132 1.854 4.132 4.132 V 76.539 z" style="stroke: none; stroke-width: 1; stroke-dasharray: none; stroke-linecap: butt; stroke-linejoin: miter; stroke-miterlimit: 10; fill: rgb(8,163,164); fill-rule: nonzero; opacity: 1;" transform=" matrix(1 0 0 1 0 0) " stroke-linecap="round" />
	<path d="M 18.604 72.464 c -0.097 0 -0.196 -0.014 -0.294 -0.044 c -0.528 -0.162 -0.825 -0.722 -0.663 -1.249 l 6.266 -20.423 H 13.639 c -0.552 0 -1 -0.447 -1 -1 s 0.448 -1 1 -1 h 11.627 c 0.317 0 0.616 0.15 0.804 0.405 c 0.188 0.256 0.245 0.585 0.152 0.888 L 19.56 71.757 C 19.428 72.188 19.032 72.464 18.604 72.464 z" style="stroke: none; stroke-width: 1; stroke-dasharray: none; stroke-linecap: butt; stroke-linejoin: miter; stroke-miterlimit: 10; fill: rgb(8,163,164); fill-rule: nonzero; opacity: 1;" transform=" matrix(1 0 0 1 0 0) " stroke-linecap="round" />
	<path d="M 29.604 72.464 c -0.097 0 -0.196 -0.014 -0.294 -0.044 c -0.528 -0.162 -0.825 -0.722 -0.663 -1.249 l 6.663 -21.716 c 0.162 -0.528 0.724 -0.826 1.25 -0.663 c 0.528 0.162 0.825 0.722 0.663 1.249 L 30.56 71.757 C 30.428 72.188 30.032 72.464 29.604 72.464 z" style="stroke: none; stroke-width: 1; stroke-dasharray: none; stroke-linecap: butt; stroke-linejoin: miter; stroke-miterlimit: 10; fill: rgb(8,163,164); fill-rule: nonzero; opacity: 1;" transform=" matrix(1 0 0 1 0 0) " stroke-linecap="round" />
	<path d="M 56.267 72.464 H 44.639 c -0.552 0 -1 -0.447 -1 -1 V 60.605 c 0 -0.553 0.448 -1 1 -1 h 10.627 v -8.857 H 44.639 c -0.552 0 -1 -0.447 -1 -1 s 0.448 -1 1 -1 h 11.627 c 0.553 0 1 0.447 1 1 v 10.857 c 0 0.553 -0.447 1 -1 1 H 45.639 v 8.858 h 10.627 c 0.553 0 1 0.447 1 1 S 56.819 72.464 56.267 72.464 z" style="stroke: none; stroke-width: 1; stroke-dasharray: none; stroke-linecap: butt; stroke-linejoin: miter; stroke-miterlimit: 10; fill: rgb(8,163,164); fill-rule: nonzero; opacity: 1;" transform=" matrix(1 0 0 1 0 0) " stroke-linecap="round" />
	<path d="M 76.361 72.464 c -0.553 0 -1 -0.447 -1 -1 v -4.373 H 64.252 c -0.317 0 -0.615 -0.15 -0.804 -0.405 c -0.189 -0.256 -0.245 -0.585 -0.152 -0.888 l 5.015 -16.343 c 0.162 -0.527 0.72 -0.826 1.249 -0.663 c 0.528 0.162 0.825 0.722 0.663 1.249 l -4.618 15.05 h 9.757 v -4.485 c 0 -0.553 0.447 -1 1 -1 s 1 0.447 1 1 v 10.858 C 77.361 72.017 76.914 72.464 76.361 72.464 z" style="stroke: none; stroke-width: 1; stroke-dasharray: none; stroke-linecap: butt; stroke-linejoin: miter; stroke-miterlimit: 10; fill: rgb(8,163,164); fill-rule: nonzero; opacity: 1;" transform=" matrix(1 0 0 1 0 0) " stroke-linecap="round" />
</g>
</svg>