<?xml version="1.0" encoding="UTF-8" standalone="no" ?>
<!DOCTYPE svg PUBLIC "-//W3C//DTD SVG 1.1//EN" "http://www.w3.org/Graphics/SVG/1.1/DTD/svg11.dtd">
<svg xmlns="http://www.w3.org/2000/svg" xmlns:xlink="http://www.w3.org/1999/xlink" version="1.1" width="350" height="350" viewBox="0 0 350 350" xml:space="preserve">
<desc>Created with Fabric.js 1.7.22</desc>
<defs>
</defs>
<g id="icon" style="stroke: none; stroke-width: 1; stroke-dasharray: none; stroke-linecap: butt; stroke-linejoin: miter; stroke-miterlimit: 10; fill: none; fill-rule: nonzero; opacity: 1;" transform="translate(-1.9444444444444287 -1.9444444444444287) scale(3.89 3.89)" >
	<path d="M 50.938 39.827 c -0.159 0 -0.319 -0.038 -0.466 -0.115 L 45 36.835 l -5.473 2.877 c -0.336 0.177 -0.745 0.148 -1.053 -0.076 c -0.308 -0.224 -0.462 -0.603 -0.398 -0.978 l 1.045 -6.094 l -4.427 -4.315 c -0.273 -0.266 -0.371 -0.663 -0.253 -1.025 c 0.118 -0.362 0.431 -0.626 0.807 -0.681 l 6.119 -0.889 l 2.736 -5.544 c 0.337 -0.683 1.457 -0.683 1.794 0 l 2.736 5.544 l 6.118 0.889 c 0.377 0.055 0.689 0.319 0.808 0.681 c 0.117 0.362 0.02 0.759 -0.253 1.025 l -4.428 4.315 l 1.045 6.094 c 0.064 0.375 -0.09 0.754 -0.397 0.978 C 51.351 39.762 51.145 39.827 50.938 39.827 z M 45 34.705 c 0.16 0 0.32 0.038 0.465 0.115 l 4.144 2.179 l -0.791 -4.615 c -0.056 -0.324 0.052 -0.655 0.287 -0.885 l 3.354 -3.268 l -4.634 -0.673 c -0.326 -0.047 -0.607 -0.252 -0.753 -0.547 L 45 22.812 l -2.072 4.198 c -0.146 0.295 -0.427 0.5 -0.753 0.547 l -4.634 0.673 l 3.353 3.268 c 0.236 0.23 0.344 0.561 0.288 0.885 l -0.792 4.615 l 4.145 -2.179 C 44.68 34.743 44.84 34.705 45 34.705 z" style="stroke: none; stroke-width: 1; stroke-dasharray: none; stroke-linecap: butt; stroke-linejoin: miter; stroke-miterlimit: 10; fill: rgb(8,163,164); fill-rule: nonzero; opacity: 1;" transform=" matrix(1 0 0 1 0 0) " stroke-linecap="round" />
	<path d="M 65.454 39.827 c -0.207 0 -0.413 -0.064 -0.588 -0.191 c -0.308 -0.224 -0.462 -0.603 -0.397 -0.978 l 1.045 -6.094 l -4.428 -4.315 c -0.272 -0.266 -0.37 -0.663 -0.253 -1.025 c 0.118 -0.362 0.431 -0.626 0.808 -0.681 l 6.118 -0.889 l 2.737 -5.544 c 0.168 -0.341 0.516 -0.557 0.896 -0.557 l 0 0 c 0.381 0 0.729 0.216 0.896 0.558 l 2.736 5.544 l 6.118 0.889 c 0.377 0.055 0.689 0.319 0.808 0.681 c 0.117 0.362 0.02 0.759 -0.253 1.025 l -4.428 4.315 l 1.045 6.094 c 0.064 0.375 -0.09 0.754 -0.397 0.978 c -0.309 0.224 -0.717 0.253 -1.054 0.076 l -5.472 -2.877 l -5.474 2.877 C 65.773 39.789 65.613 39.827 65.454 39.827 z M 63.933 28.23 l 3.354 3.268 c 0.235 0.23 0.343 0.561 0.287 0.885 l -0.791 4.615 l 4.146 -2.179 c 0.291 -0.153 0.638 -0.153 0.931 0 l 4.144 2.179 l -0.791 -4.615 c -0.056 -0.324 0.052 -0.655 0.287 -0.885 l 3.354 -3.268 l -4.634 -0.673 c -0.326 -0.047 -0.607 -0.252 -0.753 -0.547 l -2.072 -4.199 l -2.073 4.199 c -0.146 0.295 -0.427 0.5 -0.753 0.547 L 63.933 28.23 z" style="stroke: none; stroke-width: 1; stroke-dasharray: none; stroke-linecap: butt; stroke-linejoin: miter; stroke-miterlimit: 10; fill: rgb(8,163,164); fill-rule: nonzero; opacity: 1;" transform=" matrix(1 0 0 1 0 0) " stroke-linecap="round" />
	<path d="M 12.67 39.827 c -0.207 0 -0.414 -0.064 -0.588 -0.191 c -0.308 -0.224 -0.462 -0.603 -0.398 -0.978 l 1.045 -6.094 l -4.428 -4.315 c -0.272 -0.266 -0.371 -0.663 -0.253 -1.025 c 0.118 -0.362 0.431 -0.626 0.807 -0.681 l 6.119 -0.889 l 2.737 -5.544 c 0.168 -0.341 0.516 -0.558 0.896 -0.558 l 0 0 c 0.381 0 0.729 0.216 0.897 0.558 l 2.736 5.544 l 6.119 0.889 c 0.376 0.055 0.689 0.319 0.807 0.681 c 0.118 0.362 0.02 0.759 -0.253 1.025 l -4.427 4.315 l 1.045 6.094 c 0.064 0.375 -0.09 0.754 -0.398 0.978 c -0.308 0.224 -0.716 0.253 -1.053 0.076 l -5.473 -2.877 l -5.473 2.877 C 12.989 39.789 12.829 39.827 12.67 39.827 z M 11.149 28.23 l 3.353 3.268 c 0.235 0.23 0.343 0.561 0.288 0.885 l -0.792 4.615 l 4.145 -2.179 c 0.291 -0.153 0.64 -0.153 0.931 0 l 4.145 2.179 l -0.792 -4.615 c -0.056 -0.324 0.052 -0.655 0.288 -0.885 l 3.353 -3.268 l -4.634 -0.673 c -0.326 -0.047 -0.607 -0.252 -0.753 -0.547 l -2.072 -4.199 l -2.073 4.199 c -0.146 0.295 -0.427 0.5 -0.752 0.547 L 11.149 28.23 z" style="stroke: none; stroke-width: 1; stroke-dasharray: none; stroke-linecap: butt; stroke-linejoin: miter; stroke-miterlimit: 10; fill: rgb(8,163,164); fill-rule: nonzero; opacity: 1;" transform=" matrix(1 0 0 1 0 0) " stroke-linecap="round" />
	<path d="M 25.866 60.739 c -0.207 0 -0.414 -0.064 -0.588 -0.191 c -0.308 -0.224 -0.462 -0.603 -0.398 -0.978 l 1.045 -6.095 l -4.427 -4.315 c -0.272 -0.266 -0.371 -0.663 -0.253 -1.025 c 0.118 -0.361 0.431 -0.625 0.808 -0.68 l 6.118 -0.889 l 2.736 -5.544 c 0.337 -0.683 1.456 -0.683 1.794 0 l 2.736 5.544 l 6.118 0.889 c 0.377 0.055 0.69 0.318 0.808 0.68 c 0.118 0.362 0.02 0.76 -0.253 1.025 l -4.428 4.316 l 1.045 6.094 c 0.064 0.375 -0.09 0.754 -0.398 0.978 c -0.308 0.225 -0.716 0.254 -1.053 0.076 l -5.473 -2.877 l -5.473 2.877 C 26.185 60.701 26.025 60.739 25.866 60.739 z M 31.804 55.617 c 0.16 0 0.32 0.038 0.465 0.115 l 4.145 2.179 l -0.792 -4.615 c -0.055 -0.324 0.052 -0.655 0.288 -0.885 l 3.353 -3.269 l -4.633 -0.673 c -0.326 -0.047 -0.607 -0.252 -0.753 -0.547 l -2.073 -4.199 l -2.072 4.199 c -0.146 0.295 -0.428 0.5 -0.753 0.547 l -4.633 0.673 l 3.353 3.269 c 0.235 0.229 0.343 0.561 0.288 0.885 l -0.792 4.615 l 4.145 -2.179 C 31.484 55.655 31.644 55.617 31.804 55.617 z" style="stroke: none; stroke-width: 1; stroke-dasharray: none; stroke-linecap: butt; stroke-linejoin: miter; stroke-miterlimit: 10; fill: rgb(8,163,164); fill-rule: nonzero; opacity: 1;" transform=" matrix(1 0 0 1 0 0) " stroke-linecap="round" />
	<path d="M 64.134 60.739 c -0.159 0 -0.319 -0.038 -0.466 -0.115 l -5.472 -2.877 l -5.473 2.877 c -0.337 0.178 -0.746 0.148 -1.054 -0.076 c -0.308 -0.224 -0.462 -0.603 -0.397 -0.978 l 1.046 -6.094 L 47.89 49.16 c -0.272 -0.266 -0.37 -0.663 -0.253 -1.024 c 0.118 -0.362 0.431 -0.626 0.808 -0.681 l 6.119 -0.889 l 2.736 -5.544 c 0.336 -0.683 1.457 -0.683 1.793 0 l 2.736 5.544 l 6.118 0.889 c 0.377 0.055 0.689 0.318 0.808 0.68 c 0.117 0.362 0.02 0.76 -0.253 1.025 l -4.428 4.316 l 1.045 6.094 c 0.064 0.375 -0.09 0.754 -0.397 0.978 C 64.547 60.675 64.341 60.739 64.134 60.739 z M 50.737 49.143 l 3.354 3.269 c 0.235 0.229 0.343 0.561 0.287 0.885 l -0.792 4.615 l 4.145 -2.179 c 0.293 -0.154 0.639 -0.154 0.932 0 l 4.144 2.179 l -0.791 -4.615 c -0.056 -0.324 0.052 -0.655 0.287 -0.885 l 3.353 -3.269 l -4.633 -0.673 c -0.326 -0.047 -0.607 -0.252 -0.753 -0.547 l -2.072 -4.199 l -2.072 4.199 c -0.146 0.295 -0.427 0.5 -0.753 0.547 L 50.737 49.143 z" style="stroke: none; stroke-width: 1; stroke-dasharray: none; stroke-linecap: butt; stroke-linejoin: miter; stroke-miterlimit: 10; fill: rgb(8,163,164); fill-rule: nonzero; opacity: 1;" transform=" matrix(1 0 0 1 0 0) " stroke-linecap="round" />
	<path d="M 45 82.207 c -0.256 0 -0.512 -0.098 -0.707 -0.293 l -9.912 -9.912 H 6.485 C 2.909 72.002 0 69.093 0 65.517 V 14.278 c 0 -3.576 2.909 -6.485 6.485 -6.485 h 77.03 c 3.576 0 6.485 2.909 6.485 6.485 v 51.238 c 0 3.576 -2.909 6.485 -6.485 6.485 H 55.619 l -9.912 9.912 C 45.512 82.109 45.256 82.207 45 82.207 z M 6.485 9.793 C 4.012 9.793 2 11.805 2 14.278 v 51.238 c 0 2.474 2.012 4.485 4.485 4.485 h 28.31 c 0.265 0 0.52 0.105 0.707 0.293 L 45 79.793 l 9.498 -9.498 c 0.188 -0.188 0.441 -0.293 0.707 -0.293 h 28.31 c 2.474 0 4.485 -2.012 4.485 -4.485 V 14.278 c 0 -2.473 -2.012 -4.485 -4.485 -4.485 H 6.485 z" style="stroke: none; stroke-width: 1; stroke-dasharray: none; stroke-linecap: butt; stroke-linejoin: miter; stroke-miterlimit: 10; fill: rgb(8,163,164); fill-rule: nonzero; opacity: 1;" transform=" matrix(1 0 0 1 0 0) " stroke-linecap="round" />
</g>
</svg>