<?xml version="1.0" encoding="UTF-8" standalone="no" ?>
<!DOCTYPE svg PUBLIC "-//W3C//DTD SVG 1.1//EN" "http://www.w3.org/Graphics/SVG/1.1/DTD/svg11.dtd">
<svg xmlns="http://www.w3.org/2000/svg" xmlns:xlink="http://www.w3.org/1999/xlink" version="1.1" width="350" height="350" viewBox="0 0 350 350" xml:space="preserve">
<desc>Created with Fabric.js 1.7.22</desc>
<defs>
</defs>
<g id="icon" style="stroke: none; stroke-width: 1; stroke-dasharray: none; stroke-linecap: butt; stroke-linejoin: miter; stroke-miterlimit: 10; fill: none; fill-rule: nonzero; opacity: 1;" transform="translate(-1.9444444444444287 -1.9444444444444287) scale(3.89 3.89)" >
	<path d="M 88 58.746 H 2 c -1.104 0 -2 -0.896 -2 -2 v -13.91 c 0 -4.005 3.259 -7.264 7.265 -7.264 h 75.471 c 4.006 0 7.265 3.259 7.265 7.264 v 13.91 C 90 57.851 89.104 58.746 88 58.746 z M 4 54.746 h 82 v -11.91 c 0 -1.8 -1.465 -3.264 -3.265 -3.264 H 7.265 c -1.8 0 -3.265 1.464 -3.265 3.264 V 54.746 z" style="stroke: none; stroke-width: 1; stroke-dasharray: none; stroke-linecap: butt; stroke-linejoin: miter; stroke-miterlimit: 10; fill: rgb(8,163,164); fill-rule: nonzero; opacity: 1;" transform=" matrix(1 0 0 1 0 0) " stroke-linecap="round" />
	<path d="M 88 81.965 H 77.587 c -1.104 0 -2 -0.896 -2 -2 v -8.009 H 14.413 v 8.009 c 0 1.104 -0.896 2 -2 2 H 2 c -1.104 0 -2 -0.896 -2 -2 V 56.746 c 0 -1.104 0.896 -2 2 -2 h 86 c 1.104 0 2 0.896 2 2 v 23.219 C 90 81.069 89.104 81.965 88 81.965 z M 79.587 77.965 H 86 V 58.746 H 4 v 19.219 h 6.413 v -8.009 c 0 -1.104 0.896 -2 2 -2 h 65.174 c 1.104 0 2 0.896 2 2 V 77.965 z" style="stroke: none; stroke-width: 1; stroke-dasharray: none; stroke-linecap: butt; stroke-linejoin: miter; stroke-miterlimit: 10; fill: rgb(8,163,164); fill-rule: nonzero; opacity: 1;" transform=" matrix(1 0 0 1 0 0) " stroke-linecap="round" />
	<path d="M 81.567 39.572 H 8.433 c -1.104 0 -2 -0.896 -2 -2 V 14.616 c 0 -3.629 2.952 -6.581 6.581 -6.581 h 63.973 c 3.629 0 6.581 2.952 6.581 6.581 v 22.956 C 83.567 38.676 82.672 39.572 81.567 39.572 z M 10.433 35.572 h 69.135 V 14.616 c 0 -1.423 -1.158 -2.581 -2.581 -2.581 H 13.014 c -1.423 0 -2.581 1.158 -2.581 2.581 V 35.572 z" style="stroke: none; stroke-width: 1; stroke-dasharray: none; stroke-linecap: butt; stroke-linejoin: miter; stroke-miterlimit: 10; fill: rgb(8,163,164); fill-rule: nonzero; opacity: 1;" transform=" matrix(1 0 0 1 0 0) " stroke-linecap="round" />
	<path d="M 40.883 39.572 H 16.314 c -1.104 0 -2 -0.896 -2 -2 v -9.534 c 0 -2.957 2.406 -5.363 5.363 -5.363 H 37.52 c 2.957 0 5.363 2.406 5.363 5.363 v 9.534 C 42.883 38.676 41.987 39.572 40.883 39.572 z M 18.314 35.572 h 20.568 v -7.534 c 0 -0.751 -0.611 -1.363 -1.363 -1.363 H 19.677 c -0.751 0 -1.363 0.611 -1.363 1.363 V 35.572 z" style="stroke: none; stroke-width: 1; stroke-dasharray: none; stroke-linecap: butt; stroke-linejoin: miter; stroke-miterlimit: 10; fill: rgb(8,163,164); fill-rule: nonzero; opacity: 1;" transform=" matrix(1 0 0 1 0 0) " stroke-linecap="round" />
	<path d="M 73.686 39.572 H 49.117 c -1.104 0 -2 -0.896 -2 -2 v -9.534 c 0 -2.957 2.406 -5.363 5.363 -5.363 h 17.842 c 2.957 0 5.363 2.406 5.363 5.363 v 9.534 C 75.686 38.676 74.79 39.572 73.686 39.572 z M 51.117 35.572 h 20.568 v -7.534 c 0 -0.751 -0.611 -1.363 -1.363 -1.363 H 52.48 c -0.752 0 -1.363 0.611 -1.363 1.363 V 35.572 z" style="stroke: none; stroke-width: 1; stroke-dasharray: none; stroke-linecap: butt; stroke-linejoin: miter; stroke-miterlimit: 10; fill: rgb(8,163,164); fill-rule: nonzero; opacity: 1;" transform=" matrix(1 0 0 1 0 0) " stroke-linecap="round" />
</g>
</svg>