<?xml version="1.0" encoding="UTF-8" standalone="no" ?>
<!DOCTYPE svg PUBLIC "-//W3C//DTD SVG 1.1//EN" "http://www.w3.org/Graphics/SVG/1.1/DTD/svg11.dtd">
<svg xmlns="http://www.w3.org/2000/svg" xmlns:xlink="http://www.w3.org/1999/xlink" version="1.1" width="350" height="350" viewBox="0 0 350 350" xml:space="preserve">
<desc>Created with Fabric.js 1.7.22</desc>
<defs>
</defs>
<g id="icon" style="stroke: none; stroke-width: 1; stroke-dasharray: none; stroke-linecap: butt; stroke-linejoin: miter; stroke-miterlimit: 10; fill: none; fill-rule: nonzero; opacity: 1;" transform="translate(-1.9444444444444287 -1.9444444444444287) scale(3.89 3.89)" >
	<path d="M 41.799 28.248 c -0.146 0 -0.292 -0.031 -0.432 -0.099 c -1.813 -0.87 -3.576 -0.87 -5.388 0 c -0.497 0.239 -1.095 0.03 -1.334 -0.469 c -0.239 -0.498 -0.029 -1.095 0.469 -1.334 c 2.362 -1.134 4.758 -1.133 7.119 0 c 0.498 0.239 0.708 0.836 0.469 1.334 C 42.529 28.039 42.172 28.248 41.799 28.248 z" style="stroke: none; stroke-width: 1; stroke-dasharray: none; stroke-linecap: butt; stroke-linejoin: miter; stroke-miterlimit: 10; fill: rgb(8,163,164); fill-rule: nonzero; opacity: 1;" transform=" matrix(1 0 0 1 0 0) " stroke-linecap="round" />
	<path d="M 53.685 28.248 c -0.145 0 -0.292 -0.032 -0.432 -0.099 c -1.813 -0.869 -3.575 -0.87 -5.388 0 c -0.5 0.24 -1.096 0.028 -1.334 -0.469 c -0.239 -0.498 -0.029 -1.095 0.469 -1.334 c 2.361 -1.134 4.757 -1.134 7.118 0 c 0.498 0.239 0.708 0.836 0.469 1.334 C 54.415 28.039 54.058 28.248 53.685 28.248 z" style="stroke: none; stroke-width: 1; stroke-dasharray: none; stroke-linecap: butt; stroke-linejoin: miter; stroke-miterlimit: 10; fill: rgb(8,163,164); fill-rule: nonzero; opacity: 1;" transform=" matrix(1 0 0 1 0 0) " stroke-linecap="round" />
	<path d="M 44.877 42.189 c -1.62 0 -3.236 -0.765 -4.805 -2.293 c -0.396 -0.386 -0.404 -1.019 -0.019 -1.414 c 0.387 -0.396 1.019 -0.404 1.414 -0.019 c 2.355 2.295 4.462 2.292 6.836 -0.002 c 0.397 -0.384 1.029 -0.374 1.414 0.023 c 0.384 0.397 0.373 1.03 -0.023 1.414 C 48.116 41.425 46.495 42.189 44.877 42.189 z" style="stroke: none; stroke-width: 1; stroke-dasharray: none; stroke-linecap: butt; stroke-linejoin: miter; stroke-miterlimit: 10; fill: rgb(8,163,164); fill-rule: nonzero; opacity: 1;" transform=" matrix(1 0 0 1 0 0) " stroke-linecap="round" />
	<path d="M 84.24 88 H 67.455 v -1.661 l 3.775 -5.018 c 0.94 -1.25 1.458 -2.799 1.458 -4.36 V 62.169 c 0 -4.358 -3.112 -8.092 -7.401 -8.876 l -0.964 -0.176 V 37.391 c 1.472 -0.138 2.632 -1.367 2.632 -2.874 v -8.014 c 0 -1.507 -1.16 -2.736 -2.632 -2.874 v -4.19 C 64.323 8.72 55.603 0 44.884 0 C 34.166 0 25.445 8.72 25.445 19.439 v 4.19 c -1.472 0.138 -2.631 1.367 -2.631 2.874 v 8.014 c 0 1.507 1.16 2.736 2.631 2.874 v 15.726 l -0.964 0.176 c -4.288 0.784 -7.401 4.518 -7.401 8.876 v 14.755 c 0 1.59 0.534 3.16 1.504 4.421 l 3.961 5.15 V 88 H 5.76 c -0.552 0 -1 0.447 -1 1 s 0.448 1 1 1 h 16.785 h 44.91 H 84.24 c 0.553 0 1 -0.447 1 -1 S 84.793 88 84.24 88 z M 69.633 80.118 l -2.178 2.894 V 68.307 l 3.233 -2.913 v 11.567 C 70.688 78.092 70.313 79.213 69.633 80.118 z M 70.688 62.169 v 0.534 l -3.323 2.994 c -0.424 -2.401 -2.513 -4.235 -5.035 -4.235 h -7.305 c 1.365 -2.267 2.534 -4.736 3.489 -7.374 l 6.414 1.172 C 68.266 55.871 70.688 58.776 70.688 62.169 z M 37.081 61.462 c -1.534 -2.365 -2.824 -5.004 -3.867 -7.838 c 2.535 -0.93 4.298 -3.281 4.478 -6.02 c 1.292 0.858 2.689 1.578 4.184 2.118 c 0.97 0.351 1.988 0.525 3.007 0.525 c 1.019 0 2.038 -0.175 3.007 -0.525 c 1.492 -0.539 2.884 -1.258 4.184 -2.119 c 0.179 2.74 1.942 5.092 4.478 6.021 c -1.044 2.835 -2.333 5.474 -3.866 7.838 H 37.081 z M 30.137 23.634 c 9.858 -1.406 16.122 -3.605 20.008 -7.041 c 2.765 3.133 5.383 5.181 9.455 7.417 l -0.719 8.6 c -0.171 2.037 -0.686 4.013 -1.531 5.873 c -0.446 0.982 -0.985 1.927 -1.602 2.81 c -0.247 0.355 -0.517 0.695 -0.791 1.032 c -0.129 0.008 -0.257 0.02 -0.389 0.02 H 48.73 c -0.553 0 -1 0.448 -1 1 s 0.447 1 1 1 h 4.285 c -1.7 1.526 -3.639 2.714 -5.803 3.497 c -1.502 0.543 -3.154 0.543 -4.655 0 c -6.511 -2.353 -11.092 -8.332 -11.669 -15.231 L 30.137 23.634 z M 59.905 37.418 h 0.499 c -0.249 1.454 -1.025 2.729 -2.129 3.616 c 0.325 -0.561 0.628 -1.135 0.896 -1.724 C 59.452 38.692 59.69 38.059 59.905 37.418 z M 58.051 51.971 c -2.326 -0.426 -4.015 -2.451 -4.015 -4.816 v -1.046 c 0.351 -0.302 0.708 -0.596 1.04 -0.924 c 0.313 -0.31 0.605 -0.642 0.897 -0.972 c 3.168 -0.569 5.689 -3.021 6.35 -6.157 v 14.697 L 58.051 51.971 z M 64.955 26.503 v 8.014 c 0 0.497 -0.404 0.901 -0.901 0.901 h -3.599 c 0.193 -0.869 0.344 -1.748 0.419 -2.642 l 0.6 -7.175 h 2.58 C 64.551 25.602 64.955 26.006 64.955 26.503 z M 44.884 2 C 54.5 2 62.323 9.823 62.323 19.439 v 4.163 h -0.682 l 0.006 -0.076 c 0.033 -0.397 -0.172 -0.776 -0.523 -0.965 c -4.507 -2.415 -7.16 -4.523 -10.141 -8.058 c -0.182 -0.215 -0.445 -0.344 -0.726 -0.354 c -0.299 -0.011 -0.555 0.097 -0.752 0.297 c -3.587 3.643 -9.934 5.905 -20.578 7.336 c -0.528 0.071 -0.908 0.543 -0.863 1.075 l 0.062 0.745 h -0.682 v -4.163 C 27.445 9.823 35.269 2 44.884 2 z M 24.814 34.517 v -8.014 c 0 -0.497 0.404 -0.901 0.901 -0.901 h 2.58 l 0.6 7.175 c 0.075 0.897 0.217 1.778 0.409 2.642 h -3.589 C 25.218 35.418 24.814 35.014 24.814 34.517 z M 27.445 37.418 h 2.423 c 1.142 3.384 3.173 6.398 5.864 8.711 v 1.025 c 0 2.365 -1.688 4.391 -4.015 4.816 l -4.272 0.781 V 37.418 z M 24.841 55.26 l 6.413 -1.172 c 0.955 2.638 2.125 5.106 3.49 7.374 h -7.074 c -2.586 0 -4.709 1.933 -5.053 4.426 l -3.535 -3.185 v -0.533 C 19.081 58.776 21.503 55.871 24.841 55.26 z M 20.169 80.126 c -0.702 -0.913 -1.089 -2.051 -1.089 -3.202 V 65.395 l 3.465 3.122 v 14.699 L 20.169 80.126 z M 24.545 88 V 66.586 c 0 -1.723 1.401 -3.124 3.124 -3.124 H 62.33 c 1.723 0 3.125 1.401 3.125 3.124 V 88 H 24.545 z" style="stroke: none; stroke-width: 1; stroke-dasharray: none; stroke-linecap: butt; stroke-linejoin: miter; stroke-miterlimit: 10; fill: rgb(8,163,164); fill-rule: nonzero; opacity: 1;" transform=" matrix(1 0 0 1 0 0) " stroke-linecap="round" />
	<path d="M 45.399 79.186 c -2.536 0 -4.6 -2.063 -4.6 -4.6 s 2.063 -4.599 4.6 -4.599 s 4.6 2.063 4.6 4.599 S 47.936 79.186 45.399 79.186 z M 45.399 71.987 c -1.434 0 -2.6 1.166 -2.6 2.599 c 0 1.434 1.166 2.6 2.6 2.6 s 2.6 -1.166 2.6 -2.6 C 47.999 73.153 46.833 71.987 45.399 71.987 z" style="stroke: none; stroke-width: 1; stroke-dasharray: none; stroke-linecap: butt; stroke-linejoin: miter; stroke-miterlimit: 10; fill: rgb(8,163,164); fill-rule: nonzero; opacity: 1;" transform=" matrix(1 0 0 1 0 0) " stroke-linecap="round" />
</g>
</svg>