<?xml version="1.0" encoding="UTF-8" standalone="no" ?>
<!DOCTYPE svg PUBLIC "-//W3C//DTD SVG 1.1//EN" "http://www.w3.org/Graphics/SVG/1.1/DTD/svg11.dtd">
<svg xmlns="http://www.w3.org/2000/svg" xmlns:xlink="http://www.w3.org/1999/xlink" version="1.1" width="350" height="350" viewBox="0 0 350 350" xml:space="preserve">
<desc>Created with Fabric.js 1.7.22</desc>
<defs>
</defs>
<g id="icon" style="stroke: none; stroke-width: 1; stroke-dasharray: none; stroke-linecap: butt; stroke-linejoin: miter; stroke-miterlimit: 10; fill: none; fill-rule: nonzero; opacity: 1;" transform="translate(-1.9444444444444287 -1.9444444444444287) scale(3.89 3.89)" >
	<path d="M 89.5 44.402 c 0 -5.661 -4.541 -10.255 -10.178 -10.356 C 74.686 19.508 61.075 8.976 45 8.976 s -29.686 10.531 -34.322 25.07 C 5.041 34.147 0.5 38.74 0.5 44.402 c 0 5.54 4.35 10.052 9.82 10.338 C 14.569 69.901 28.481 81.024 45 81.024 s 30.431 -11.123 34.68 -26.284 C 85.15 54.454 89.5 49.942 89.5 44.402 z" style="stroke: none; stroke-width: 1; stroke-dasharray: none; stroke-linecap: butt; stroke-linejoin: miter; stroke-miterlimit: 10; fill: rgb(255,255,255); fill-rule: nonzero; opacity: 1;" transform=" matrix(1 0 0 1 0 0) " stroke-linecap="round" />
	<path d="M 45 81.024 c -16.519 0 -30.431 -11.123 -34.68 -26.284 C 4.85 54.454 0.5 49.942 0.5 44.402 c 0 -5.661 4.541 -10.255 10.178 -10.356 C 15.314 19.508 28.925 8.976 45 8.976 C 9.385 8.976 10.199 81.024 45 81.024 z" style="stroke: none; stroke-width: 1; stroke-dasharray: none; stroke-linecap: butt; stroke-linejoin: miter; stroke-miterlimit: 10; fill: rgb(255,255,255); fill-rule: nonzero; opacity: 1;" transform=" matrix(1 0 0 1 0 0) " stroke-linecap="round" />
	<path d="M 45 81.523 c -16.187 0 -30.554 -10.801 -35.065 -26.31 C 4.335 54.739 0 50.058 0 44.402 c 0 -5.761 4.593 -10.551 10.31 -10.844 C 15.256 18.541 29.152 8.476 45 8.476 c 15.849 0 29.744 10.065 34.689 25.082 C 85.407 33.851 90 38.641 90 44.402 c 0 5.656 -4.336 10.337 -9.935 10.812 C 75.554 70.723 61.187 81.523 45 81.523 z M 45 9.476 c -15.529 0 -29.13 9.935 -33.846 24.722 l -0.109 0.342 l -0.358 0.006 C 5.345 34.642 1 39.063 1 44.402 c 0 5.244 4.105 9.565 9.345 9.838 l 0.359 0.019 l 0.097 0.346 C 15.079 69.865 29.142 80.523 45 80.523 s 29.922 -10.658 34.199 -25.919 l 0.097 -0.346 l 0.358 -0.019 C 84.896 53.967 89 49.646 89 44.402 c 0 -5.339 -4.346 -9.76 -9.687 -9.856 l -0.358 -0.006 l -0.109 -0.342 C 74.131 19.411 60.529 9.476 45 9.476 z" style="stroke: none; stroke-width: 1; stroke-dasharray: none; stroke-linecap: butt; stroke-linejoin: miter; stroke-miterlimit: 10; fill: rgb(0,0,0); fill-rule: nonzero; opacity: 1;" transform=" matrix(1 0 0 1 0 0) " stroke-linecap="round" />
	<circle cx="34.137" cy="35.687" r="4.717" style="stroke: none; stroke-width: 1; stroke-dasharray: none; stroke-linecap: butt; stroke-linejoin: miter; stroke-miterlimit: 10; fill: rgb(0,0,0); fill-rule: nonzero; opacity: 1;" transform="  matrix(1 0 0 1 0 0) "/>
	<circle cx="55.857" cy="35.687" r="4.717" style="stroke: none; stroke-width: 1; stroke-dasharray: none; stroke-linecap: butt; stroke-linejoin: miter; stroke-miterlimit: 10; fill: rgb(0,0,0); fill-rule: nonzero; opacity: 1;" transform="  matrix(1 0 0 1 0 0) "/>
	<path d="M 59.004 53.514 c 0 7.734 -6.27 14.004 -14.004 14.004 s -14.004 -6.27 -14.004 -14.004 H 59.004 z" style="stroke: none; stroke-width: 1; stroke-dasharray: none; stroke-linecap: butt; stroke-linejoin: miter; stroke-miterlimit: 10; fill: rgb(0,0,0); fill-rule: nonzero; opacity: 1;" transform=" matrix(1 0 0 1 0 0) " stroke-linecap="round" />
	<path d="M 45.543 16.882 c -3.79 0 -6.758 -1.846 -6.758 -4.203 s 2.969 -4.203 6.758 -4.203 v 1 c -3.121 0 -5.758 1.467 -5.758 3.203 s 2.637 3.203 5.758 3.203 c 1.802 0 3.057 -0.845 3.057 -1.604 s -1.255 -1.604 -3.057 -1.604 v -1 c 2.274 0 4.057 1.144 4.057 2.604 S 47.817 16.882 45.543 16.882 z" style="stroke: none; stroke-width: 1; stroke-dasharray: none; stroke-linecap: butt; stroke-linejoin: miter; stroke-miterlimit: 10; fill: rgb(0,0,0); fill-rule: nonzero; opacity: 1;" transform=" matrix(1 0 0 1 0 0) " stroke-linecap="round" />
</g>
</svg>