<?xml version="1.0" encoding="UTF-8" standalone="no" ?>
<!DOCTYPE svg PUBLIC "-//W3C//DTD SVG 1.1//EN" "http://www.w3.org/Graphics/SVG/1.1/DTD/svg11.dtd">
<svg xmlns="http://www.w3.org/2000/svg" xmlns:xlink="http://www.w3.org/1999/xlink" version="1.1" width="350" height="350" viewBox="0 0 350 350" xml:space="preserve">
<desc>Created with Fabric.js 1.7.22</desc>
<defs>
</defs>
<g id="icon" style="stroke: none; stroke-width: 1; stroke-dasharray: none; stroke-linecap: butt; stroke-linejoin: miter; stroke-miterlimit: 10; fill: none; fill-rule: nonzero; opacity: 1;" transform="translate(-1.9444444444444287 -1.9444444444444287) scale(3.89 3.89)" >
	<path d="M 81.253 90 H 8.747 c -1.697 0 -3.072 -1.375 -3.072 -3.072 V 34.121 h 78.65 v 52.807 C 84.325 88.625 82.95 90 81.253 90 z" style="stroke: none; stroke-width: 1; stroke-dasharray: none; stroke-linecap: butt; stroke-linejoin: miter; stroke-miterlimit: 10; fill: rgb(0,0,0); fill-rule: nonzero; opacity: 1;" transform=" matrix(1 0 0 1 0 0) " stroke-linecap="round" />
	<polygon points="45,0 5.67,34.12 5.67,34.12 5.67,34.12 45,68.24 84.33,34.12 " style="stroke: none; stroke-width: 1; stroke-dasharray: none; stroke-linecap: butt; stroke-linejoin: miter; stroke-miterlimit: 10; fill: rgb(0,0,0); fill-rule: nonzero; opacity: 1;" transform="  matrix(1 0 0 1 0 0) "/>
	<path d="M 45 55.879 L 6.645 89.158 C 7.195 89.677 7.931 90 8.747 90 h 72.507 c 0.815 0 1.552 -0.323 2.102 -0.842 C 81.509 87.557 45 55.879 45 55.879 z" style="stroke: none; stroke-width: 1; stroke-dasharray: none; stroke-linecap: butt; stroke-linejoin: miter; stroke-miterlimit: 10; fill: rgb(0,0,0); fill-rule: nonzero; opacity: 1;" transform=" matrix(1 0 0 1 0 0) " stroke-linecap="round" />
	<path d="M 16.173 7.816 v 21.89 v 9.524 l 21.702 18.831 L 45 51.879 c 0 0 2.909 2.524 7.125 6.182 L 73.827 39.23 v -9.524 V 7.816 H 16.173 z" style="stroke: none; stroke-width: 1; stroke-dasharray: none; stroke-linecap: butt; stroke-linejoin: miter; stroke-miterlimit: 10; fill: rgb(240,240,240); fill-rule: nonzero; opacity: 1;" transform=" matrix(1 0 0 1 0 0) " stroke-linecap="round" />
	<path d="M 31.211 25.068 c 0 -1.663 0.609 -3.076 1.829 -4.241 c 1.219 -1.164 2.699 -1.746 4.44 -1.746 s 3.219 0.582 4.433 1.746 c 1.213 1.165 1.82 2.578 1.82 4.241 c 0 1.653 -0.604 3.062 -1.813 4.226 s -2.688 1.746 -4.44 1.746 c -1.741 0 -3.221 -0.582 -4.44 -1.746 C 31.82 28.13 31.211 26.722 31.211 25.068 z M 34.96 25.068 c 0 0.646 0.248 1.201 0.745 1.666 c 0.497 0.464 1.088 0.697 1.774 0.697 s 1.272 -0.229 1.759 -0.689 c 0.486 -0.46 0.729 -1.018 0.729 -1.673 c 0 -0.646 -0.243 -1.208 -0.729 -1.688 c -0.487 -0.479 -1.073 -0.719 -1.759 -0.719 c -0.707 0 -1.303 0.232 -1.79 0.697 C 35.203 23.824 34.96 24.394 34.96 25.068 z M 37.126 40.989 l 12.97 -21.907 l 2.768 0.002 L 39.913 40.992 L 37.126 40.989 z M 46.252 35.002 c 0 -1.653 0.609 -3.062 1.828 -4.226 s 2.699 -1.746 4.441 -1.746 c 1.74 0 3.219 0.582 4.432 1.746 s 1.82 2.573 1.82 4.226 c 0 1.663 -0.604 3.077 -1.813 4.241 s -2.689 1.746 -4.439 1.746 c -1.742 0 -3.223 -0.582 -4.441 -1.746 S 46.252 36.665 46.252 35.002 z M 50 35.002 c 0 0.656 0.25 1.216 0.746 1.68 c 0.496 0.465 1.088 0.697 1.775 0.697 c 0.686 0 1.271 -0.23 1.758 -0.69 c 0.486 -0.459 0.73 -1.022 0.73 -1.688 c 0 -0.655 -0.244 -1.218 -0.73 -1.688 c -0.486 -0.469 -1.072 -0.704 -1.758 -0.704 c -0.707 0 -1.305 0.232 -1.791 0.697 C 50.244 33.772 50 34.337 50 35.002 z" style="stroke: none; stroke-width: 1; stroke-dasharray: none; stroke-linecap: butt; stroke-linejoin: miter; stroke-miterlimit: 10; fill: rgb(0,0,0); fill-rule: nonzero; opacity: 1;" transform=" matrix(1 0 0 1 0 0) " stroke-linecap="round" />
</g>
</svg>