<?xml version="1.0" encoding="UTF-8" standalone="no" ?>
<!DOCTYPE svg PUBLIC "-//W3C//DTD SVG 1.1//EN" "http://www.w3.org/Graphics/SVG/1.1/DTD/svg11.dtd">
<svg xmlns="http://www.w3.org/2000/svg" xmlns:xlink="http://www.w3.org/1999/xlink" version="1.1" width="350" height="350" viewBox="0 0 350 350" xml:space="preserve">
<desc>Created with Fabric.js 1.7.22</desc>
<defs>
</defs>
<g id="icon" style="stroke: none; stroke-width: 1; stroke-dasharray: none; stroke-linecap: butt; stroke-linejoin: miter; stroke-miterlimit: 10; fill: none; fill-rule: nonzero; opacity: 1;" transform="translate(-1.9444444444444287 -1.9444444444444287) scale(3.89 3.89)" >
	<path d="M 17.853 90 l -4.226 -4.226 l -3.346 3.346 l -9.847 -9.846 l 40.468 -40.468 c -5.686 -10.056 -4.009 -22.935 4.254 -31.197 c 10.142 -10.142 26.647 -10.143 36.791 0 c 4.913 4.913 7.62 11.446 7.62 18.395 s -2.707 13.482 -7.62 18.395 l 0 0 c -8.262 8.262 -21.142 9.941 -31.198 4.254 L 39.323 60.078 l 4.226 4.226 L 32.645 75.207 l -4.226 -4.226 l -3.889 3.89 l 4.226 4.226 L 17.853 90 z M 13.626 80.168 l 4.226 4.226 l 5.298 -5.298 l -4.226 -4.226 l 9.495 -9.495 l 4.226 4.226 l 5.297 -5.298 l -4.226 -4.226 l 16.465 -16.466 l 1.347 0.878 c 8.671 5.65 20.285 4.434 27.615 -2.895 c 4.164 -4.165 6.459 -9.703 6.459 -15.593 s -2.295 -11.427 -6.459 -15.592 c -8.597 -8.595 -22.586 -8.598 -31.185 0 c -7.329 7.33 -8.547 18.943 -2.895 27.614 l 0.878 1.347 L 6.04 79.273 l 4.241 4.241 L 13.626 80.168 z" style="stroke: none; stroke-width: 1; stroke-dasharray: none; stroke-linecap: butt; stroke-linejoin: miter; stroke-miterlimit: 10; fill: rgb(8,163,164); fill-rule: nonzero; opacity: 1;" transform=" matrix(1 0 0 1 0 0) " stroke-linecap="round" />
	<path d="M 69.626 28.38 c -2.166 0 -4.331 -0.824 -5.98 -2.472 c -1.598 -1.598 -2.478 -3.722 -2.478 -5.98 c 0 -2.259 0.88 -4.383 2.478 -5.98 c 3.296 -3.296 8.662 -3.298 11.96 0 c 1.598 1.597 2.478 3.721 2.478 5.98 c 0 2.259 -0.88 4.383 -2.478 5.98 v 0 C 73.957 27.555 71.792 28.38 69.626 28.38 z M 69.626 15.436 c -1.151 0 -2.301 0.438 -3.177 1.314 c -0.849 0.849 -1.316 1.977 -1.316 3.177 c 0 1.2 0.467 2.329 1.316 3.177 c 1.752 1.751 4.603 1.752 6.355 0 v 0 c 0.849 -0.849 1.316 -1.977 1.316 -3.177 c 0 -1.201 -0.467 -2.329 -1.316 -3.177 C 71.928 15.874 70.777 15.436 69.626 15.436 z" style="stroke: none; stroke-width: 1; stroke-dasharray: none; stroke-linecap: butt; stroke-linejoin: miter; stroke-miterlimit: 10; fill: rgb(8,163,164); fill-rule: nonzero; opacity: 1;" transform=" matrix(1 0 0 1 0 0) " stroke-linecap="round" />
</g>
</svg>