<?xml version="1.0" encoding="UTF-8" standalone="no" ?>
<!DOCTYPE svg PUBLIC "-//W3C//DTD SVG 1.1//EN" "http://www.w3.org/Graphics/SVG/1.1/DTD/svg11.dtd">
<svg xmlns="http://www.w3.org/2000/svg" xmlns:xlink="http://www.w3.org/1999/xlink" version="1.1" width="350" height="350" viewBox="0 0 350 350" xml:space="preserve">
<desc>Created with Fabric.js 1.7.22</desc>
<defs>
</defs>
<g id="icon" style="stroke: none; stroke-width: 1; stroke-dasharray: none; stroke-linecap: butt; stroke-linejoin: miter; stroke-miterlimit: 10; fill: none; fill-rule: nonzero; opacity: 1;" transform="translate(-1.9444444444444287 -1.9444444444444287) scale(3.89 3.89)" >
	<path d="M 37.848 41.899 c -12.507 3.107 -21.777 14.41 -21.777 27.879 c 0 7.122 2.598 13.633 6.889 18.653 h 43.67 c 4.292 -5.019 6.889 -11.531 6.889 -18.653 c 0 -13.468 -9.269 -24.771 -21.776 -27.878" style="stroke: none; stroke-width: 1; stroke-dasharray: none; stroke-linecap: butt; stroke-linejoin: miter; stroke-miterlimit: 10; fill: rgb(255,255,255); fill-rule: nonzero; opacity: 1;" transform=" matrix(1 0 0 1 0 0) " stroke-linecap="round" />
	<path d="M 29.934 45.192 c 2.426 -1.47 5.088 -2.591 7.914 -3.293 l 13.896 0 c 2.826 0.702 5.487 1.823 7.913 3.293 l -0.003 0.004 c -3.887 3.642 -9.113 5.872 -14.859 5.872 c -5.747 0 -10.974 -2.231 -14.86 -5.873" style="stroke: none; stroke-width: 1; stroke-dasharray: none; stroke-linecap: butt; stroke-linejoin: miter; stroke-miterlimit: 10; fill: rgb(255,96,107); fill-rule: nonzero; opacity: 1;" transform=" matrix(1 0 0 1 0 0) " stroke-linecap="round" />
	<path d="M 54.9 48.581 v 13.676 c 0 2.615 -2.14 4.755 -4.755 4.755 h 0 c -2.615 0 -4.755 -2.14 -4.755 -4.755 V 51.068" style="stroke: none; stroke-width: 1; stroke-dasharray: none; stroke-linecap: butt; stroke-linejoin: miter; stroke-miterlimit: 10; fill: rgb(255,96,107); fill-rule: nonzero; opacity: 1;" transform=" matrix(1 0 0 1 0 0) " stroke-linecap="round" />
	<path d="M 50.145 68.012 c -3.173 0 -5.755 -2.582 -5.755 -5.755 V 51.067 c 0 -0.553 0.448 -1 1 -1 s 1 0.447 1 1 v 11.189 c 0 2.07 1.685 3.755 3.755 3.755 c 2.071 0 3.756 -1.685 3.756 -3.755 V 48.581 c 0 -0.553 0.447 -1 1 -1 s 1 0.447 1 1 v 13.676 C 55.9 65.43 53.318 68.012 50.145 68.012 z" style="stroke: none; stroke-width: 1; stroke-dasharray: none; stroke-linecap: butt; stroke-linejoin: miter; stroke-miterlimit: 10; fill: rgb(0,35,86); fill-rule: nonzero; opacity: 1;" transform=" matrix(1 0 0 1 0 0) " stroke-linecap="round" />
	<path d="M 44.796 52.067 c -5.796 0 -11.317 -2.182 -15.544 -6.143 c -0.403 -0.377 -0.424 -1.01 -0.046 -1.413 c 0.378 -0.404 1.01 -0.425 1.413 -0.046 c 3.855 3.613 8.89 5.602 14.177 5.602 c 5.287 0 10.321 -1.989 14.176 -5.602 c 0.401 -0.377 1.037 -0.358 1.413 0.046 c 0.378 0.403 0.357 1.036 -0.046 1.413 C 56.112 49.886 50.593 52.067 44.796 52.067 z" style="stroke: none; stroke-width: 1; stroke-dasharray: none; stroke-linecap: butt; stroke-linejoin: miter; stroke-miterlimit: 10; fill: rgb(0,35,86); fill-rule: nonzero; opacity: 1;" transform=" matrix(1 0 0 1 0 0) " stroke-linecap="round" />
	<path d="M 58.926 26.748 c 0.031 0.171 0.059 0.343 0.084 0.516 c 0.097 0.675 0.148 1.365 0.148 2.067 c 0 7.932 -6.43 14.362 -14.362 14.362 s -14.362 -6.43 -14.362 -14.362 c 0 -0.888 0.081 -1.756 0.235 -2.6 l 15.829 -11.513 L 58.926 26.748 z" style="stroke: none; stroke-width: 1; stroke-dasharray: none; stroke-linecap: butt; stroke-linejoin: miter; stroke-miterlimit: 10; fill: rgb(255,255,255); fill-rule: nonzero; opacity: 1;" transform=" matrix(1 0 0 1 0 0) " stroke-linecap="round" />
	<path d="M 66.631 89.43 h -43.67 c -0.292 0 -0.57 -0.128 -0.76 -0.351 c -4.597 -5.377 -7.129 -12.231 -7.129 -19.302 c 0 -13.69 9.267 -25.553 22.536 -28.85 c 0.535 -0.134 1.078 0.193 1.212 0.729 c 0.133 0.536 -0.194 1.079 -0.729 1.212 c -12.375 3.074 -21.018 14.139 -21.018 26.908 c 0 6.441 2.254 12.691 6.355 17.652 h 42.738 c 4.102 -4.961 6.355 -11.211 6.355 -17.652 c 0 -12.769 -8.643 -23.834 -21.018 -26.908 c -0.536 -0.133 -0.862 -0.676 -0.729 -1.212 c 0.134 -0.537 0.676 -0.862 1.212 -0.729 c 13.269 3.296 22.535 15.16 22.535 28.849 c 0 7.07 -2.532 13.925 -7.13 19.302 C 67.201 89.302 66.923 89.43 66.631 89.43 z" style="stroke: none; stroke-width: 1; stroke-dasharray: none; stroke-linecap: butt; stroke-linejoin: miter; stroke-miterlimit: 10; fill: rgb(0,35,86); fill-rule: nonzero; opacity: 1;" transform=" matrix(1 0 0 1 0 0) " stroke-linecap="round" />
	<path d="M 66.196 1.57 c -2.192 0 -3.984 1.638 -4.266 3.753 C 44.113 4.762 31.388 9.5 30.674 26.733 c 9.425 -5.964 18.871 -5.938 28.337 0 c -1.918 -8.697 -0.293 -14.46 3.797 -18.184 c 0.791 1.009 2.007 1.668 3.389 1.668 c 2.388 0 4.323 -1.936 4.323 -4.323 S 68.584 1.57 66.196 1.57 z" style="stroke: none; stroke-width: 1; stroke-dasharray: none; stroke-linecap: butt; stroke-linejoin: miter; stroke-miterlimit: 10; fill: rgb(255,96,107); fill-rule: nonzero; opacity: 1;" transform=" matrix(1 0 0 1 0 0) " stroke-linecap="round" />
	<path d="M 59.011 27.733 c -0.185 0 -0.368 -0.051 -0.531 -0.153 c -9.217 -5.781 -18.137 -5.782 -27.271 -0.002 c -0.315 0.199 -0.712 0.207 -1.035 0.021 c -0.322 -0.186 -0.514 -0.536 -0.499 -0.907 c 0.652 -15.727 10.643 -22.88 31.461 -22.39 c 0.685 -2.179 2.722 -3.731 5.061 -3.731 c 2.936 0 5.323 2.388 5.323 5.323 s -2.388 5.323 -5.323 5.323 c -1.261 0 -2.457 -0.447 -3.407 -1.252 c -3.521 3.716 -4.437 9.145 -2.802 16.553 c 0.087 0.394 -0.071 0.801 -0.4 1.033 C 59.414 27.672 59.213 27.733 59.011 27.733 z M 59.314 6.281 c -17.422 0 -26.233 5.962 -27.509 18.614 c 8.539 -4.777 17.207 -4.822 25.81 -0.138 c -1.192 -7.432 0.323 -13.127 4.518 -16.948 c 0.206 -0.187 0.479 -0.28 0.757 -0.257 c 0.277 0.023 0.532 0.161 0.703 0.379 c 0.642 0.817 1.591 1.286 2.604 1.286 c 1.832 0 3.323 -1.491 3.323 -3.323 S 68.028 2.57 66.196 2.57 c -1.647 0 -3.056 1.24 -3.275 2.885 c -0.066 0.498 -0.491 0.868 -0.991 0.868 c -0.01 0 -0.021 0 -0.031 0 C 61.018 6.294 60.154 6.281 59.314 6.281 z" style="stroke: none; stroke-width: 1; stroke-dasharray: none; stroke-linecap: butt; stroke-linejoin: miter; stroke-miterlimit: 10; fill: rgb(0,35,86); fill-rule: nonzero; opacity: 1;" transform=" matrix(1 0 0 1 0 0) " stroke-linecap="round" />
	<path d="M 44.796 44.694 c -8.471 0 -15.362 -6.892 -15.362 -15.362 c 0 -0.934 0.084 -1.869 0.251 -2.78 c 0.1 -0.543 0.618 -0.9 1.164 -0.804 c 0.543 0.1 0.903 0.621 0.804 1.164 c -0.145 0.792 -0.219 1.606 -0.219 2.419 c 0 7.368 5.994 13.362 13.362 13.362 S 58.158 36.7 58.158 29.332 c 0 -0.642 -0.046 -1.29 -0.138 -1.926 c -0.023 -0.159 -0.05 -0.322 -0.078 -0.483 c -0.097 -0.544 0.267 -1.063 0.81 -1.159 c 0.553 -0.091 1.063 0.267 1.159 0.811 c 0.032 0.181 0.063 0.362 0.089 0.545 c 0.105 0.733 0.158 1.477 0.158 2.213 C 60.158 37.802 53.267 44.694 44.796 44.694 z" style="stroke: none; stroke-width: 1; stroke-dasharray: none; stroke-linecap: butt; stroke-linejoin: miter; stroke-miterlimit: 10; fill: rgb(0,35,86); fill-rule: nonzero; opacity: 1;" transform=" matrix(1 0 0 1 0 0) " stroke-linecap="round" />
	<path d="M 44.796 38.789 c -1.889 0 -3.777 -0.774 -5.613 -2.324 c -0.422 -0.356 -0.476 -0.987 -0.119 -1.409 c 0.357 -0.423 0.986 -0.476 1.409 -0.119 c 2.949 2.488 5.696 2.488 8.647 0 c 0.423 -0.358 1.053 -0.302 1.409 0.119 c 0.355 0.422 0.303 1.053 -0.12 1.409 C 48.573 38.014 46.685 38.789 44.796 38.789 z" style="stroke: none; stroke-width: 1; stroke-dasharray: none; stroke-linecap: butt; stroke-linejoin: miter; stroke-miterlimit: 10; fill: rgb(0,35,86); fill-rule: nonzero; opacity: 1;" transform=" matrix(1 0 0 1 0 0) " stroke-linecap="round" />
	<path d="M 40.91 28.578 h -0.922 c -0.552 0 -1 -0.448 -1 -1 s 0.448 -1 1 -1 h 0.922 c 0.552 0 1 0.448 1 1 S 41.462 28.578 40.91 28.578 z" style="stroke: none; stroke-width: 1; stroke-dasharray: none; stroke-linecap: butt; stroke-linejoin: miter; stroke-miterlimit: 10; fill: rgb(0,35,86); fill-rule: nonzero; opacity: 1;" transform=" matrix(1 0 0 1 0 0) " stroke-linecap="round" />
	<path d="M 49.604 28.578 h -0.923 c -0.553 0 -1 -0.448 -1 -1 s 0.447 -1 1 -1 h 0.923 c 0.553 0 1 0.448 1 1 S 50.157 28.578 49.604 28.578 z" style="stroke: none; stroke-width: 1; stroke-dasharray: none; stroke-linecap: butt; stroke-linejoin: miter; stroke-miterlimit: 10; fill: rgb(0,35,86); fill-rule: nonzero; opacity: 1;" transform=" matrix(1 0 0 1 0 0) " stroke-linecap="round" />
	<path d="M 45.257 33.546 h -0.923 c -0.552 0 -1 -0.448 -1 -1 s 0.448 -1 1 -1 h 0.923 c 0.552 0 1 0.448 1 1 S 45.81 33.546 45.257 33.546 z" style="stroke: none; stroke-width: 1; stroke-dasharray: none; stroke-linecap: butt; stroke-linejoin: miter; stroke-miterlimit: 10; fill: rgb(0,35,86); fill-rule: nonzero; opacity: 1;" transform=" matrix(1 0 0 1 0 0) " stroke-linecap="round" />
	<polyline points="23.17,50.42 13.35,43.38 13.35,35.7 8.66,35.7 8.66,43.38 1,43.38 1,48.06 8.66,48.06 19.28,55.51 " style="stroke: none; stroke-width: 1; stroke-dasharray: none; stroke-linecap: butt; stroke-linejoin: miter; stroke-miterlimit: 10; fill: rgb(207,99,79); fill-rule: nonzero; opacity: 1;" transform="  matrix(1 0 0 1 0 0) "/>
	<polyline points="66.83,50.42 76.66,43.38 76.66,35.7 81.34,35.7 81.34,43.38 89,43.38 89,48.06 81.34,48.06 70.72,55.51 " style="stroke: none; stroke-width: 1; stroke-dasharray: none; stroke-linecap: butt; stroke-linejoin: miter; stroke-miterlimit: 10; fill: rgb(207,99,79); fill-rule: nonzero; opacity: 1;" transform="  matrix(1 0 0 1 0 0) "/>
	<path d="M 19.277 56.515 c -0.198 0 -0.398 -0.059 -0.573 -0.182 L 8.34 49.064 H 1 c -0.552 0 -1 -0.447 -1 -1 v -4.689 c 0 -0.552 0.448 -1 1 -1 h 6.656 v -6.674 c 0 -0.552 0.448 -1 1 -1 h 4.689 c 0.552 0 1 0.448 1 1 v 7.161 l 9.407 6.743 c 0.449 0.321 0.552 0.946 0.23 1.396 c -0.322 0.448 -0.948 0.553 -1.396 0.229 l -9.825 -7.042 C 12.5 44 12.345 43.697 12.345 43.375 v -6.674 H 9.656 v 6.674 c 0 0.552 -0.448 1 -1 1 H 2 v 2.689 h 6.656 c 0.206 0 0.406 0.063 0.574 0.182 l 10.622 7.45 c 0.452 0.316 0.562 0.94 0.245 1.393 C 19.902 56.366 19.592 56.515 19.277 56.515 z" style="stroke: none; stroke-width: 1; stroke-dasharray: none; stroke-linecap: butt; stroke-linejoin: miter; stroke-miterlimit: 10; fill: rgb(0,35,86); fill-rule: nonzero; opacity: 1;" transform=" matrix(1 0 0 1 0 0) " stroke-linecap="round" />
	<path d="M 70.724 56.515 c -0.315 0 -0.625 -0.148 -0.819 -0.426 c -0.317 -0.452 -0.208 -1.076 0.244 -1.393 l 10.622 -7.45 c 0.168 -0.118 0.369 -0.182 0.574 -0.182 H 88 v -2.689 h -6.655 c -0.553 0 -1 -0.448 -1 -1 v -6.674 h -2.69 v 6.674 c 0 0.322 -0.155 0.625 -0.417 0.813 l -9.824 7.042 c -0.451 0.323 -1.074 0.219 -1.396 -0.229 c -0.322 -0.449 -0.219 -1.074 0.229 -1.396 l 9.407 -6.743 v -7.161 c 0 -0.552 0.447 -1 1 -1 h 4.69 c 0.553 0 1 0.448 1 1 v 6.674 H 89 c 0.553 0 1 0.448 1 1 v 4.689 c 0 0.553 -0.447 1 -1 1 h -7.34 l -10.363 7.269 C 71.122 56.456 70.922 56.515 70.724 56.515 z" style="stroke: none; stroke-width: 1; stroke-dasharray: none; stroke-linecap: butt; stroke-linejoin: miter; stroke-miterlimit: 10; fill: rgb(0,35,86); fill-rule: nonzero; opacity: 1;" transform=" matrix(1 0 0 1 0 0) " stroke-linecap="round" />
</g>
</svg>