<?xml version="1.0" encoding="UTF-8" standalone="no" ?>
<!DOCTYPE svg PUBLIC "-//W3C//DTD SVG 1.1//EN" "http://www.w3.org/Graphics/SVG/1.1/DTD/svg11.dtd">
<svg xmlns="http://www.w3.org/2000/svg" xmlns:xlink="http://www.w3.org/1999/xlink" version="1.1" width="350" height="350" viewBox="0 0 350 350" xml:space="preserve">
<desc>Created with Fabric.js 1.7.22</desc>
<defs>
</defs>
<g id="icon" style="stroke: none; stroke-width: 1; stroke-dasharray: none; stroke-linecap: butt; stroke-linejoin: miter; stroke-miterlimit: 10; fill: none; fill-rule: nonzero; opacity: 1;" transform="translate(-1.9444444444444287 -1.9444444444444287) scale(3.89 3.89)" >
	<path d="M 79.152 89.999 c -1.709 0 -3.312 -0.662 -4.513 -1.864 L 44.577 58.074 l -2.689 2.689 L 8.042 26.916 c -5.57 -5.569 -5.57 -14.631 0 -20.2 L 9.66 5.099 l 74.007 74.008 c 1.202 1.201 1.864 2.804 1.864 4.513 s -0.662 3.312 -1.864 4.514 S 80.862 89.999 79.152 89.999 z M 44.577 53.906 l 32.146 32.145 c 1.291 1.291 3.569 1.291 4.861 0 c 0.646 -0.646 1.001 -1.509 1.001 -2.431 c 0 -0.922 -0.355 -1.784 -1.001 -2.43 L 9.672 9.28 c -3.962 4.446 -3.81 11.289 0.453 15.553 l 31.762 31.763 L 44.577 53.906 z" style="stroke: none; stroke-width: 1; stroke-dasharray: none; stroke-linecap: butt; stroke-linejoin: miter; stroke-miterlimit: 10; fill: rgb(8,163,164); fill-rule: nonzero; opacity: 1;" transform=" matrix(1 0 0 1 0 0) " stroke-linecap="round" />
	<path d="M 6.378 90.001 c -1.635 0 -3.269 -0.622 -4.514 -1.867 C 0.662 86.933 0 85.33 0 83.62 s 0.662 -3.312 1.864 -4.513 l 26.783 -26.783 l 9.029 9.028 L 10.892 88.135 C 9.648 89.38 8.013 90.001 6.378 90.001 z M 28.647 56.491 L 3.947 81.19 c -0.646 0.646 -1.001 1.508 -1.001 2.43 c 0 0.922 0.355 1.785 1.001 2.431 c 1.292 1.291 3.57 1.291 4.861 0 l 24.699 -24.7 L 28.647 56.491 z" style="stroke: none; stroke-width: 1; stroke-dasharray: none; stroke-linecap: butt; stroke-linejoin: miter; stroke-miterlimit: 10; fill: rgb(8,163,164); fill-rule: nonzero; opacity: 1;" transform=" matrix(1 0 0 1 0 0) " stroke-linecap="round" />
	<path d="M 62.341 48.754 c -1.743 0 -3.379 -0.674 -4.604 -1.901 l -2.782 -2.781 l -1.497 1.497 l -9.029 -9.028 l 1.498 -1.497 l -2.781 -2.782 c -2.539 -2.539 -2.539 -6.67 0 -9.209 L 66.199 -0.001 l 7.175 7.175 L 57.817 22.732 c -0.186 0.186 -0.289 0.436 -0.289 0.703 c 0 0.268 0.103 0.518 0.289 0.704 c 0.372 0.372 1.034 0.372 1.406 0 L 74.781 8.581 l 6.636 6.636 L 65.86 30.775 c -0.381 0.381 -0.381 1.025 0 1.407 c 0.389 0.388 1.021 0.387 1.407 0 l 15.558 -15.558 L 90 23.799 L 66.946 46.854 C 65.721 48.08 64.085 48.754 62.341 48.754 z M 54.955 39.904 l 4.865 4.865 c 1.34 1.339 3.703 1.337 5.041 0 l 20.971 -20.97 l -3.008 -3.008 L 69.35 34.266 c -1.537 1.536 -4.038 1.537 -5.574 0 c -1.536 -1.537 -1.536 -4.038 0 -5.574 L 77.25 15.217 l -2.469 -2.469 L 61.307 26.222 c -0.742 0.742 -1.732 1.152 -2.787 1.152 c -1.055 0 -2.045 -0.409 -2.787 -1.152 c -0.742 -0.742 -1.152 -1.732 -1.152 -2.787 c 0 -1.055 0.41 -2.045 1.152 -2.787 L 69.208 7.174 l -3.008 -3.008 l -20.97 20.97 c -1.39 1.39 -1.39 3.652 0 5.042 l 4.865 4.865 l -1.497 1.497 l 4.862 4.861 L 54.955 39.904 z" style="stroke: none; stroke-width: 1; stroke-dasharray: none; stroke-linecap: butt; stroke-linejoin: miter; stroke-miterlimit: 10; fill: rgb(8,163,164); fill-rule: nonzero; opacity: 1;" transform=" matrix(1 0 0 1 0 0) " stroke-linecap="round" />
</g>
</svg>