<?xml version="1.0" encoding="UTF-8" standalone="no" ?>
<!DOCTYPE svg PUBLIC "-//W3C//DTD SVG 1.1//EN" "http://www.w3.org/Graphics/SVG/1.1/DTD/svg11.dtd">
<svg xmlns="http://www.w3.org/2000/svg" xmlns:xlink="http://www.w3.org/1999/xlink" version="1.1" width="350" height="350" viewBox="0 0 350 350" xml:space="preserve">
<desc>Created with Fabric.js 1.7.22</desc>
<defs>
</defs>
<g id="icon" style="stroke: none; stroke-width: 1; stroke-dasharray: none; stroke-linecap: butt; stroke-linejoin: miter; stroke-miterlimit: 10; fill: none; fill-rule: nonzero; opacity: 1;" transform="translate(-1.9444444444444287 -1.9444444444444287) scale(3.89 3.89)" >
	<path d="M 89.414 86.586 L 62.862 60.034 c 5.931 -6.612 9.178 -15.063 9.178 -24.014 c 0 -9.622 -3.747 -18.667 -10.551 -25.47 C 54.687 3.747 45.641 0 36.02 0 c -9.622 0 -18.667 3.747 -25.47 10.55 C 3.747 17.353 0 26.398 0 36.02 c 0 9.621 3.747 18.667 10.55 25.469 c 6.803 6.804 15.848 10.551 25.47 10.551 c 8.951 0 17.402 -3.247 24.014 -9.178 l 26.552 26.552 C 86.977 89.805 87.488 90 88 90 s 1.023 -0.195 1.414 -0.586 C 90.195 88.633 90.195 87.367 89.414 86.586 z M 13.378 58.661 C 7.331 52.613 4 44.573 4 36.02 c 0 -8.553 3.331 -16.594 9.378 -22.642 S 27.467 4 36.02 4 c 8.553 0 16.593 3.331 22.641 9.378 S 68.04 27.467 68.04 36.02 c 0 8.553 -3.331 16.593 -9.379 22.641 S 44.573 68.04 36.02 68.04 C 27.467 68.04 19.426 64.709 13.378 58.661 z" style="stroke: none; stroke-width: 1; stroke-dasharray: none; stroke-linecap: butt; stroke-linejoin: miter; stroke-miterlimit: 10; fill: rgb(255,255,255); fill-rule: nonzero; opacity: 1;" transform=" matrix(1 0 0 1 0 0) " stroke-linecap="round" />
</g>
</svg>