<?xml version="1.0" encoding="UTF-8" standalone="no" ?>
<!DOCTYPE svg PUBLIC "-//W3C//DTD SVG 1.1//EN" "http://www.w3.org/Graphics/SVG/1.1/DTD/svg11.dtd">
<svg xmlns="http://www.w3.org/2000/svg" xmlns:xlink="http://www.w3.org/1999/xlink" version="1.1" width="350" height="350" viewBox="0 0 350 350" xml:space="preserve">
<desc>Created with Fabric.js 1.7.22</desc>
<defs>
</defs>
<g id="icon" style="stroke: none; stroke-width: 1; stroke-dasharray: none; stroke-linecap: butt; stroke-linejoin: miter; stroke-miterlimit: 10; fill: none; fill-rule: nonzero; opacity: 1;" transform="translate(-1.9444444444444287 -1.9444444444444287) scale(3.89 3.89)" >
	<path d="M 30.318 79.749 c -9.466 0 -18.684 -2.702 -26.659 -7.812 L 0 69.591 L 4.317 70.1 c 1.291 0.152 2.62 0.23 3.947 0.23 c 6.65 0 12.969 -1.91 18.428 -5.548 c -6.56 -1.122 -12.061 -5.799 -14.136 -12.275 l -0.515 -1.605 l 1.656 0.318 c 1.046 0.2 2.109 0.305 3.146 0.289 c -6.164 -2.93 -10.31 -9.231 -10.31 -16.302 c 0 -0.094 0 -0.183 0.005 -0.272 l 0.087 -1.598 l 1.398 0.778 c 1.218 0.678 2.524 1.193 3.873 1.532 C 8.577 32.3 6.672 27.756 6.672 22.936 c 0 -3.184 0.845 -6.32 2.443 -9.067 l 0.727 -1.25 l 0.913 1.121 c 8.213 10.075 20.223 16.353 33.117 17.353 c -0.142 -0.918 -0.214 -1.857 -0.214 -2.804 c 0 -9.946 8.094 -18.038 18.042 -18.038 c 4.778 0 9.402 1.923 12.773 5.293 c 3.512 -0.751 6.865 -2.064 9.973 -3.906 l 2.266 -1.343 l -0.803 2.509 c -0.903 2.823 -2.487 5.36 -4.59 7.408 c 1.898 -0.464 3.745 -1.093 5.524 -1.884 L 90 16.926 l -1.917 2.872 c -2.26 3.384 -5.055 6.329 -8.312 8.759 c 0.019 0.568 0.027 1.139 0.027 1.711 C 79.798 54.591 61.29 79.749 30.318 79.749 z M 8.317 72.331 c 6.775 3.554 14.303 5.416 22.002 5.416 c 29.719 0 47.479 -24.141 47.479 -47.48 c 0 -0.723 -0.015 -1.442 -0.047 -2.158 l -0.024 -0.54 l 0.438 -0.317 c 2.329 -1.683 4.414 -3.639 6.228 -5.84 c -2.202 0.722 -4.48 1.226 -6.808 1.505 l -4.647 0.555 l 4.013 -2.407 c 2.569 -1.541 4.638 -3.743 5.999 -6.348 c -2.736 1.337 -5.624 2.309 -8.618 2.898 l -0.543 0.107 l -0.38 -0.404 c -3.023 -3.221 -7.291 -5.068 -11.707 -5.068 c -8.845 0 -16.041 7.194 -16.041 16.037 c 0 1.25 0.14 2.48 0.415 3.657 l 0.303 1.294 l -1.327 -0.067 c -13.439 -0.675 -26.065 -6.854 -34.876 -17.015 c -0.985 2.115 -1.501 4.431 -1.501 6.778 c 0 5.377 2.668 10.368 7.137 13.351 l 2.906 1.94 l -3.492 -0.107 c -2.276 -0.07 -4.536 -0.582 -6.627 -1.493 c 0.624 7.005 5.816 12.902 12.803 14.301 l 4.156 0.833 l -4.089 1.114 c -2.081 0.566 -4.249 0.76 -6.425 0.556 c 2.488 5.693 8.088 9.488 14.404 9.605 l 2.814 0.053 l -2.215 1.735 C 23.789 69.725 16.277 72.319 8.317 72.331 z" style="stroke: none; stroke-width: 1; stroke-dasharray: none; stroke-linecap: butt; stroke-linejoin: miter; stroke-miterlimit: 10; fill: rgb(8,163,164); fill-rule: nonzero; opacity: 1;" transform=" matrix(1 0 0 1 0 0) " stroke-linecap="round" />
</g>
</svg>