<?xml version="1.0" encoding="UTF-8" standalone="no" ?>
<!DOCTYPE svg PUBLIC "-//W3C//DTD SVG 1.1//EN" "http://www.w3.org/Graphics/SVG/1.1/DTD/svg11.dtd">
<svg xmlns="http://www.w3.org/2000/svg" xmlns:xlink="http://www.w3.org/1999/xlink" version="1.1" width="350" height="350" viewBox="0 0 350 350" xml:space="preserve">
<desc>Created with Fabric.js 1.7.22</desc>
<defs>
</defs>
<g id="icon" style="stroke: none; stroke-width: 1; stroke-dasharray: none; stroke-linecap: butt; stroke-linejoin: miter; stroke-miterlimit: 10; fill: none; fill-rule: nonzero; opacity: 1;" transform="translate(-1.9444444444444287 -1.9444444444444287) scale(3.89 3.89)" >
	<path d="M 45.108 90.108 c -7.855 0 -15.586 -2.053 -22.357 -5.937 l -0.363 -0.208 l -21.85 5.73 l 5.9 -21.551 L 6.222 67.77 c -4 -6.849 -6.114 -14.685 -6.114 -22.661 c 0 -24.813 20.187 -45 45 -45 s 45 20.187 45 45 S 69.922 90.108 45.108 90.108 z M 22.679 81.777 l 1.087 0.625 c 6.462 3.706 13.842 5.666 21.342 5.666 c 23.687 0 42.959 -19.272 42.959 -42.959 c 0 -23.688 -19.272 -42.96 -42.959 -42.96 c -23.688 0 -42.96 19.272 -42.96 42.96 c 0 7.616 2.018 15.096 5.835 21.633 l 0.65 1.111 L 3.44 86.823 L 22.679 81.777 z" style="stroke: none; stroke-width: 1; stroke-dasharray: none; stroke-linecap: butt; stroke-linejoin: miter; stroke-miterlimit: 10; fill: rgb(8,163,164); fill-rule: nonzero; opacity: 1;" transform=" matrix(1 0 0 1 0 0) " stroke-linecap="round" />
	<path d="M 56.732 65.026 c -1.366 0 -2.942 -0.17 -4.639 -0.709 c -1.826 -0.579 -3.874 -1.27 -6.477 -2.394 c -9.362 -4.043 -16.145 -12.371 -19.355 -16.976 c -0.084 -0.121 -0.143 -0.206 -0.176 -0.25 c -1.441 -1.923 -4.771 -6.934 -4.771 -12.182 c 0 -5.553 2.782 -8.521 3.97 -9.789 l 0.211 -0.227 c 1.426 -1.558 3.079 -1.726 3.724 -1.726 c 0.763 0 1.528 0.007 2.195 0.04 c 0.063 0.003 0.129 0.003 0.196 0.002 c 1.139 0.021 2.266 0.297 3.197 2.535 c 0.31 0.744 0.763 1.847 1.241 3.011 c 0.849 2.067 2.012 4.898 2.183 5.24 c 0.188 0.376 0.759 1.521 0.094 2.855 l -0.155 0.313 c -0.291 0.594 -0.542 1.107 -1.101 1.758 c -0.183 0.214 -0.372 0.444 -0.562 0.675 c -0.394 0.48 -0.801 0.976 -1.172 1.345 c -0.566 0.564 -0.588 0.634 -0.333 1.073 c 0.779 1.336 2.925 4.744 6.03 7.514 c 3.458 3.085 6.411 4.365 7.997 5.053 c 0.329 0.143 0.595 0.259 0.79 0.356 c 0.826 0.413 0.951 0.271 1.226 -0.044 c 0.803 -0.918 2.79 -3.272 3.466 -4.286 c 1.229 -1.845 2.771 -1.28 3.694 -0.945 c 1.137 0.414 7.006 3.313 7.756 3.688 l 0.598 0.293 c 0.917 0.443 1.579 0.763 1.958 1.395 l 0.001 0.001 c 0.573 0.958 0.323 3.671 -0.569 6.175 c -1.105 3.099 -6.036 5.631 -8.353 5.977 C 58.813 64.914 57.842 65.026 56.732 65.026 z M 29.219 22.774 c -0.296 0 -1.334 0.078 -2.248 1.076 l -0.228 0.244 c -1.113 1.188 -3.429 3.659 -3.429 8.421 c 0 4.646 3.051 9.22 4.363 10.971 c 0.05 0.067 0.123 0.17 0.226 0.317 c 3.089 4.431 9.601 12.438 18.508 16.284 c 2.521 1.089 4.513 1.76 6.289 2.323 c 2.677 0.851 5.049 0.64 6.602 0.407 c 2.029 -0.303 6.03 -2.61 6.764 -4.67 c 0.833 -2.335 0.805 -4.09 0.715 -4.499 c -0.15 -0.145 -0.668 -0.395 -1.089 -0.599 l -0.624 -0.305 c -1.447 -0.725 -6.628 -3.263 -7.546 -3.598 c -0.987 -0.359 -1.028 -0.299 -1.345 0.175 c -0.809 1.216 -3.064 3.854 -3.624 4.494 c -1.271 1.455 -2.678 0.991 -3.627 0.517 c -0.17 -0.086 -0.403 -0.186 -0.69 -0.311 c -1.568 -0.681 -4.834 -2.097 -8.532 -5.396 c -3.319 -2.959 -5.601 -6.58 -6.427 -7.999 c -1.051 -1.804 0.098 -2.948 0.649 -3.497 c 0.3 -0.299 0.675 -0.755 1.038 -1.197 c 0.198 -0.241 0.396 -0.483 0.588 -0.707 c 0.393 -0.458 0.555 -0.79 0.823 -1.337 l 0.161 -0.327 c 0.16 -0.321 0.135 -0.61 -0.093 -1.067 c -0.189 -0.379 -1.012 -2.374 -2.244 -5.375 c -0.477 -1.16 -0.928 -2.26 -1.237 -3.002 c -0.544 -1.309 -0.895 -1.309 -1.339 -1.304 c -0.106 0.002 -0.208 0.001 -0.307 -0.004 C 30.678 22.78 29.948 22.774 29.219 22.774 z" style="stroke: none; stroke-width: 1; stroke-dasharray: none; stroke-linecap: butt; stroke-linejoin: miter; stroke-miterlimit: 10; fill: rgb(8,163,164); fill-rule: nonzero; opacity: 1;" transform=" matrix(1 0 0 1 0 0) " stroke-linecap="round" />
</g>
</svg>