<?xml version="1.0" encoding="UTF-8" standalone="no" ?>
<!DOCTYPE svg PUBLIC "-//W3C//DTD SVG 1.1//EN" "http://www.w3.org/Graphics/SVG/1.1/DTD/svg11.dtd">
<svg xmlns="http://www.w3.org/2000/svg" xmlns:xlink="http://www.w3.org/1999/xlink" version="1.1" width="350" height="350" viewBox="0 0 350 350" xml:space="preserve">
<desc>Created with Fabric.js 1.7.22</desc>
<defs>
</defs>
<g id="icon" style="stroke: none; stroke-width: 1; stroke-dasharray: none; stroke-linecap: butt; stroke-linejoin: miter; stroke-miterlimit: 10; fill: none; fill-rule: nonzero; opacity: 1;" transform="translate(-1.9444444444444287 -1.9444444444444287) scale(3.89 3.89)" >
	<path d="M 86.997 19.657 c -0.612 0 -1.229 -0.187 -1.763 -0.575 C 73.49 10.532 59.577 6.013 45 6.013 c -14.577 0 -28.489 4.519 -40.234 13.069 c -1.339 0.976 -3.217 0.68 -4.191 -0.66 c -0.975 -1.339 -0.68 -3.216 0.66 -4.191 C 14.012 4.93 29.146 0.013 45 0.013 c 15.854 0 30.988 4.917 43.766 14.218 c 1.34 0.975 1.635 2.852 0.66 4.191 C 88.838 19.229 87.924 19.657 86.997 19.657 z" style="stroke: none; stroke-width: 1; stroke-dasharray: none; stroke-linecap: butt; stroke-linejoin: miter; stroke-miterlimit: 10; fill: rgb(1,160,161); fill-rule: nonzero; opacity: 1;" transform=" matrix(1 0 0 1 0 0) " stroke-linecap="round" />
	<path d="M 72.546 39.61 c -0.612 0 -1.231 -0.187 -1.765 -0.576 C 63.258 33.548 54.343 30.648 45 30.648 s -18.258 2.9 -25.781 8.386 c -1.338 0.978 -3.215 0.683 -4.191 -0.656 c -0.977 -1.339 -0.683 -3.215 0.656 -4.191 c 8.557 -6.24 18.695 -9.538 29.316 -9.538 c 10.622 0 20.759 3.298 29.316 9.538 c 1.339 0.976 1.633 2.853 0.656 4.191 C 74.386 39.183 73.473 39.61 72.546 39.61 z" style="stroke: none; stroke-width: 1; stroke-dasharray: none; stroke-linecap: butt; stroke-linejoin: miter; stroke-miterlimit: 10; fill: rgb(1,160,161); fill-rule: nonzero; opacity: 1;" transform=" matrix(1 0 0 1 0 0) " stroke-linecap="round" />
	<path d="M 58.096 59.563 c -0.616 0 -1.237 -0.188 -1.771 -0.58 c -3.302 -2.421 -7.218 -3.7 -11.324 -3.7 c -4.107 0 -8.022 1.279 -11.323 3.699 c -1.337 0.981 -3.213 0.691 -4.193 -0.646 c -0.979 -1.336 -0.69 -3.213 0.646 -4.192 c 4.337 -3.181 9.479 -4.861 14.871 -4.861 s 10.534 1.681 14.871 4.86 c 1.337 0.98 1.626 2.857 0.646 4.193 C 59.93 59.138 59.019 59.563 58.096 59.563 z" style="stroke: none; stroke-width: 1; stroke-dasharray: none; stroke-linecap: butt; stroke-linejoin: miter; stroke-miterlimit: 10; fill: rgb(1,160,161); fill-rule: nonzero; opacity: 1;" transform=" matrix(1 0 0 1 0 0) " stroke-linecap="round" />
	<circle cx="44.995" cy="80.29499999999999" r="9.695" style="stroke: none; stroke-width: 1; stroke-dasharray: none; stroke-linecap: butt; stroke-linejoin: miter; stroke-miterlimit: 10; fill: rgb(1,160,161); fill-rule: nonzero; opacity: 1;" transform="  matrix(1 0 0 1 0 0) "/>
</g>
</svg>