<svg width="120" height="120" viewBox="0 0 120 120" fill="none" xmlns="http://www.w3.org/2000/svg">
<path d="M105.428 26.4387L104.516 26.2374V23.2258C104.516 11.4677 94.9839 1.93549 83.2258 1.93549C73.6413 1.93549 65.549 8.27419 62.88 16.9839L60.7277 16.5058C58.3684 15.9813 56.129 17.7774 56.129 20.1948C56.129 21.9658 57.36 23.4987 59.0884 23.8839L92.8955 31.3974L96.9871 32.3071L103.788 33.8187C106.148 34.3413 108.387 32.5452 108.387 30.1277C108.387 28.3568 107.156 26.8239 105.428 26.4387Z" fill="#A8DCEC"/>
<path d="M17.4194 56.129L21.1897 48.3871L17.4194 40.6452L26.0787 40.0065L30.9678 32.9032V1.93549H11.6129V118.065H30.9678V63.871L26.0787 56.7677L17.4194 56.129Z" fill="#F7DEA6"/>
<path d="M104.315 35.8103C104.417 35.8161 104.52 35.8432 104.621 35.8432C105.904 35.8432 107.158 35.4077 108.184 34.5852C109.544 33.4974 110.323 31.8716 110.323 30.1277C110.323 27.6426 108.755 25.5194 106.452 24.7374V23.2258C106.452 10.4187 96.0329 0 83.2258 0C73.6509 0 65.0787 5.95355 61.62 14.7213L61.1458 14.6168C59.4464 14.2374 57.6909 14.6458 56.3322 15.7374C54.9716 16.8252 54.1935 18.451 54.1935 20.1948C54.1935 22.68 55.7613 24.8032 58.0645 25.5852V32.9032C58.0645 42.7839 64.2755 51.2206 72.9909 54.569C71.3032 55.3645 69.6967 56.3419 68.2296 57.5168L65.1271 60H51.6096L50.6264 55.4052C51.6096 54.7026 52.258 53.5568 52.258 52.2581H60.7567L59.8006 49.411C58.5967 45.7935 55.4709 43.2368 51.7838 42.6968C51.1277 41.4813 49.86 40.6452 48.3871 40.6452H40.6451C39.2187 40.6452 37.9838 41.429 37.3122 42.5806H32.9032C30.7684 42.5806 29.0322 44.3168 29.0322 46.4516V50.3226C29.0322 52.4574 30.7684 54.1935 32.9032 54.1935H37.3122C37.7148 54.8826 38.3148 55.4381 39.0445 55.7729L40.74 62.5568C39.4916 63.9329 38.7096 65.7406 38.7096 67.7419C38.7096 71.0961 40.8658 73.9297 43.8542 75.0039L45.8922 83.16C46.198 84.389 46.9316 85.409 47.9013 86.1077C46.9606 87.9 46.4516 89.88 46.4516 91.9355V108.927L44.2761 109.653C42.1045 110.377 40.6451 112.401 40.6451 114.691C40.6451 117.619 43.0258 120 45.9542 120H69.6774V119.923C70.2716 119.865 70.8638 119.777 71.4464 119.644L93.9716 114.445L95.9768 117.455C97.0393 119.048 98.818 120 100.734 120C103.887 120 106.452 117.435 106.452 114.283V102.581C106.452 99.3793 103.846 96.7742 100.645 96.7742H94.7884C96.0174 95.1523 96.7742 93.1548 96.7742 90.9677V60H96.7451C96.6387 57.0581 94.949 54.5419 92.4987 53.2316C98.849 49.7187 103.37 43.3161 104.315 35.8103ZM83.2258 3.87097C93.898 3.87097 102.581 12.5535 102.581 23.2258V23.8239L65.458 15.5748C68.4793 8.58 75.4548 3.87097 83.2258 3.87097ZM61.9355 32.9032V26.4987L77.4193 29.94V36.7742H81.2903C82.3587 36.7742 83.2258 37.6413 83.2258 38.7097C83.2258 39.7781 82.3587 40.6452 81.2903 40.6452H77.4193V51.8671C68.5955 50.069 61.9355 42.2497 61.9355 32.9032ZM71.8858 59.6342C73.38 58.6161 75.0019 57.8071 76.7051 57.2245L71.8858 59.6342ZM44.1851 60.3774L43.1226 56.129H46.8232L47.6516 60H46.4516C45.658 60 44.9071 60.1548 44.1851 60.3774ZM52.258 48.3871V46.7981C53.2219 47.1213 54.1006 47.6497 54.7916 48.3871H52.258ZM40.6451 44.5161H48.3871L48.3909 52.2581H40.6451V44.5161ZM32.9032 46.4516H36.7742V50.3226H32.9032V46.4516ZM46.4516 63.871H70.4167L74.2877 71.6129H46.4516C44.3167 71.6129 42.5806 69.8768 42.5806 67.7419C42.5806 65.6071 44.3167 63.871 46.4516 63.871ZM56.3187 98.6284C54.929 100.848 54.1935 103.411 54.1935 106.032C54.1935 106.835 54.2767 107.619 54.4084 108.387H50.3226V91.9355C50.3226 90.1606 50.8587 88.4555 51.8593 87.0039C53.6071 86.6864 55.0548 85.5019 55.7245 83.9032C58.3606 82.831 61.4806 83.1387 63.869 84.7219V86.5432L56.3187 98.6284ZM55.8561 79.8116L54.929 75.4839H63.8709V80.3574C61.3432 79.3316 58.4942 79.1516 55.8561 79.8116ZM50.969 75.4839L52.2271 81.3503C52.2484 81.4452 52.258 81.5419 52.258 81.6368V81.9019C52.258 82.6316 51.6638 83.2258 50.9322 83.2258C50.3245 83.2258 49.7942 82.8116 49.6451 82.2213L47.9632 75.4839H50.969ZM67.7419 75.4839H77.9206L92.6438 67.3026C92.7348 67.2523 92.8142 67.1884 92.9032 67.1342V85.1613H67.7419V75.4839ZM45.9542 116.129C45.1606 116.129 44.5161 115.485 44.5161 114.691C44.5161 114.072 44.9109 113.522 45.5013 113.325L48.7006 112.258H55.68C56.4096 113.712 57.3832 115.018 58.5561 116.129H45.9542ZM102.581 102.581V114.283C102.581 115.301 101.752 116.129 100.734 116.129C100.115 116.129 99.5419 115.823 99.1974 115.306L96.7742 111.674V100.645H100.645C101.714 100.645 102.581 101.512 102.581 102.581ZM79.3548 100.645H87.0967H92.9032V110.717L70.5774 115.87C69.8322 116.042 69.0696 116.129 68.1619 116.129C62.5935 116.129 58.0645 111.6 58.0645 106.032C58.0645 104.137 58.5948 102.285 59.5993 100.68L66.8787 89.0323H92.9032V90.9677C92.9032 94.169 90.298 96.7742 87.0967 96.7742H79.3548H71.6129V100.645H79.3548ZM90.7664 63.9194L78.2477 70.8735L74.2103 62.7987L86.6709 56.5664C87.2496 56.28 87.8942 56.129 88.5348 56.129H88.7458C91.0393 56.129 92.9032 57.9929 92.9032 60.2845C92.9032 61.7961 92.0845 63.1858 90.7664 63.9194ZM81.2903 52.2581V44.5161C84.4916 44.5161 87.0967 41.911 87.0967 38.7097C87.0967 35.5084 84.4916 32.9032 81.2903 32.9032V30.8013L92.4755 33.2864L93.3155 29.5065L59.5084 21.9929C58.6703 21.809 58.0645 21.0523 58.0645 20.1948C58.0645 19.6335 58.3161 19.1071 58.7535 18.7568C59.1909 18.4065 59.758 18.2729 60.3077 18.3968L105.008 28.3297C105.846 28.5135 106.452 29.2703 106.452 30.1277C106.452 30.689 106.2 31.2155 105.763 31.5658C105.325 31.9161 104.756 32.0477 104.208 31.9258L97.4071 30.4161L96.5671 34.1961L100.514 35.0729C99.4316 44.7252 91.2271 52.2581 81.2903 52.2581Z" fill="#333333"/>
<path d="M34.2638 55.6703L30.9677 60.4568L27.1451 54.9058L20.4096 54.4084L23.3438 48.3871L20.4096 42.3658L27.1451 41.8684L30.9677 36.3174L34.2638 41.1058L37.4496 38.909L32.9032 32.3013V0H9.67737V120H32.9032V64.4729L37.4516 57.8671L34.2638 55.6703ZM13.5483 116.129V3.87097H29.0322V32.3013L25.0103 38.1445L14.429 38.9245L19.0374 48.3871L14.429 57.8497L25.0103 58.6297L29.0322 64.4729V116.129H13.5483Z" fill="#333333"/>
<path d="M69.6774 30.9677H65.8064V34.8387H69.6774V30.9677Z" fill="#333333"/>
<path d="M21.2903 7.74194H17.4193V23.2258H21.2903V7.74194Z" fill="#333333"/>
<path d="M21.2903 27.0968H17.4193V30.9678H21.2903V27.0968Z" fill="#333333"/>
<path d="M25.1613 65.8065H21.2903V81.2903H25.1613V65.8065Z" fill="#333333"/>
<path d="M21.2903 100.645H17.4193V112.258H21.2903V100.645Z" fill="#333333"/>
</svg>
