<svg width="120" height="120" viewBox="0 0 120 120" fill="none" xmlns="http://www.w3.org/2000/svg">
<path d="M25.1613 46.4516C25.1613 58.2101 34.6931 67.742 46.4516 67.742V25.1613C34.6931 25.1613 25.1613 34.6932 25.1613 46.4516Z" fill="#A8DCEC"/>
<path d="M112.258 65.8065H69.6774V46.4517H112.258V65.8065Z" fill="#F9BDBD"/>
<path d="M104.516 32.9033H73.5483V25.1613H104.516V32.9033Z" fill="#F7DEA6"/>
<path d="M114.194 38.7097H112.258V15.4839H19.3548V0H9.67742C4.34161 0 0 4.34161 0 9.67742V83.2258C0 88.5616 4.34161 92.9032 9.67742 92.9032H61.9355V114.194C61.9355 117.394 64.541 120 67.7419 120H114.194C117.394 120 120 117.394 120 114.194V44.5161C120 41.3152 117.394 38.7097 114.194 38.7097ZM3.87097 9.67742C3.87097 6.4765 6.4765 3.87097 9.67742 3.87097H15.4839V73.5484H9.67742C7.5 73.5484 5.48891 74.2723 3.87097 75.4876V9.67742ZM9.67742 89.0323C6.4765 89.0323 3.87097 86.4267 3.87097 83.2258C3.87097 80.0249 6.4765 77.4193 9.67742 77.4193H19.3548V19.3548H108.387V38.7097H68.342C65.092 29.5218 56.3114 23.2258 46.4516 23.2258C33.6442 23.2258 23.2258 33.6442 23.2258 46.4516C23.2258 59.2591 33.6442 69.6774 46.4516 69.6774C52.2193 69.6774 57.7158 67.5113 61.9355 63.7377V89.0323H9.67742ZM61.9355 44.5161H48.3871V27.2055C55.682 27.9426 62.0035 32.787 64.5798 39.6585C62.9902 40.6952 61.9355 42.4824 61.9355 44.5161ZM44.5161 65.7082C34.7499 64.7338 27.0968 56.4693 27.0968 46.4516C27.0968 36.434 34.7499 28.1694 44.5161 27.1951V65.7082ZM48.3871 48.3871H61.9355V58.022C58.676 62.3749 53.7522 65.1468 48.3871 65.6883V48.3871ZM116.129 114.194C116.129 115.26 115.26 116.129 114.194 116.129H67.7419C66.6759 116.129 65.8064 115.26 65.8064 114.194V44.5161C65.8064 43.4501 66.6759 42.5806 67.7419 42.5806H114.194C115.26 42.5806 116.129 43.4501 116.129 44.5161V114.194Z" fill="black"/>
<path d="M100.645 112.258H112.258V100.645H100.645V112.258ZM104.516 104.516H108.387V108.387H104.516V104.516Z" fill="black"/>
<path d="M85.1613 112.258H96.7742V100.645H85.1613V112.258ZM89.0322 104.516H92.9032V108.387H89.0322V104.516Z" fill="black"/>
<path d="M69.6774 112.258H81.2903V100.645H69.6774V112.258ZM73.5483 104.516H77.4193V108.387H73.5483V104.516Z" fill="black"/>
<path d="M100.645 96.7742H112.258V85.1613H100.645V96.7742ZM104.516 89.0322H108.387V92.9032H104.516V89.0322Z" fill="black"/>
<path d="M85.1613 96.7742H96.7742V85.1613H85.1613V96.7742ZM89.0322 89.0322H92.9032V92.9032H89.0322V89.0322Z" fill="black"/>
<path d="M69.6774 96.7742H81.2903V85.1613H69.6774V96.7742ZM73.5483 89.0322H77.4193V92.9032H73.5483V89.0322Z" fill="black"/>
<path d="M100.645 81.2903H112.258V69.6774H100.645V81.2903ZM104.516 73.5484H108.387V77.4194H104.516V73.5484Z" fill="black"/>
<path d="M85.1613 81.2903H96.7742V69.6774H85.1613V81.2903ZM89.0322 73.5484H92.9032V77.4194H89.0322V73.5484Z" fill="black"/>
<path d="M69.6774 81.2903H81.2903V69.6774H69.6774V81.2903ZM73.5483 73.5484H77.4193V77.4194H73.5483V73.5484Z" fill="black"/>
<path d="M73.5483 23.2258H104.516V27.0968H73.5483V23.2258Z" fill="black"/>
<path d="M73.5483 30.9677H104.516V34.8387H73.5483V30.9677Z" fill="black"/>
<path d="M73.5483 58.0645H108.387V61.9355H73.5483V58.0645Z" fill="black"/>
</svg>
