<svg width="192" height="33" viewBox="0 0 192 33" fill="none" xmlns="http://www.w3.org/2000/svg">
<path d="M61.04 7.896C61.152 7.576 61.328 7.336 61.568 7.176C61.824 7.016 62.104 6.936 62.408 6.936C62.792 6.936 63.12 7.056 63.392 7.296C63.68 7.536 63.824 7.856 63.824 8.256C63.824 8.4 63.784 8.608 63.704 8.88L58.544 23.16C58.416 23.48 58.2 23.728 57.896 23.904C57.608 24.08 57.288 24.168 56.936 24.168C56.584 24.168 56.256 24.08 55.952 23.904C55.648 23.728 55.44 23.48 55.328 23.16L51.344 11.856L47.288 23.16C47.16 23.48 46.944 23.728 46.64 23.904C46.352 24.08 46.032 24.168 45.68 24.168C45.328 24.168 45 24.08 44.696 23.904C44.408 23.728 44.208 23.48 44.096 23.16L38.936 8.88C38.856 8.64 38.816 8.432 38.816 8.256C38.816 7.856 38.96 7.536 39.248 7.296C39.552 7.056 39.904 6.936 40.304 6.936C40.624 6.936 40.912 7.016 41.168 7.176C41.424 7.336 41.608 7.576 41.72 7.896L45.8 19.632L50 7.968C50.112 7.648 50.296 7.4 50.552 7.224C50.808 7.032 51.088 6.936 51.392 6.936C51.696 6.936 51.976 7.032 52.232 7.224C52.504 7.4 52.696 7.656 52.808 7.992L56.888 19.776L61.04 7.896ZM79.5866 24.216C77.9386 24.216 76.5066 23.864 75.2906 23.16C74.0906 22.456 73.1626 21.448 72.5066 20.136C71.8506 18.824 71.5226 17.288 71.5226 15.528C71.5226 13.768 71.8426 12.24 72.4826 10.944C73.1386 9.632 74.0746 8.624 75.2906 7.92C76.5066 7.216 77.9386 6.864 79.5866 6.864C81.2346 6.864 82.6586 7.216 83.8586 7.92C85.0746 8.624 86.0026 9.632 86.6426 10.944C87.2986 12.24 87.6266 13.768 87.6266 15.528C87.6266 17.288 87.2986 18.824 86.6426 20.136C85.9866 21.448 85.0506 22.456 83.8346 23.16C82.6346 23.864 81.2186 24.216 79.5866 24.216ZM79.5866 21.744C81.1386 21.744 82.3466 21.208 83.2106 20.136C84.0906 19.064 84.5306 17.528 84.5306 15.528C84.5306 13.528 84.0906 12 83.2106 10.944C82.3466 9.872 81.1386 9.336 79.5866 9.336C78.0186 9.336 76.7946 9.872 75.9146 10.944C75.0506 12 74.6186 13.528 74.6186 15.528C74.6186 17.528 75.0506 19.064 75.9146 20.136C76.7946 21.208 78.0186 21.744 79.5866 21.744ZM104.29 24.216C102.642 24.216 101.21 23.864 99.9937 23.16C98.7937 22.456 97.8657 21.448 97.2097 20.136C96.5537 18.824 96.2257 17.288 96.2257 15.528C96.2257 13.768 96.5457 12.24 97.1857 10.944C97.8417 9.632 98.7777 8.624 99.9937 7.92C101.21 7.216 102.642 6.864 104.29 6.864C105.938 6.864 107.362 7.216 108.562 7.92C109.778 8.624 110.706 9.632 111.346 10.944C112.002 12.24 112.33 13.768 112.33 15.528C112.33 17.288 112.002 18.824 111.346 20.136C110.69 21.448 109.754 22.456 108.538 23.16C107.338 23.864 105.922 24.216 104.29 24.216ZM104.29 21.744C105.842 21.744 107.05 21.208 107.914 20.136C108.794 19.064 109.234 17.528 109.234 15.528C109.234 13.528 108.794 12 107.914 10.944C107.05 9.872 105.842 9.336 104.29 9.336C102.722 9.336 101.498 9.872 100.618 10.944C99.7537 12 99.3217 13.528 99.3217 15.528C99.3217 17.528 99.7537 19.064 100.618 20.136C101.498 21.208 102.722 21.744 104.29 21.744ZM122.945 24C122.481 24 122.113 23.872 121.841 23.616C121.585 23.36 121.457 23 121.457 22.536V8.544C121.457 8.08 121.585 7.72 121.841 7.464C122.113 7.208 122.481 7.08 122.945 7.08H127.697C130.465 7.08 132.609 7.824 134.129 9.312C135.665 10.784 136.433 12.856 136.433 15.528C136.433 18.216 135.665 20.304 134.129 21.792C132.609 23.264 130.465 24 127.697 24H122.945ZM127.505 21.48C131.393 21.48 133.337 19.496 133.337 15.528C133.337 11.576 131.393 9.6 127.505 9.6H124.553V21.48H127.505ZM147.087 24.144C146.623 24.144 146.247 24 145.959 23.712C145.687 23.424 145.551 23.048 145.551 22.584V8.496C145.551 8.032 145.687 7.664 145.959 7.392C146.247 7.104 146.623 6.96 147.087 6.96C147.567 6.96 147.943 7.104 148.215 7.392C148.503 7.664 148.647 8.032 148.647 8.496V22.584C148.647 23.048 148.503 23.424 148.215 23.712C147.943 24 147.567 24.144 147.087 24.144ZM159.789 24C159.325 24 158.957 23.872 158.685 23.616C158.429 23.36 158.301 23 158.301 22.536V8.544C158.301 8.08 158.429 7.72 158.685 7.464C158.957 7.208 159.325 7.08 159.789 7.08H168.453C168.917 7.08 169.277 7.184 169.533 7.392C169.789 7.6 169.917 7.896 169.917 8.28C169.917 8.68 169.789 8.992 169.533 9.216C169.277 9.424 168.917 9.528 168.453 9.528H161.325V14.184H167.973C168.437 14.184 168.797 14.288 169.053 14.496C169.309 14.704 169.437 15.008 169.437 15.408C169.437 15.792 169.309 16.088 169.053 16.296C168.797 16.504 168.437 16.608 167.973 16.608H161.325V21.552H168.453C168.917 21.552 169.277 21.664 169.533 21.888C169.789 22.096 169.917 22.4 169.917 22.8C169.917 23.184 169.789 23.48 169.533 23.688C169.277 23.896 168.917 24 168.453 24H159.789ZM184.055 24.216C182.823 24.216 181.655 24.056 180.551 23.736C179.463 23.4 178.575 22.952 177.887 22.392C177.519 22.12 177.335 21.736 177.335 21.24C177.335 20.904 177.431 20.616 177.623 20.376C177.831 20.12 178.071 19.992 178.343 19.992C178.631 19.992 178.959 20.104 179.327 20.328C180.015 20.824 180.735 21.184 181.487 21.408C182.239 21.632 183.071 21.744 183.983 21.744C185.151 21.744 186.047 21.544 186.671 21.144C187.295 20.728 187.607 20.128 187.607 19.344C187.607 18.736 187.311 18.272 186.719 17.952C186.143 17.616 185.175 17.296 183.815 16.992C182.407 16.688 181.263 16.336 180.383 15.936C179.503 15.536 178.839 15.024 178.391 14.4C177.943 13.776 177.719 12.984 177.719 12.024C177.719 11.032 177.999 10.144 178.559 9.36C179.119 8.576 179.895 7.968 180.887 7.536C181.895 7.088 183.023 6.864 184.271 6.864C186.559 6.864 188.423 7.472 189.863 8.688C190.071 8.864 190.215 9.04 190.295 9.216C190.391 9.376 190.439 9.584 190.439 9.84C190.439 10.176 190.335 10.472 190.127 10.728C189.935 10.968 189.703 11.088 189.431 11.088C189.271 11.088 189.119 11.064 188.975 11.016C188.847 10.968 188.671 10.88 188.447 10.752C187.791 10.272 187.151 9.92 186.527 9.696C185.919 9.456 185.167 9.336 184.271 9.336C183.183 9.336 182.319 9.56 181.679 10.008C181.055 10.44 180.743 11.048 180.743 11.832C180.743 12.488 181.023 12.992 181.583 13.344C182.143 13.696 183.095 14.024 184.439 14.328C185.863 14.648 187.015 15.008 187.895 15.408C188.791 15.792 189.471 16.288 189.935 16.896C190.415 17.504 190.655 18.264 190.655 19.176C190.655 20.168 190.375 21.048 189.815 21.816C189.271 22.568 188.495 23.16 187.487 23.592C186.495 24.008 185.351 24.216 184.055 24.216Z" fill="#3E3F43"/>
<path d="M0.5 3.28577H6.28571C10.4278 3.28577 13.7857 6.64363 13.7857 10.7858V14.7858H8C3.85787 14.7858 0.5 11.4279 0.5 7.28577V3.28577Z" stroke="#DAA520"/>
<path d="M16.2143 17.2142H22C26.1421 17.2142 29.5 20.5721 29.5 24.7142V28.7142H23.7143C19.5722 28.7142 16.2143 25.3564 16.2143 21.2142V17.2142Z" stroke="#DAA520"/>
<path d="M16.2143 9C16.2143 4.85787 19.5722 1.5 23.7143 1.5H27.7143V7.28571C27.7143 11.4278 24.3564 14.7857 20.2143 14.7857H16.2143V9Z" stroke="#DAA520"/>
<path d="M2.28571 24.7142C2.28571 20.5721 5.64357 17.2142 9.78571 17.2142H13.7857V22.9999C13.7857 27.1421 10.4278 30.4999 6.28571 30.4999H2.28571V24.7142Z" stroke="#DAA520"/>
</svg>
