<svg width="120" height="120" viewBox="0 0 120 120" fill="none" xmlns="http://www.w3.org/2000/svg">
<path d="M50.3226 94.8387V1.93549H27.0968V94.8387V98.7097V118.065H92.9033V94.8387H50.3226Z" fill="#F7DEA6"/>
<path d="M52.258 92.9032V0H25.1613V120H94.8387V92.9032H52.258ZM48.3871 3.87097V94.0374L34.7013 107.723L37.438 110.46L51.1238 96.7742H90.9677V104.516H52.258V116.129H31.769L34.2716 113.626L31.5348 110.89L29.0322 113.392V98.7097H42.5806V94.8387H29.0322V90.9677H34.8387V87.0968H29.0322V83.2258H42.5806V79.3548H29.0322V75.4839H34.8387V71.6129H29.0322V67.7419H42.5806V63.871H29.0322V60H34.8387V56.129H29.0322V52.2581H42.5806V48.3871H29.0322V44.5161H34.8387V40.6452H29.0322V36.7742H42.5806V32.9032H29.0322V29.0323H34.8387V25.1613H29.0322V3.87097H48.3871ZM63.8709 108.387H67.7419V116.129H63.8709V108.387ZM60 116.129H56.129V108.387H60V116.129ZM71.6129 108.387H75.4838V116.129H71.6129V108.387ZM79.3548 108.387H83.2258V116.129H79.3548V108.387ZM87.0967 116.129V108.387H90.9677V116.129H87.0967Z" fill="#333333"/>
<path d="M38.7097 19.3548C41.9109 19.3548 44.5161 16.7497 44.5161 13.5484C44.5161 10.3471 41.9109 7.74194 38.7097 7.74194C35.5084 7.74194 32.9032 10.3471 32.9032 13.5484C32.9032 16.7497 35.5084 19.3548 38.7097 19.3548ZM38.7097 11.6129C39.778 11.6129 40.6451 12.48 40.6451 13.5484C40.6451 14.6168 39.778 15.4839 38.7097 15.4839C37.6413 15.4839 36.7742 14.6168 36.7742 13.5484C36.7742 12.48 37.6413 11.6129 38.7097 11.6129Z" fill="#333333"/>
</svg>
