<svg width="120" height="120" viewBox="0 0 120 120" fill="none" xmlns="http://www.w3.org/2000/svg">
<path d="M54.1938 21.2903H7.74207V52.2579H54.1938V21.2903Z" fill="#F9BDBD"/>
<path d="M114.193 11.6127H5.80657C2.60536 11.6127 0 14.2181 0 17.4193V89.032C0 92.2332 2.60536 94.8386 5.80657 94.8386H38.7096V104.516H29.032V108.387H90.9676V104.516H81.2903V94.8386H114.193C117.395 94.8386 120 92.2332 120 89.032V17.4193C120 14.2181 117.395 11.6127 114.193 11.6127ZM5.80657 15.4838H114.194C115.262 15.4838 116.129 16.3528 116.129 17.4193V77.4193H3.87105V17.4193C3.87105 16.3528 4.73801 15.4838 5.80657 15.4838ZM77.4193 104.516H42.5807V94.8386H77.4193V104.516ZM114.193 90.9676H5.80657C4.73801 90.9676 3.87105 90.0986 3.87105 89.032V81.2903H116.129V89.0324C116.129 90.0986 115.262 90.9676 114.193 90.9676Z" fill="#333333"/>
<path d="M67.9685 58.0644H73.5487V58.4205C71.3014 59.2216 69.6777 61.351 69.6777 63.871C69.6777 67.0722 72.283 69.6776 75.4842 69.6776C78.0042 69.6776 80.1332 68.0538 80.9348 65.8065H97.1327C97.9338 68.0538 100.063 69.6776 102.583 69.6776C105.784 69.6776 108.39 67.0722 108.39 63.871C108.39 61.351 106.766 59.222 104.519 58.4205V58.0644H110.141L112.464 34.8386H71.6128V38.7096H108.184L106.635 54.1934H71.386L67.5149 23.2258H59.9996V27.0969H64.0975L67.9685 58.0644ZM97.1302 61.9355H80.9323C80.3478 60.2963 79.0569 59.005 77.4173 58.4205V58.0644H100.643V58.4205C99.006 59.005 97.7147 60.2963 97.1302 61.9355ZM75.4838 65.8065C74.4153 65.8065 73.5483 64.9375 73.5483 63.871C73.5483 62.8045 74.4153 61.9355 75.4838 61.9355C76.5524 61.9355 77.4193 62.8045 77.4193 63.871C77.4193 64.9375 76.5524 65.8065 75.4838 65.8065ZM102.581 65.8065C101.512 65.8065 100.645 64.9375 100.645 63.871C100.645 62.8045 101.512 61.9355 102.581 61.9355C103.649 61.9355 104.516 62.8045 104.516 63.871C104.516 64.9375 103.649 65.8065 102.581 65.8065Z" fill="#333333"/>
<path d="M104.516 44.5162H73.5483V48.3873H104.516V44.5162Z" fill="#333333"/>
<path d="M54.1938 58.0645H7.74207V61.9355H54.1938V58.0645Z" fill="#333333"/>
<path d="M54.1938 67.7421H7.74207V71.6131H54.1938V67.7421Z" fill="#333333"/>
</svg>
