<?xml version="1.0" encoding="UTF-8"?>
<svg width="60px" height="47px" viewBox="0 0 60 47" version="1.1" xmlns="http://www.w3.org/2000/svg" xmlns:xlink="http://www.w3.org/1999/xlink">
    <!-- Generator: Sketch 62 (91390) - https://sketch.com -->
    <title>Page 1</title>
    <desc>Created with Sketch.</desc>
    <defs>
        <polygon id="path-1" points="60 47 60 0 6.07142207e-21 1.93887514e-14 0 47"></polygon>
    </defs>
    <g id="Page-1" stroke="none" stroke-width="1" fill="none" fill-rule="evenodd">
        <g id="768-x-1024-copy-21" transform="translate(-76.000000, -38.000000)">
            <g id="Page-1" transform="translate(76.000000, 38.000000)">
                <mask id="mask-2" fill="white">
                    <use xlink:href="#path-1"></use>
                </mask>
                <g id="Clip-2"></g>
                <path d="M4.50347836,39.9880884 C-0.228202277,38.6332769 -1.01711438,35.816324 1.13906617,34.1931879 C3.13352197,32.6901156 6.52615759,31.5640621 6.52615759,31.5640621 L20.5361792,26.5072814 L20.5361792,32.2708017 L10.4545904,35.9345687 C8.67113836,36.5849146 8.39875985,37.5022207 9.84756265,37.982931 C11.2954695,38.464096 13.9153207,38.3267502 15.7005647,37.6768591 L20.5361792,35.895457 L20.5361792,41.0518361 C20.2302014,41.1091393 19.8892803,41.1646233 19.5721027,41.2169239 C14.7346961,42.020988 9.581904,41.6858097 4.50347836,39.9880884 L4.50347836,39.9880884 Z M34.0610266,40.587953 L49.7810298,34.9035657 C51.5662738,34.2532198 51.8386523,33.3363685 50.3898495,32.8552034 C48.9410467,32.3740384 46.3202995,32.5109294 44.5359515,33.1617301 L34.0610266,36.9073588 L34.0610266,30.9469157 L34.6662624,30.7386231 C34.6662624,30.7386231 37.6924414,29.6516813 41.9483557,29.1746093 C46.2042699,28.6984469 51.4166448,29.2387343 55.5068024,30.8118438 C60.1188694,32.2912671 60.637643,34.4706082 59.4652506,35.972316 C58.2933062,37.4731143 55.4216841,38.5427742 55.4216841,38.5427742 L34.0610266,46.3319174 L34.0610266,40.587953 Z M35.8991336,3.74562872 C44.1762148,6.62852581 46.9810862,10.219072 46.9810862,18.3070105 C46.9810862,26.1893851 42.1866869,29.1777928 36.0940097,26.1930234 L36.0940097,11.5033916 C36.0940097,9.78111181 35.7831039,8.1943587 34.1882561,7.74320964 C32.9661367,7.3452707 32.208136,8.49815666 32.208136,10.2204364 L32.208136,47 L22.434765,43.8510523 L22.434765,0 C26.5912252,0.782234264 32.6444792,2.63230926 35.8991336,3.74562872 L35.8991336,3.74562872 Z M57.6638789,43.6550389 C57.6638789,43.7791959 57.6316236,43.8656055 57.5671129,43.9101747 C57.4963303,43.9588369 57.3982203,43.9833954 57.2745748,43.9833954 L56.6576912,43.9833954 L56.6576912,43.3462383 L57.31131,43.3462383 C57.4022522,43.3462383 57.4739307,43.3594272 57.5254497,43.38535 C57.6186318,43.4326479 57.6638789,43.5208767 57.6638789,43.6550389 L57.6638789,43.6550389 Z M58.106046,45.1094489 C58.0760306,45.0962601 58.054975,45.0635154 58.0406393,45.0098505 C58.0307835,44.9739223 58.0245117,44.9147999 58.0227197,44.8379409 L58.0115199,44.5473318 C58.00704,44.409986 57.9810565,44.3117519 57.9317775,44.2480817 C57.8990742,44.2039673 57.8524831,44.1698582 57.7991722,44.1371136 C57.8668188,44.09118 57.9246097,44.0375151 57.9671688,43.9720257 C58.0245117,43.8806135 58.054527,43.7660071 58.054527,43.6272969 C58.054527,43.3594272 57.9438733,43.1729643 57.7257017,43.0715468 C57.6141519,43.0210654 57.4725868,42.9946877 57.3050382,42.9946877 L56.32125,42.9946877 L56.271523,42.9946877 L56.271523,43.0456239 L56.271523,45.2040447 L56.271523,45.2531617 L56.32125,45.2531617 L56.6088602,45.2531617 L56.6576912,45.2531617 L56.6576912,45.2040447 L56.6576912,44.3281242 L57.264719,44.3281242 C57.3740288,44.3281242 57.4546671,44.3394939 57.5021542,44.3626881 C57.5818966,44.4017998 57.6235597,44.4818424 57.6284876,44.6028158 L57.6464073,44.963917 C57.6504392,45.0503266 57.6558151,45.1094489 57.6625349,45.1421936 C57.6688068,45.1763027 57.6777666,45.2040447 57.6898624,45.2272389 L57.7041981,45.2531617 L57.7333175,45.2531617 L58.0858864,45.2531617 L58.1356134,45.2531617 L58.1356134,45.2040447 L58.1356134,45.1549277 L58.1356134,45.1226378 L58.106046,45.1094489 Z M55.4593154,44.1666747 C55.4593154,43.7155257 55.6326879,43.2921186 55.9462815,42.9737675 C56.2603232,42.6549615 56.6774028,42.478504 57.1213619,42.478504 C57.5657689,42.478504 57.9828485,42.6549615 58.2964422,42.9737675 C58.6104838,43.2921186 58.7834084,43.7155257 58.7834084,44.1666747 C58.7834084,45.0962601 58.0375034,45.8530263 57.1213619,45.8530263 C56.6774028,45.8530263 56.2603232,45.6779331 55.9462815,45.359582 C55.6326879,45.040776 55.4593154,44.617369 55.4593154,44.1666747 L55.4593154,44.1666747 Z M57.1213619,46.1945716 C57.6549191,46.1945716 58.156669,45.9835502 58.5338774,45.5997097 C58.9115338,45.2172335 59.1189536,44.7074169 59.1189536,44.1666747 C59.1189536,43.6241134 58.9115338,43.1156611 58.5338774,42.7318206 C58.156669,42.3493444 57.6549191,42.1387779 57.1213619,42.1387779 C56.020648,42.1387779 55.1237701,43.0469882 55.1237701,44.1666747 C55.1237701,44.7074169 55.3316379,45.2172335 55.7088463,45.5997097 C56.0865027,45.9835502 56.5878046,46.1945716 57.1213619,46.1945716 L57.1213619,46.1945716 Z" id="Fill-1" fill="#FFFFFF" mask="url(#mask-2)"></path>
            </g>
        </g>
    </g>
</svg>