<svg xmlns="http://www.w3.org/2000/svg" xmlns:xlink="http://www.w3.org/1999/xlink" viewBox="0 0 152.46 56.6"><defs><style>.cls-1{fill:#fff;}.cls-2{fill:url(#linear-gradient);}.cls-3{fill:url(#linear-gradient-2);}.cls-4{fill:url(#linear-gradient-3);}</style><linearGradient id="linear-gradient" x1="1150.94" y1="27.87" x2="1205.35" y2="27.87" gradientTransform="translate(-785.1 -824.5) rotate(45)" gradientUnits="userSpaceOnUse"><stop offset="0" stop-color="#ef4123"/><stop offset="0.02" stop-color="#ef4123"/><stop offset="0.08" stop-color="#f04a21"/><stop offset="0.17" stop-color="#f2621c"/><stop offset="0.29" stop-color="#f68a13"/><stop offset="0.43" stop-color="#fcc106"/><stop offset="0.5" stop-color="#fd0"/><stop offset="0.57" stop-color="#fcc106"/><stop offset="0.71" stop-color="#f68a13"/><stop offset="0.83" stop-color="#f2621c"/><stop offset="0.92" stop-color="#f04a21"/><stop offset="0.98" stop-color="#ef4123"/><stop offset="1" stop-color="#ef4123"/></linearGradient><linearGradient id="linear-gradient-2" x1="1183.39" y1="18.55" x2="1168.86" y2="18.55" gradientTransform="translate(-1149.88 0.21)" gradientUnits="userSpaceOnUse"><stop offset="0.2" stop-color="#ffda00"/><stop offset="0.29" stop-color="#fdc804"/><stop offset="0.48" stop-color="#f9970d"/><stop offset="0.75" stop-color="#f14b1b"/><stop offset="0.9" stop-color="#ed1c24"/></linearGradient><linearGradient id="linear-gradient-3" x1="-6108.85" y1="-7911.6" x2="-6123.38" y2="-7911.6" gradientTransform="translate(-6085.85 -7873.81) rotate(180)" xlink:href="#linear-gradient-2"/></defs><title>Asset 1</title><g id="Layer_2" data-name="Layer 2"><g id="Logo"><path class="cls-1" d="M71.77,11.51a7.13,7.13,0,0,0-1-.26,5.83,5.83,0,0,0-1-.09,3.34,3.34,0,0,0-.62.06,1.64,1.64,0,0,0-.54.2,1.09,1.09,0,0,0-.37.37,1.07,1.07,0,0,0-.14.55,1,1,0,0,0,.1.47,1.11,1.11,0,0,0,.31.39,3.26,3.26,0,0,0,.58.36,8,8,0,0,0,.85.38c.4.16.76.32,1.09.49a4.09,4.09,0,0,1,.83.59,2.12,2.12,0,0,1,.52.74,2.68,2.68,0,0,1,.17,1,2.51,2.51,0,0,1-.26,1.16,2.3,2.3,0,0,1-.74.81,3.29,3.29,0,0,1-1.06.47,4.83,4.83,0,0,1-1.21.15,8.45,8.45,0,0,1-1.36-.12,7.23,7.23,0,0,1-1.42-.38l.31-1.24a6.34,6.34,0,0,0,1.28.41,6.52,6.52,0,0,0,1.16.13,2.3,2.3,0,0,0,1.32-.33,1.07,1.07,0,0,0,.48-1,1.19,1.19,0,0,0-.13-.53,1.56,1.56,0,0,0-.39-.43,3.61,3.61,0,0,0-.63-.38c-.26-.12-.55-.25-.88-.37a9.08,9.08,0,0,1-1-.49,3.89,3.89,0,0,1-.76-.58,2.23,2.23,0,0,1-.48-.71,2.3,2.3,0,0,1-.17-.88,2.24,2.24,0,0,1,.27-1.12,2.4,2.4,0,0,1,.72-.8,3.13,3.13,0,0,1,1-.45A4.37,4.37,0,0,1,69.7,10,8.69,8.69,0,0,1,71,10a5.71,5.71,0,0,1,1.1.27Z"/><path class="cls-1" d="M80.44,15.81a4.55,4.55,0,0,1-.23,1.48,3.13,3.13,0,0,1-.67,1.1,2.81,2.81,0,0,1-1.05.7,3.82,3.82,0,0,1-1.39.24,3.77,3.77,0,0,1-1.38-.24,2.81,2.81,0,0,1-1-.7,3.13,3.13,0,0,1-.67-1.1,4.3,4.3,0,0,1-.23-1.48A4.28,4.28,0,0,1,74,14.34a3.13,3.13,0,0,1,.67-1.1,3,3,0,0,1,1-.68,3.77,3.77,0,0,1,1.38-.24,3.83,3.83,0,0,1,1.39.23,2.91,2.91,0,0,1,1.05.69,3.13,3.13,0,0,1,.67,1.1A4.53,4.53,0,0,1,80.44,15.81Zm-1.48,0a4.08,4.08,0,0,0-.11-1,2.15,2.15,0,0,0-.34-.75,1.48,1.48,0,0,0-.58-.5,1.78,1.78,0,0,0-.83-.18,1.81,1.81,0,0,0-.83.18,1.74,1.74,0,0,0-.58.5,2.28,2.28,0,0,0-.33.76,3.54,3.54,0,0,0-.11,1,3,3,0,0,0,.46,1.74,1.61,1.61,0,0,0,1.39.68,1.63,1.63,0,0,0,1.41-.67A3,3,0,0,0,79,15.81Z"/><path class="cls-1" d="M83.27,12.47v.94h0a1.91,1.91,0,0,1,.85-.81,2.83,2.83,0,0,1,1.26-.28,2.48,2.48,0,0,1,1.82.66,2.37,2.37,0,0,1,.68,1.78v4.42H86.43V15.3a3.77,3.77,0,0,0-.07-.78,1.48,1.48,0,0,0-.23-.6,1.06,1.06,0,0,0-.44-.37,1.78,1.78,0,0,0-1.31,0,1.44,1.44,0,0,0-.54.35,1.92,1.92,0,0,0-.38.63,2.67,2.67,0,0,0-.15,1v3.71H81.83V12.47Z"/><path class="cls-1" d="M92.26,17.41h0l1.83-4.94h1.56L92,21.66H90.39L91.49,19,88.8,12.47h1.61Z"/><path class="cls-1" d="M67,23.5h1.52v9.07H67Z"/><path class="cls-1" d="M71.87,25.86v.94h0a2,2,0,0,1,.85-.81A2.77,2.77,0,0,1,74,25.71a2.5,2.5,0,0,1,1.82.66,2.37,2.37,0,0,1,.68,1.78v4.42H75V28.7a4.74,4.74,0,0,0-.07-.79,1.48,1.48,0,0,0-.23-.6,1.21,1.21,0,0,0-.44-.37,1.8,1.8,0,0,0-.71-.13,1.66,1.66,0,0,0-.61.12,1.43,1.43,0,0,0-.53.36,2,2,0,0,0-.38.62,2.67,2.67,0,0,0-.15.95v3.71H70.43V25.86Z"/><path class="cls-1" d="M77.62,25.86h1.15V24.12h1.48v1.74h1.5V27h-1.5v3.51a4.28,4.28,0,0,0,0,.55.63.63,0,0,0,.12.32.44.44,0,0,0,.25.16,2.26,2.26,0,0,0,.42,0h.36l.32,0v1.08l-.52.06-.6,0a2.81,2.81,0,0,1-1-.13,1.2,1.2,0,0,1-.56-.37,1.27,1.27,0,0,1-.27-.6,4.79,4.79,0,0,1-.06-.81V27H77.62Z"/><path class="cls-1" d="M84.1,29.64a2,2,0,0,0,.72,1.47,2.52,2.52,0,0,0,1.63.51,5.42,5.42,0,0,0,.89-.07,5,5,0,0,0,.85-.21l.2,1.08a6.26,6.26,0,0,1-2.07.31,4.49,4.49,0,0,1-1.57-.26,3.29,3.29,0,0,1-1.15-.73,3,3,0,0,1-.71-1.1,4.35,4.35,0,0,1,0-2.82,3.27,3.27,0,0,1,.65-1.12,3,3,0,0,1,1-.73,3.51,3.51,0,0,1,1.36-.26,3.41,3.41,0,0,1,1.29.23,2.53,2.53,0,0,1,.93.67,2.82,2.82,0,0,1,.57,1A4.81,4.81,0,0,1,88.89,29v.63Zm1.82-2.89a1.64,1.64,0,0,0-1.25.5,2.22,2.22,0,0,0-.57,1.32h3.42v0a1.84,1.84,0,0,0-.42-1.3A1.5,1.5,0,0,0,85.92,26.75Z"/><path class="cls-1" d="M94,26.87a2.23,2.23,0,0,0-.56-.06,1.82,1.82,0,0,0-.63.11,1.36,1.36,0,0,0-.54.38,1.75,1.75,0,0,0-.35.68,3.44,3.44,0,0,0-.13,1v3.58H90.26V25.86H91.7v.89h0a1.79,1.79,0,0,1,1.8-1h.23l.26,0Z"/><path class="cls-1" d="M98.68,28.2a1.32,1.32,0,0,0-.38-1,1.75,1.75,0,0,0-1.21-.36,4.74,4.74,0,0,0-.84.1,5.73,5.73,0,0,0-.92.27L95,26.1a7.38,7.38,0,0,1,2.15-.39,3.38,3.38,0,0,1,2.22.63,2.3,2.3,0,0,1,.76,1.86v2.85c0,.24,0,.49,0,.77a7,7,0,0,0,.09.75H99c0-.11-.06-.26-.09-.43s0-.33-.07-.48h0a2,2,0,0,1-.79.77,2.62,2.62,0,0,1-1.29.3,3.56,3.56,0,0,1-.86-.11,2.05,2.05,0,0,1-.76-.36,1.8,1.8,0,0,1-.55-.64,2,2,0,0,1-.21-.95,1.83,1.83,0,0,1,.36-1.18,2.15,2.15,0,0,1,1-.71A5,5,0,0,1,97,28.44a14.59,14.59,0,0,1,1.66-.09Zm-.28,1.12c-.35,0-.68,0-1,.05a2.88,2.88,0,0,0-.84.2A1.48,1.48,0,0,0,96,30a.92.92,0,0,0-.22.64,1,1,0,0,0,.29.77,1.16,1.16,0,0,0,.86.29,1.92,1.92,0,0,0,.79-.15,1.48,1.48,0,0,0,.56-.41,1.57,1.57,0,0,0,.32-.58,2.15,2.15,0,0,0,.1-.68v-.52Z"/><path class="cls-1" d="M106.36,27.06a2.41,2.41,0,0,0-.61-.19,3.4,3.4,0,0,0-.61-.06,2.13,2.13,0,0,0-.94.2,1.75,1.75,0,0,0-.68.51,2.21,2.21,0,0,0-.42.77,3.24,3.24,0,0,0-.14.94,3.12,3.12,0,0,0,.14.93,2.25,2.25,0,0,0,.42.76,1.86,1.86,0,0,0,.7.52,2.4,2.4,0,0,0,1,.18,4.21,4.21,0,0,0,.62-.05,2.51,2.51,0,0,0,.61-.19l.25,1.09a3.73,3.73,0,0,1-.78.2,5.29,5.29,0,0,1-.8.06,4.22,4.22,0,0,1-1.56-.27,3.09,3.09,0,0,1-1.13-.74,3.18,3.18,0,0,1-.68-1.1,4.18,4.18,0,0,1-.22-1.39,4,4,0,0,1,.24-1.42,3.26,3.26,0,0,1,.71-1.1,3.2,3.2,0,0,1,1.12-.73,4,4,0,0,1,1.51-.27,4.71,4.71,0,0,1,1.59.24Z"/><path class="cls-1" d="M107.41,25.86h1.14V24.12H110v1.74h1.51V27H110v3.51a4,4,0,0,0,0,.55.63.63,0,0,0,.12.32.45.45,0,0,0,.24.16,2.46,2.46,0,0,0,.43,0h.36l.32,0v1.08l-.52.06-.6,0a2.81,2.81,0,0,1-1-.13,1.29,1.29,0,0,1-.57-.37,1.36,1.36,0,0,1-.26-.6,4.7,4.7,0,0,1-.07-.81V27h-1.14Z"/><path class="cls-1" d="M114.41,23.29v1.35h-1.52V23.29Zm0,2.57v6.71H112.9V25.86Z"/><path class="cls-1" d="M118.88,31.29h0l1.82-5.43h1.57l-2.57,6.71H118l-2.54-6.71h1.61Z"/><path class="cls-1" d="M124.15,29.64a2,2,0,0,0,.71,1.47,2.55,2.55,0,0,0,1.64.51,5.51,5.51,0,0,0,.89-.07,5,5,0,0,0,.85-.21l.19,1.08a6.16,6.16,0,0,1-2.06.31,4.49,4.49,0,0,1-1.57-.26,3.33,3.33,0,0,1-1.16-.73,3.09,3.09,0,0,1-.7-1.1,3.8,3.8,0,0,1-.24-1.41,4.25,4.25,0,0,1,.22-1.41,3.14,3.14,0,0,1,.66-1.12,2.93,2.93,0,0,1,1-.73,3.47,3.47,0,0,1,1.36-.26,3.41,3.41,0,0,1,1.29.23,2.53,2.53,0,0,1,.93.67,2.67,2.67,0,0,1,.56,1,4.47,4.47,0,0,1,.19,1.36v.63ZM126,26.75a1.68,1.68,0,0,0-1.26.5,2.28,2.28,0,0,0-.56,1.32h3.41v0a1.84,1.84,0,0,0-.42-1.3A1.48,1.48,0,0,0,126,26.75Z"/><path class="cls-1" d="M67,36.89h5.34V38.1H68.49v2.6H72v1.22H68.49v2.84h3.94V46H67Z"/><path class="cls-1" d="M75.47,39.25v1h0a1.93,1.93,0,0,1,.86-.81,2.78,2.78,0,0,1,1.26-.29,2.5,2.5,0,0,1,1.82.66,2.38,2.38,0,0,1,.67,1.78V46H78.62V42.09a4.79,4.79,0,0,0-.06-.79,1.48,1.48,0,0,0-.24-.6,1,1,0,0,0-.44-.36,1.56,1.56,0,0,0-.7-.13,1.83,1.83,0,0,0-.61.11,1.47,1.47,0,0,0-.53.36,1.63,1.63,0,0,0-.38.63,2.63,2.63,0,0,0-.15.95V46H74V39.25Z"/><path class="cls-1" d="M81.22,39.25h1.14V37.51h1.48v1.74h1.51v1.11H83.84v3.51a4,4,0,0,0,0,.55.71.71,0,0,0,.12.33.49.49,0,0,0,.24.15,1.69,1.69,0,0,0,.43,0H85l.32,0V46l-.52.05c-.2,0-.4,0-.6,0a3.12,3.12,0,0,1-1-.12,1.3,1.3,0,0,1-.57-.38,1.27,1.27,0,0,1-.26-.6,3.84,3.84,0,0,1-.07-.8V40.36H81.22Z"/><path class="cls-1" d="M87.7,43a2,2,0,0,0,.71,1.47,2.55,2.55,0,0,0,1.64.51,5.51,5.51,0,0,0,.89-.07,3.65,3.65,0,0,0,.85-.21L92,45.82a6.43,6.43,0,0,1-2.06.3,4.49,4.49,0,0,1-1.57-.26,3.4,3.4,0,0,1-1.16-.72,3,3,0,0,1-.7-1.11,4,4,0,0,1-.24-1.41,4.3,4.3,0,0,1,.22-1.41,3.22,3.22,0,0,1,.66-1.12,3.06,3.06,0,0,1,1-.73,3.47,3.47,0,0,1,1.36-.26,3.23,3.23,0,0,1,1.29.24,2.39,2.39,0,0,1,.93.66,2.67,2.67,0,0,1,.56,1,4.54,4.54,0,0,1,.19,1.37V43Zm1.82-2.89a1.65,1.65,0,0,0-1.26.51A2.22,2.22,0,0,0,87.7,42h3.42v0a1.9,1.9,0,0,0-.43-1.31A1.51,1.51,0,0,0,89.52,40.14Z"/><path class="cls-1" d="M97.54,40.26a2.75,2.75,0,0,0-.56,0,1.57,1.57,0,0,0-.62.11,1.22,1.22,0,0,0-.54.37,1.87,1.87,0,0,0-.36.69,3.73,3.73,0,0,0-.13,1V46H93.85V39.25H95.3v.89h0a1.78,1.78,0,0,1,1.79-1h.24l.26,0Z"/><path class="cls-1" d="M98.18,39.25h1.14V37.51h1.48v1.74h1.51v1.11H100.8v3.51a4,4,0,0,0,0,.55.71.71,0,0,0,.11.33.58.58,0,0,0,.25.15,1.69,1.69,0,0,0,.43,0H102l.31,0V46l-.51.05c-.2,0-.4,0-.6,0a3.12,3.12,0,0,1-1-.12,1.25,1.25,0,0,1-.57-.38,1.27,1.27,0,0,1-.26-.6,3.84,3.84,0,0,1-.07-.8V40.36H98.18Z"/><path class="cls-1" d="M107.54,41.59a1.33,1.33,0,0,0-.39-1,1.78,1.78,0,0,0-1.21-.35,4.45,4.45,0,0,0-.83.09,5.76,5.76,0,0,0-.92.28l-.3-1.08a5.2,5.2,0,0,1,1-.27,5.58,5.58,0,0,1,1.17-.13,3.38,3.38,0,0,1,2.22.63,2.29,2.29,0,0,1,.75,1.86v2.85q0,.36,0,.78a4.06,4.06,0,0,0,.09.75h-1.31a2.15,2.15,0,0,1-.09-.43c0-.17,0-.33-.07-.49h0a1.89,1.89,0,0,1-.79.77,2.55,2.55,0,0,1-1.28.3,3.58,3.58,0,0,1-.87-.11,2.29,2.29,0,0,1-.76-.35,1.92,1.92,0,0,1-.54-.65,2,2,0,0,1-.21-.95,1.9,1.9,0,0,1,.35-1.18,2.26,2.26,0,0,1,1-.71,5.37,5.37,0,0,1,1.38-.33,14.46,14.46,0,0,1,1.66-.09Zm-.28,1.12c-.35,0-.68,0-1,0a3.32,3.32,0,0,0-.85.2,1.64,1.64,0,0,0-.58.39,1,1,0,0,0-.21.65,1,1,0,0,0,.29.77,1.15,1.15,0,0,0,.85.28,2,2,0,0,0,.8-.15,1.48,1.48,0,0,0,.56-.41,1.73,1.73,0,0,0,.32-.58,2.15,2.15,0,0,0,.1-.68v-.52Z"/><path class="cls-1" d="M112.36,36.69V38h-1.52V36.69Zm0,2.56V46h-1.48V39.25Z"/><path class="cls-1" d="M115.76,39.25v1h0a1.91,1.91,0,0,1,.85-.81,2.81,2.81,0,0,1,1.26-.29,2.48,2.48,0,0,1,1.82.66,2.39,2.39,0,0,1,.68,1.78V46h-1.48V42.09a3.87,3.87,0,0,0-.07-.79,1.48,1.48,0,0,0-.23-.6,1,1,0,0,0-.44-.36,1.62,1.62,0,0,0-.7-.13,1.88,1.88,0,0,0-.62.11,1.66,1.66,0,0,0-.53.36,1.92,1.92,0,0,0-.38.63,2.63,2.63,0,0,0-.15.95V46h-1.48V39.25Z"/><path class="cls-1" d="M123.5,39.25v1h0a1.81,1.81,0,0,1,.81-.83,2.62,2.62,0,0,1,1.2-.29,2,2,0,0,1,2,1.1h0a2.22,2.22,0,0,1,.93-.85,2.78,2.78,0,0,1,1.22-.25,3,3,0,0,1,1.09.18,2.1,2.1,0,0,1,.77.5,2,2,0,0,1,.45.77,3.12,3.12,0,0,1,.15,1V46h-1.48V42.09a4.46,4.46,0,0,0,0-.81,1.5,1.5,0,0,0-.2-.56.91.91,0,0,0-.42-.38,1.44,1.44,0,0,0-.66-.13,1.71,1.71,0,0,0-.55.09,1.34,1.34,0,0,0-.48.3,1.42,1.42,0,0,0-.34.52,2.14,2.14,0,0,0-.13.75V46h-1.48V42a5.54,5.54,0,0,0,0-.75,1.58,1.58,0,0,0-.19-.58,1,1,0,0,0-.41-.35,1.64,1.64,0,0,0-.67-.12,1.71,1.71,0,0,0-.59.11,1.39,1.39,0,0,0-.49.34,1.72,1.72,0,0,0-.34.6,2.47,2.47,0,0,0-.14.92V46h-1.48V39.25Z"/><path class="cls-1" d="M135,43a2,2,0,0,0,.71,1.47,2.55,2.55,0,0,0,1.64.51,5.51,5.51,0,0,0,.89-.07,3.65,3.65,0,0,0,.85-.21l.19,1.09a6.43,6.43,0,0,1-2.06.3,4.49,4.49,0,0,1-1.57-.26,3.31,3.31,0,0,1-1.16-.72,3,3,0,0,1-.7-1.11,3.8,3.8,0,0,1-.24-1.41,4.3,4.3,0,0,1,.22-1.41,3.22,3.22,0,0,1,.66-1.12,3.06,3.06,0,0,1,1-.73,3.47,3.47,0,0,1,1.36-.26,3.23,3.23,0,0,1,1.29.24A2.39,2.39,0,0,1,139,40a2.67,2.67,0,0,1,.56,1,4.54,4.54,0,0,1,.19,1.37V43Zm1.82-2.89a1.65,1.65,0,0,0-1.26.51A2.22,2.22,0,0,0,135,42h3.41v0a1.85,1.85,0,0,0-.42-1.31A1.51,1.51,0,0,0,136.8,40.14Z"/><path class="cls-1" d="M142.58,39.25v1h0a1.93,1.93,0,0,1,.86-.81,2.78,2.78,0,0,1,1.26-.29,2.5,2.5,0,0,1,1.82.66,2.38,2.38,0,0,1,.67,1.78V46h-1.48V42.09a4.79,4.79,0,0,0-.06-.79,1.48,1.48,0,0,0-.24-.6,1,1,0,0,0-.44-.36,1.56,1.56,0,0,0-.7-.13,1.83,1.83,0,0,0-.61.11,1.47,1.47,0,0,0-.53.36,1.78,1.78,0,0,0-.39.63,2.63,2.63,0,0,0-.15.95V46h-1.48V39.25Z"/><path class="cls-1" d="M148.33,39.25h1.14V37.51H151v1.74h1.51v1.11H151v3.51a4,4,0,0,0,0,.55.71.71,0,0,0,.11.33.58.58,0,0,0,.25.15,1.69,1.69,0,0,0,.43,0h.36l.31,0V46l-.51.05c-.2,0-.4,0-.6,0a3.12,3.12,0,0,1-1-.12,1.25,1.25,0,0,1-.57-.38,1.27,1.27,0,0,1-.26-.6,3.84,3.84,0,0,1-.07-.8V40.36h-1.14Z"/><rect class="cls-1" x="8.29" y="8.29" width="40.02" height="40.02" transform="translate(-11.72 28.3) rotate(-45)"/><rect class="cls-2" x="9.03" y="9.04" width="38.48" height="38.48" transform="translate(-11.72 28.27) rotate(-45)"/><polygon class="cls-3" points="29.76 7.75 18.74 18.76 29.76 29.77 29.76 7.75"/><polygon class="cls-4" points="26.75 48.81 37.77 37.8 26.75 26.78 26.75 48.81"/></g></g></svg>