<svg width="30" height="30" viewBox="0 0 30 30" fill="none" xmlns="http://www.w3.org/2000/svg">
<path d="M0.5 2.28571H6.28571C10.4278 2.28571 13.7857 5.64357 13.7857 9.78571V13.7857H8C3.85787 13.7857 0.5 10.4278 0.5 6.28571V2.28571Z" stroke="#897942" stroke-opacity="0.5"/>
<path d="M16.2143 16.2143H22C26.1421 16.2143 29.5 19.5722 29.5 23.7143V27.7143H23.7143C19.5722 27.7143 16.2143 24.3564 16.2143 20.2143V16.2143Z" stroke="#897942" stroke-opacity="0.5"/>
<path d="M16.2143 8C16.2143 3.85787 19.5722 0.5 23.7143 0.5H27.7143V6.28571C27.7143 10.4278 24.3564 13.7857 20.2143 13.7857H16.2143V8Z" stroke="#897942" stroke-opacity="0.5"/>
<path d="M2.28571 23.7143C2.28571 19.5722 5.64357 16.2143 9.78571 16.2143H13.7857V22C13.7857 26.1421 10.4278 29.5 6.28571 29.5H2.28571V23.7143Z" stroke="#897942" stroke-opacity="0.5"/>
</svg>
