<svg width="101" height="48" viewBox="0 0 101 48" fill="none" xmlns="http://www.w3.org/2000/svg">
<path d="M0.790039 28.79H3.79004V43.5H0.790039V28.79Z" fill="#696871"/>
<path fill-rule="evenodd" clip-rule="evenodd" d="M8.81956 33.5194C6.82446 34.3491 5.52598 36.2993 5.53003 38.46C5.51649 39.8795 6.07507 41.2446 7.07976 42.2474C8.08445 43.2502 9.4506 43.8062 10.87 43.79C13.0308 43.79 14.9786 42.4879 15.8045 40.4912C16.6304 38.4946 16.1717 36.197 14.6424 34.6705C13.1131 33.1441 10.8147 32.6897 8.81956 33.5194ZM10.8311 36.2004C12.1043 36.1785 13.1571 37.187 13.19 38.46C13.2238 39.0905 12.9923 39.7063 12.5516 40.1584C12.1109 40.6105 11.5011 40.8577 10.87 40.84C9.59663 40.8396 8.56158 39.8129 8.55088 38.5395C8.54019 37.2662 9.55785 36.2222 10.8311 36.2004Z" fill="#696871"/>
<path fill-rule="evenodd" clip-rule="evenodd" d="M28.27 43V33.42L25.32 33.45V34.45C24.6016 33.5739 23.5118 33.0883 22.38 33.14C19.5523 33.14 17.26 35.4323 17.26 38.26C17.26 41.0877 19.5523 43.38 22.38 43.38C23.5127 43.4366 24.6046 42.95 25.32 42.07V43C25.3781 43.618 25.146 44.228 24.6916 44.651C24.2373 45.074 23.6123 45.262 23 45.16C22.0606 45.2377 21.1689 44.7344 20.75 43.89L18.17 45.38C19.1785 47.0215 21.0188 47.9629 22.94 47.82C25.62 47.82 28.27 46.39 28.27 43ZM23.8851 35.9357C24.7929 36.3451 25.3608 37.265 25.32 38.26C25.3386 38.9038 25.0839 39.5254 24.6191 39.9712C24.1542 40.4171 23.5225 40.6454 22.88 40.6C21.8842 40.5991 20.9888 39.9933 20.6178 39.0692C20.2467 38.1451 20.4745 37.0882 21.1932 36.3989C21.9119 35.7097 22.9774 35.5263 23.8851 35.9357Z" fill="#696871"/>
<path fill-rule="evenodd" clip-rule="evenodd" d="M33.2896 33.5194C31.2945 34.3491 29.996 36.2993 30.0001 38.46C29.9865 39.8795 30.5451 41.2446 31.5498 42.2474C32.5545 43.2502 33.9206 43.8062 35.3401 43.79C37.5008 43.79 39.4486 42.4879 40.2745 40.4912C41.1005 38.4946 40.6418 36.197 39.1125 34.6705C37.5832 33.1441 35.2847 32.6897 33.2896 33.5194ZM35.3011 36.2004C36.5743 36.1785 37.6271 37.187 37.6601 38.46H37.6401C37.6735 39.0869 37.4447 39.6995 37.0084 40.1509C36.5721 40.6024 35.9677 40.852 35.3401 40.84C34.0667 40.8396 33.0316 39.8129 33.0209 38.5395C33.0102 37.2662 34.0279 36.2222 35.3011 36.2004Z" fill="#696871"/>
<path fill-rule="evenodd" clip-rule="evenodd" d="M43.8901 28.9C42.8849 28.9 42.0701 29.7148 42.0701 30.72C42.0755 31.7228 42.8872 32.5345 43.8901 32.54C44.8952 32.54 45.7101 31.7251 45.7101 30.72C45.7101 29.7148 44.8952 28.9 43.8901 28.9ZM45.3801 33.42H42.3801V43.5H45.3801V33.42Z" fill="#696871"/>
<path fill-rule="evenodd" clip-rule="evenodd" d="M57.1641 42.1258C58.067 41.1252 58.5335 39.8057 58.46 38.46C58.5307 37.1159 58.063 35.799 57.1604 34.8006C56.2577 33.8022 54.9944 33.2046 53.65 33.14C52.5172 33.0856 51.4186 33.536 50.65 34.37V33.42H47.65V47.56H50.65V42.56C51.4186 43.3939 52.5172 43.8444 53.65 43.79C54.9963 43.7254 56.2611 43.1264 57.1641 42.1258ZM53.0405 36.1208C54.3502 36.1098 55.4269 37.1507 55.46 38.46H55.44C55.4876 39.1223 55.2465 39.7728 54.7789 40.2443C54.3113 40.7158 53.6627 40.9621 53 40.92C51.6908 40.8868 50.6498 39.8101 50.6609 38.5005C50.6719 37.1908 51.7309 36.1319 53.0405 36.1208Z" fill="#696871"/>
<path d="M67.8 40.48C67.8 42.8 65.8 43.79 63.6 43.79C61.802 43.9492 60.0879 42.9991 59.27 41.39L61.89 39.9C62.1092 40.6495 62.8211 41.1449 63.6 41.09C64.33 41.09 64.69 40.86 64.69 40.46C64.69 39.35 59.69 39.94 59.69 36.46C59.69 34.26 61.55 33.15 63.69 33.15C65.2981 33.1011 66.8064 33.928 67.63 35.31L65 36.69C64.7626 36.1504 64.2295 35.8015 63.64 35.8C63.12 35.8 62.8 36 62.8 36.37C62.84 37.52 67.8 36.75 67.8 40.48Z" fill="#696871"/>
<path d="M78.8401 33.42V43.5H75.8401V42.56C75.1322 43.4072 74.0616 43.8644 72.9601 43.79C70.9601 43.79 69.1901 42.34 69.1901 39.61V33.42H72.1901V39.17C72.1366 39.6662 72.3093 40.1601 72.6603 40.515C73.0113 40.8698 73.5033 41.0479 74.0001 41C75.1001 41 75.8701 40.36 75.8701 38.93V33.42H78.8401Z" fill="#696871"/>
<path d="M96.18 37.32V43.5H93.18V37.58C93.18 36.58 92.69 35.92 91.73 35.92C90.77 35.92 90.15 36.63 90.15 37.82V43.5H87.15V37.58C87.15 36.58 86.67 35.92 85.7 35.92C84.73 35.92 84.13 36.63 84.13 37.82V43.5H81.13V33.42H84.13V34.35C84.767 33.5155 85.7832 33.0601 86.83 33.14C87.8825 33.0889 88.8847 33.5938 89.47 34.47C90.1503 33.5545 91.2528 33.0523 92.39 33.14C94.67 33.14 96.18 34.8 96.18 37.32Z" fill="#696871"/>
<path d="M98.7401 33.36C99.9772 33.36 100.98 32.3571 100.98 31.12C100.98 29.8829 99.9772 28.88 98.7401 28.88C97.5029 28.88 96.5001 29.8829 96.5001 31.12C96.5001 32.3571 97.5029 33.36 98.7401 33.36Z" fill="#696871"/>
<path d="M34.7401 21.16C40.5335 21.16 45.2301 16.4635 45.2301 10.67C45.2301 4.87653 40.5335 0.179993 34.7401 0.179993C28.9466 0.179993 24.2501 4.87653 24.2501 10.67C24.2501 16.4635 28.9466 21.16 34.7401 21.16Z" fill="#696871"/>
<path d="M58.19 21.16C63.9835 21.16 68.68 16.4635 68.68 10.67C68.68 4.87653 63.9835 0.179993 58.19 0.179993C52.3965 0.179993 47.7 4.87653 47.7 10.67C47.7 16.4635 52.3965 21.16 58.19 21.16Z" fill="#696871"/>
<rect x="0.810059" y="0.179993" width="20.97" height="20.97" fill="#696871"/>
</svg>
