<svg width="124" height="30" viewBox="0 0 124 30" fill="none" xmlns="http://www.w3.org/2000/svg">
<path d="M26.7301 10.71C27.0901 10.71 27.2101 10.84 27.2101 11.19V19.11H31.2801C31.6301 19.11 31.7601 19.24 31.7601 19.59V20.29C31.7601 20.64 31.6301 20.77 31.2801 20.77H25.9201C25.5701 20.77 25.4301 20.64 25.4301 20.29V11.19C25.4301 10.84 25.5701 10.71 25.9201 10.71H26.7301Z" fill="#696871"/>
<path fill-rule="evenodd" clip-rule="evenodd" d="M39.31 10.5C36.77 10.5 35.31 11.89 35.31 14.2V17.28C35.31 19.59 36.78 20.98 39.31 20.98C41.84 20.98 43.31 19.59 43.31 17.28V14.2C43.31 11.89 41.85 10.5 39.31 10.5ZM39.36 12.2C40.82 12.2 41.63 12.9 41.63 14.2V17.3C41.63 18.58 40.82 19.3 39.36 19.3C37.9 19.3 37.1 18.61 37.1 17.3V14.2C37.1 12.91 37.9 12.2 39.36 12.2Z" fill="#696871"/>
<path d="M55.22 15.26C55.61 15.26 55.7 15.39 55.7 15.74V17.64C55.7215 18.5465 55.3318 19.414 54.64 20C53.7917 20.6755 52.7221 21.0107 51.64 20.94C49.05 20.94 47.64 19.55 47.64 17.24V14.14C47.64 11.86 49.1 10.46 51.64 10.46C53.64 10.46 54.94 11.25 55.49 12.83C55.5524 12.9504 55.5544 13.0931 55.4953 13.2152C55.4363 13.3372 55.3231 13.4242 55.19 13.45L54.41 13.72C54.07 13.84 53.93 13.77 53.81 13.42C53.4692 12.5413 52.5756 12.0059 51.64 12.12C50.17 12.12 49.37 12.83 49.37 14.12V17.3C49.37 18.61 50.18 19.3 51.64 19.3C53.1 19.3 54 18.63 54 17.65V16.91H51.83C51.47 16.91 51.34 16.77 51.34 16.42V15.74C51.34 15.39 51.47 15.26 51.83 15.26H55.22Z" fill="#696871"/>
<path fill-rule="evenodd" clip-rule="evenodd" d="M63.83 10.5C61.29 10.5 59.83 11.89 59.83 14.2V17.28C59.83 19.59 61.3 20.98 63.83 20.98C66.36 20.98 67.83 19.59 67.83 17.28V14.2C67.83 11.89 66.37 10.5 63.83 10.5ZM63.88 12.2C65.33 12.2 66.14 12.9 66.14 14.2V17.3C66.14 18.58 65.34 19.3 63.88 19.3C62.42 19.3 61.61 18.61 61.61 17.3V14.2C61.61 12.91 62.43 12.2 63.88 12.2Z" fill="#696871"/>
<path d="M72.54 11C72.54 10.78 72.61 10.71 72.83 10.71H73.29C73.51 10.71 73.56 10.78 73.56 11V20.48C73.56 20.7 73.56 20.77 73.29 20.77H72.83C72.61 20.77 72.54 20.7 72.54 20.48V11Z" fill="#696871"/>
<path fill-rule="evenodd" clip-rule="evenodd" d="M85.81 13.85C85.81 12.1158 84.4042 10.71 82.67 10.71H78.94C78.73 10.71 78.65 10.78 78.65 11V20.48C78.65 20.7 78.73 20.77 78.94 20.77H79.41C79.62 20.77 79.67 20.7 79.67 20.48V16.99H82.67C84.4042 16.99 85.81 15.5842 85.81 13.85ZM84.468 14.91C84.0785 15.5845 83.3589 16 82.58 16H79.58V11.64H82.58C83.3589 11.64 84.0785 12.0555 84.468 12.73C84.8574 13.4045 84.8574 14.2355 84.468 14.91Z" fill="#696871"/>
<path d="M93.62 10.51C95.2054 10.335 96.7178 11.2213 97.34 12.69C97.42 12.85 97.34 12.98 97.18 13.06L96.74 13.26C96.56 13.33 96.49 13.32 96.38 13.13C95.9151 12.0408 94.7989 11.3775 93.62 11.49C91.93 11.49 91.01 12.16 91.01 13.36C90.9897 14.1183 91.5317 14.7755 92.28 14.9C92.8178 15.0754 93.3755 15.1829 93.94 15.22C94.6233 15.2565 95.2974 15.3946 95.94 15.63C96.9554 15.9513 97.6064 16.9404 97.5 18C97.5 19.87 96.14 21 93.64 21C91.9503 21.1933 90.3549 20.1811 89.81 18.57C89.7743 18.4978 89.7726 18.4135 89.8055 18.34C89.8384 18.2665 89.9024 18.2115 89.98 18.19L90.42 18.03C90.4901 18.0014 90.569 18.0035 90.6374 18.0358C90.7059 18.0681 90.7576 18.1277 90.78 18.2C91.239 19.3593 92.3962 20.0876 93.64 20C95.53 20 96.46 19.34 96.46 18C96.4963 17.2726 96.0015 16.6255 95.29 16.47C94.7726 16.3157 94.239 16.2217 93.7 16.19L92.62 16.05C92.282 15.9783 91.9482 15.8881 91.62 15.78C91.2958 15.6821 90.9936 15.5225 90.73 15.31C90.193 14.8237 89.8999 14.1239 89.93 13.4C90 11.65 91.31 10.51 93.62 10.51Z" fill="#696871"/>
<path d="M102.89 17.35C102.978 18.818 104.194 19.9634 105.665 19.9634C107.136 19.9634 108.352 18.818 108.44 17.35V11C108.44 10.78 108.51 10.71 108.73 10.71H109.19C109.41 10.71 109.48 10.78 109.48 11V17.34C109.48 19.61 108.14 20.98 105.67 20.98C103.2 20.98 101.86 19.61 101.86 17.34V11C101.86 10.78 101.93 10.71 102.14 10.71H102.61C102.82 10.71 102.89 10.78 102.89 11V17.35Z" fill="#696871"/>
<path d="M123.28 10.71C123.5 10.71 123.57 10.78 123.57 11V20.48C123.57 20.7 123.5 20.77 123.28 20.77H122.86C122.65 20.77 122.58 20.7 122.58 20.48V14.71C122.58 13.8704 122.637 13.0318 122.75 12.2H122.69C122.378 12.9607 122.013 13.6991 121.6 14.41L119.45 18.2C119.396 18.3346 119.265 18.4221 119.12 18.42H118.84C118.693 18.4207 118.56 18.3343 118.5 18.2L116.32 14.37C115.933 13.6692 115.599 12.9405 115.32 12.19H115.26C115.362 13.0295 115.416 13.8743 115.42 14.72V20.48C115.42 20.7 115.35 20.77 115.13 20.77H114.74C114.52 20.77 114.45 20.7 114.45 20.48V11C114.45 10.78 114.52 10.71 114.74 10.71H115.1C115.269 10.6943 115.429 10.7864 115.5 10.94L119 17.16L122.48 11C122.59 10.79 122.65 10.76 122.87 10.76L123.28 10.71Z" fill="#696871"/>
<path fill-rule="evenodd" clip-rule="evenodd" d="M2.31002 1.69001V22C2.31002 22.2493 2.21099 22.4884 2.0347 22.6647C1.85842 22.841 1.61933 22.94 1.37002 22.94H1.15002C0.630874 22.94 0.210022 22.5192 0.210022 22V1.69001C0.215504 1.17477 0.634755 0.759981 1.15002 0.76001H1.37002C1.88529 0.759981 2.30454 1.17477 2.31002 1.69001ZM13.8404 14.5646C14.0389 14.3756 14.3063 14.2763 14.58 14.29L14.53 14.31C14.821 14.2803 15.1104 14.3795 15.322 14.5815C15.5336 14.7835 15.6462 15.0679 15.63 15.36V20.86C15.63 21.4399 15.1599 21.91 14.58 21.91C14.0001 21.91 13.53 21.4399 13.53 20.86V15.29C13.5297 15.0159 13.6419 14.7537 13.8404 14.5646ZM16.84 17.46C16.84 16.9077 17.2877 16.46 17.84 16.46C18.1294 16.4334 18.416 16.534 18.6253 16.7356C18.8345 16.9372 18.9458 17.2199 18.93 17.51V18.72C18.93 19.2971 18.4622 19.765 17.885 19.765C17.3079 19.765 16.84 19.2971 16.84 18.72V17.46ZM8.94002 25.78V18.55C8.62731 18.7877 8.24266 18.9112 7.85002 18.9C7.48985 18.8911 7.14098 18.7725 6.85002 18.56V25.78C6.85002 26.3571 7.31788 26.825 7.89502 26.825C8.47216 26.825 8.94002 26.3571 8.94002 25.78ZM4.58002 21.29C4.22019 21.2792 3.87186 21.1608 3.58002 20.95V28.2C3.58002 28.7799 4.05012 29.25 4.63002 29.25C5.20992 29.25 5.68002 28.7799 5.68002 28.2V21C5.35347 21.2111 4.96819 21.3127 4.58002 21.29ZM11.26 16.43C10.8834 16.4274 10.5167 16.3087 10.21 16.09V23.36C10.21 23.9399 10.6801 24.41 11.26 24.41C11.8399 24.41 12.31 23.9399 12.31 23.36V16.1C11.9928 16.3363 11.6055 16.4595 11.21 16.45L11.26 16.43ZM4.69002 20.52H4.47002C3.95087 20.52 3.53002 20.0992 3.53002 19.58V4.11001C3.5355 3.59477 3.95475 3.17998 4.47002 3.18001H4.69002C5.20529 3.17998 5.62454 3.59477 5.63002 4.11001V19.6C5.63002 20.1192 5.20917 20.54 4.69002 20.54V20.52ZM7.77002 18.14H8.00002C8.51365 18.14 8.93002 17.7236 8.93002 17.21V6.51001C8.93005 5.99474 8.51526 5.57549 8.00002 5.57001H7.77002C7.52163 5.57 7.28355 5.66935 7.10885 5.84593C6.93415 6.0225 6.83735 6.26163 6.84002 6.51001V17.21C6.84002 17.7236 7.2564 18.14 7.77002 18.14ZM11.31 15.69H11.1C10.5848 15.69 10.1655 15.2752 10.16 14.76V9.00001C10.1434 8.74048 10.2351 8.48568 10.4132 8.29619C10.5913 8.10671 10.84 7.99948 11.1 8.00001H11.32C11.8392 8.00001 12.26 8.42086 12.26 8.94001V14.74C12.2627 14.991 12.1648 15.2327 11.9883 15.4112C11.8117 15.5896 11.5711 15.69 11.32 15.69H11.31ZM14.41 13.54H14.63H14.64C15.1553 13.5345 15.5701 13.1153 15.57 12.6V11.11C15.5645 10.5948 15.1453 10.18 14.63 10.18H14.41C13.8948 10.18 13.4755 10.5948 13.47 11.11V12.6C13.47 13.1192 13.8909 13.54 14.41 13.54Z" fill="#696871"/>
</svg>
