<svg width="120" height="28" viewBox="0 0 120 28" fill="none" xmlns="http://www.w3.org/2000/svg">
<path fill-rule="evenodd" clip-rule="evenodd" d="M71.3496 7.38154C70.7831 7.6326 70.4239 8.20058 70.44 8.82004V8.84004C70.4362 9.24695 70.6025 9.63697 70.8987 9.91604C71.1948 10.1951 71.594 10.3379 72 10.31C72.6195 10.2977 73.1704 9.91285 73.3952 9.3354C73.62 8.75795 73.4743 8.10193 73.0262 7.67393C72.5781 7.24593 71.9161 7.13048 71.3496 7.38154ZM37.87 8.07004H34.87V20.2H37.87V8.07004ZM43.74 10.83C40.9 10.83 39.06 12.62 39.06 15.62C39.06 18.67 40.86 20.42 43.74 20.42C46.62 20.42 48.42 18.62 48.42 15.62C48.42 12.62 46.58 10.83 43.74 10.83ZM45.41 15.62C45.41 13.97 44.76 13 43.74 13C42.72 13 42.08 14 42.08 15.62C42.08 17.24 42.71 18.22 43.74 18.22C44.77 18.22 45.41 17.3 45.41 15.63V15.62ZM52.43 20.79H49.55V20.8C49.72 22.46 51.37 23.65 54.02 23.65C56.87 23.65 58.8 22.29 58.8 20.1V11H55.8V12.67C55.3375 11.5648 54.2372 10.8631 53.04 10.91C50.74 10.91 49.36 12.72 49.36 15.59C49.36 18.46 50.81 20.13 53 20.13C54.1597 20.193 55.241 19.5435 55.73 18.49H55.79V20.17C55.79 21.07 55.19 21.69 54.05 21.69C53.3704 21.7814 52.7115 21.4154 52.43 20.79ZM55.8 15.61C55.8 14.15 55.13 13.23 54.07 13.23C53.01 13.23 52.36 14.14 52.36 15.61C52.36 17.08 53 17.91 54.07 17.91C55.14 17.91 55.8 17.1 55.8 15.62V15.61ZM64.61 10.82C61.77 10.82 59.93 12.61 59.93 15.61V15.62C59.93 18.67 61.72 20.41 64.61 20.41C67.5 20.41 69.3 18.61 69.3 15.61C69.3 12.61 67.45 10.82 64.61 10.82ZM66.28 15.61C66.28 13.96 65.63 12.99 64.61 12.99C63.59 12.99 63 14 63 15.63C63 17.26 63.63 18.23 64.65 18.23C65.67 18.23 66.28 17.3 66.28 15.63V15.61ZM70.44 11.02H73.44V20.2H70.44V11.02ZM80.72 20.32C83 20.32 84.33 18.61 84.33 15.61L84.37 15.63C84.37 12.63 83 10.91 80.7 10.87C79.4932 10.8162 78.3818 11.5238 77.92 12.64H77.86V11H74.86V23.14H77.86V18.62H77.92C78.4043 19.718 79.5224 20.3969 80.72 20.32ZM81.33 15.61C81.33 14.15 80.66 13.22 79.61 13.22C78.56 13.22 77.89 14.16 77.88 15.61C77.87 17.06 78.56 17.99 79.61 17.99C80.66 17.99 81.33 17.08 81.33 15.63V15.61ZM93.55 13.88C93.48 11.99 91.97 10.81 89.48 10.81V10.83C87 10.83 85.39 12 85.37 13.8C85.37 15.2 86.31 16.15 88.1 16.52L89.83 16.89C90.55 17.04 90.83 17.14 90.83 17.62C90.83 18.1 90.43 18.39 89.55 18.39C88.67 18.39 88.13 17.99 88.04 17.31H85.15C85.28 19.18 86.95 20.4 89.5 20.4C92.05 20.4 93.78 19.18 93.78 17.28C93.78 15.89 93 15.15 91.17 14.76L89.25 14.37C88.58 14.23 88.25 14.08 88.25 13.61C88.25 13.14 88.62 12.82 89.45 12.82C90.28 12.82 90.82 13.23 90.82 13.88H93.55ZM103.79 20.18H100.9V18.47H100.84C100.513 19.6529 99.4055 20.448 98.18 20.38C97.2578 20.4325 96.3581 20.0826 95.7137 19.4208C95.0692 18.7591 94.7432 17.8505 94.82 16.93V11H97.82V16.24C97.82 17.33 98.38 17.91 99.31 17.91C99.7512 17.9109 100.171 17.7213 100.463 17.3899C100.754 17.0585 100.888 16.6174 100.83 16.18V11H103.83L103.79 20.18ZM108.14 11H105.24L105.19 20.2H108.19V14.79C108.144 14.4096 108.264 14.0278 108.518 13.741C108.772 13.4543 109.137 13.2902 109.52 13.29C110.34 13.29 110.79 13.79 110.79 14.71V20.2H113.64V14.77C113.591 14.3942 113.707 14.0155 113.958 13.7317C114.209 13.4479 114.571 13.2868 114.95 13.29C115.79 13.29 116.24 13.75 116.24 14.75V20.2H119.24V13.95C119.3 13.1267 119.008 12.3165 118.435 11.7215C117.863 11.1264 117.065 10.8023 116.24 10.83C114.954 10.7748 113.793 11.5978 113.42 12.83H113.36C113.161 11.6009 112.051 10.7306 110.81 10.83C109.6 10.8077 108.527 11.6049 108.2 12.77H108.14V11Z" fill="#696871"/>
<path fill-rule="evenodd" clip-rule="evenodd" d="M24.48 5.40002C25.2975 6.37195 25.9711 7.45638 26.48 8.62002C27.2213 10.3166 27.6026 12.1485 27.6 14C27.5945 21.4734 21.5434 27.5335 14.07 27.55C12.3311 27.5491 10.609 27.2094 9 26.55C7.85235 26.094 6.775 25.4779 5.8 24.72C1.65298 21.5596 -0.308978 16.2974 0.756714 11.1935C1.82241 6.08949 5.72609 2.05206 10.7913 0.8151C15.8565 -0.421862 21.1817 1.36178 24.48 5.40002ZM18.58 4.19002C17.1642 3.53116 15.6215 3.18985 14.06 3.19002L14.07 3.17002C10.367 3.16726 6.92082 5.0618 4.93897 8.18977C2.95711 11.3177 2.71595 15.243 4.3 18.59C4.75169 18.1155 5.03004 17.5024 5.09 16.85C5.45371 14.3374 7.42741 12.3637 9.94 12C11.3576 11.8715 12.4897 10.7644 12.65 9.35002C13.0137 6.83743 14.9874 4.86373 17.5 4.50002C17.8718 4.44337 18.2348 4.33919 18.58 4.19002ZM5.79 21C5.83 20.9634 5.87 20.9278 5.91001 20.8922L5.91007 20.8922C5.99005 20.8211 6.07002 20.75 6.15 20.67C7.03965 19.8075 7.61071 18.6689 7.77 17.44C7.83458 16.7493 8.143 16.1041 8.64 15.62C9.11825 15.1222 9.76197 14.8163 10.45 14.76C12.9626 14.3963 14.9363 12.4226 15.3 9.91002C15.3433 9.18753 15.6533 8.50686 16.17 8.00002C16.66 7.51187 17.3099 7.21712 18 7.17002C19.1239 7.01538 20.1721 6.51573 21 5.74002C21.9426 6.52209 22.7413 7.46292 23.36 8.52002C23.322 8.57137 23.2784 8.61833 23.23 8.66002C22.7527 9.16222 22.1098 9.47478 21.42 9.54002C18.9043 9.89746 16.9274 11.8743 16.57 14.39C16.4247 15.8094 15.2999 16.93 13.88 17.07C11.3604 17.4309 9.37641 19.4027 9 21.92C8.94618 22.4088 8.77834 22.878 8.51 23.29C7.484 22.6809 6.56508 21.9072 5.79 21ZM11.06 24.44C12.0354 24.7197 13.0453 24.8611 14.06 24.86V24.81C17.4091 24.797 20.5634 23.2338 22.6021 20.5768C24.6409 17.9197 25.3343 14.4683 24.48 11.23C23.7208 11.7668 22.842 12.1101 21.92 12.23C20.504 12.3745 19.3845 13.494 19.24 14.91C18.8752 17.4257 16.8965 19.4004 14.38 19.76C12.964 19.9045 11.8445 21.024 11.7 22.44C11.6106 23.1402 11.3937 23.818 11.06 24.44Z" fill="#696871"/>
</svg>
