<?xml version="1.0" encoding="utf-8"?>
<!-- Generator: Adobe Illustrator 22.0.1, SVG Export Plug-In . SVG Version: 6.00 Build 0)  -->
<svg version="1.1" id="Layer_1" xmlns="http://www.w3.org/2000/svg" xmlns:xlink="http://www.w3.org/1999/xlink" x="0px" y="0px"
	 viewBox="0 0 1600 169.1" style="enable-background:new 0 0 1600 169.1;" xml:space="preserve">
<style type="text/css">
	.st0{fill:#FFFFFF;}
</style>
<g>
	<g>
		<g>
			<path class="st0" d="M950.225,7.476c0,5.268-0.078,10.458-0.226,15.571c-0.151,5.115-0.077,10.08,0.226,14.892
				c-3.763-1.502-7.863-2.517-12.298-3.046c-4.439-0.525-9.026-0.79-13.765-0.79c-4.739,0-9.517,0.113-14.329,0.339
				c-4.816,0.225-9.555,0.338-14.216,0.338c-0.451,5.268-0.529,10.458-0.226,15.571c0.3,5.115,0.6,10.08,0.903,14.892
				c5.716,1.657,11.696,2.182,17.94,1.58c6.24-0.6,12.597-1.129,19.068-1.58c0.148,2.108,0.187,4.553,0.113,7.334
				c-0.078,2.786-0.113,5.642-0.113,8.575c0,2.934,0.035,5.832,0.113,8.687c0.074,2.86,0.339,5.416,0.79,7.672
				c-6.47,0.754-12.827,0.981-19.068,0.677c-6.244-0.3-12.524-0.3-18.842,0c0.752,11.283,0.977,22.829,0.677,34.637
				c-0.303,11.811-0.226,22.903,0.225,33.283c-5.719,0-10.796,0.074-15.231,0.225c-4.439,0.148-9.065,0.074-13.878-0.225
				c-0.903-11.582-1.392-22.678-1.467-33.283c-0.077-10.605-0.113-22.375-0.113-35.315c0-2.105-0.078-4.136-0.226-6.092
				c-0.151-1.953-0.077-3.984,0.226-6.093c0-1.653,0.261-3.12,0.79-4.4c0.525-1.277,0.789-2.743,0.789-4.401
				c0-0.751-0.151-1.39-0.451-1.918c-0.303-0.525-0.677-1.241-1.128-2.144c0-2.405,0.187-4.925,0.564-7.559
				c0.373-2.631,0.187-5.152-0.564-7.56c0.451-4.062,0.751-7.82,0.903-11.283c0.148-3.458,0.261-6.844,0.339-10.154
				c0.074-3.307,0.113-6.657,0.113-10.041c0-3.385,0.074-7.108,0.225-11.17c-0.303-0.903-0.113-1.314,0.565-1.241
				c0.677,0.078,1.015-0.113,1.015-0.564c-0.754-2.257-0.754-4.661,0-7.221c5.715-1.202,11.847-1.84,18.39-1.918
				c6.544-0.074,13.05,0.038,19.519,0.339c7.221,0.451,14.516,0.642,21.888,0.564C936.834,4.582,943.755,5.523,950.225,7.476z
				 M872.149,164.982c0,0.451,0.187,0.564,0.565,0.338c0.373-0.225,0.712-0.338,1.015-0.338c-0.303,0-0.642-0.074-1.015-0.226
				C872.336,164.607,872.149,164.681,872.149,164.982z M873.73,4.994v0.676h0.903c0,0.451,0.113,0.529,0.338,0.226
				c0.226-0.3,0.339-0.6,0.339-0.903c-0.303-0.451-0.642-0.487-1.015-0.113C873.916,5.259,873.73,5.297,873.73,4.994z
				 M883.432,157.761c0.451,0.451,0.751,0.564,0.903,0.338c0.148-0.225,0.373-0.338,0.677-0.338c0-1.203-0.339-1.879-1.016-2.031
				c-0.677-0.148-1.392-0.225-2.143-0.225c0.299,0.754,0.412,1.354,0.338,1.805c-0.077,0.451,0.036,0.903,0.339,1.354
				c-0.151,0-0.303,0.077-0.451,0.225c-0.151,0.152-0.225,0.603-0.225,1.354c0.751,0,1.202-0.187,1.354-0.564
				C883.354,159.304,883.432,158.663,883.432,157.761z"/>
			<path class="st0" d="M1048.317,70.207c-0.151,1.206-0.038,2.295,0.339,3.272c0.373,0.981,0.79,2.296,1.241,3.949
				c0,2.409-0.152,4.929-0.451,7.56c-0.303,2.634-0.451,5.228-0.451,7.785c0,4.365,0,8.8,0,13.313s-0.226,9.403-0.677,14.667
				c-0.303,3.311-0.528,6.244-0.677,8.801c-0.152,2.56,0.074,5.268,0.677,8.124c0,0.45,0.114,1.015,0.339,1.692
				c0.226,0.677,0.339,1.241,0.339,1.693c0,1.206-0.265,2.408-0.79,3.61c-0.528,1.206-0.79,2.408-0.79,3.61
				c-0.303,2.859-0.151,5.793,0.451,8.8c0.599,3.011,0.752,5.945,0.451,8.801c-1.206,0.299-1.995,0.225-2.369-0.226
				c-0.377-0.451-0.941-0.676-1.693-0.676c-4.061,0-7.749-0.374-11.057-1.129c-3.31-0.751-6.621-1.128-9.929-1.128
				c-2.859,0.303-5.793,0.676-8.8,1.128c-3.011,0.451-5.945,0.303-8.8-0.451c-0.303-0.148-0.451-0.525-0.451-1.128
				c0-0.6-0.078-1.241-0.226-1.919c-0.151-0.676-0.339-1.354-0.564-2.03c-0.226-0.677-0.642-1.089-1.241-1.241
				c0.752-0.451,1.015-1.315,0.79-2.595c-0.226-1.276-0.49-2.291-0.79-3.046c0.752-1.203,0.938-2.595,0.564-4.174
				c-0.377-1.58-0.564-3.42-0.564-5.529c0-1.202,0.113-2.217,0.339-3.046c0.225-0.826,0.339-1.39,0.339-1.693
				c-0.303-1.202-0.754-1.841-1.354-1.918c-0.603-0.074-0.903-0.564-0.903-1.467c3.159-0.752,6.24-1.051,9.251-0.903
				c3.007,0.151,5.564,0.225,7.672,0.225c0.751-1.202,1.015-2.443,0.79-3.723c-0.226-1.276,0.035-1.918,0.789-1.918
				c-0.754-4.813-1.015-10.416-0.789-16.811c0.225-6.392,0.187-12.598-0.114-18.616c-0.451-9.929-0.903-19.519-1.354-28.77
				c-0.451-9.252-0.528-18.165-0.225-26.74c-2.56-0.752-4.739-1.163-6.544-1.241c-1.805-0.074-3.576-0.036-5.303,0.113
				c-1.731,0.152-3.536,0.377-5.416,0.677c-1.883,0.303-4.174,0.451-6.882,0.451c-0.303,8.427-0.265,16.698,0.113,24.821
				c0.373,8.124,0.79,16.135,1.241,24.032c0.451,7.898,0.79,15.722,1.015,23.468c0.226,7.749-0.039,15.534-0.79,23.355
				c0.451,0.603,1.051,1.015,1.805,1.241c0.752,0.225,1.502,0.451,2.257,0.676c0.752,0.226,1.428,0.565,2.031,1.016
				c0.6,0.451,0.977,1.128,1.128,2.03c-0.303,0-0.754-0.113-1.354-0.339c-0.602-0.225-0.903-0.113-0.903,0.339
				c0.3,2.409,0.638,5.042,1.015,7.897c0.374,2.86,0.262,6.093-0.338,9.704c0,0.451-0.114,1.054-0.339,1.805
				c-0.226,0.754-0.339,1.505-0.339,2.257c0,0.754,0.374,1.544,1.129,2.369c0.751,0.829,1.128,1.619,1.128,2.369
				c-5.719,0.754-11.734,0.941-18.052,0.564c-6.317-0.373-12.11-0.564-17.375-0.564c-1.657-15.944-2.672-31.739-3.046-47.387
				c-0.377-15.644-0.716-31.215-1.016-46.71c-0.151-6.467,0.339-13.049,1.467-19.744c1.128-6.692,1.467-13.275,1.015-19.745
				c-0.303-4.361-0.829-8.461-1.58-12.298c-0.754-3.836-0.754-7.785,0-11.847c10.077,0,20.76-0.035,32.043-0.113
				c11.283-0.074,22.113-0.261,32.493-0.564c3.159-0.451,6.318-0.564,9.478-0.339c3.159,0.226,6.166,1.167,9.026,2.82
				c0.599,2.409,0.825,4.852,0.677,7.334c-0.151,2.483-0.377,4.964-0.677,7.447c-0.303,2.482-0.529,4.964-0.677,7.446
				c-0.151,2.483,0.074,4.929,0.677,7.334c0,0.903,0.299,1.771,0.903,2.595c0.599,0.829,1.051,1.844,1.354,3.047
				c0.451,2.108,0.225,4.325-0.677,6.656c-0.903,2.334-1.206,4.704-0.903,7.108c0,0.754,0.262,1.432,0.79,2.03
				c0.525,0.603,0.79,1.28,0.79,2.031c0,1.657-0.191,3.272-0.564,4.852C1048.053,66.936,1048.014,68.554,1048.317,70.207z
				 M971.821,114.435c0,0.304,0.339,0.339,1.015,0.114c0.677-0.226,0.864-0.565,0.565-1.016
				C972.347,113.532,971.821,113.836,971.821,114.435z M974.98,85.326c0.3-0.299,0.638-0.525,1.015-0.676
				c0.374-0.148,0.565-0.451,0.565-0.903c-0.754-0.299-1.319-0.187-1.693,0.339C974.491,84.614,974.529,85.026,974.98,85.326z
				 M978.14,34.78c0-0.751-0.339-1.314-1.015-1.692c-0.677-0.374-1.392-0.339-2.144,0.113c0,0.754,0.339,1.206,1.015,1.354
				C976.673,34.706,977.385,34.78,978.14,34.78z M974.98,43.581v1.579h1.58C976.56,44.109,976.031,43.581,974.98,43.581z
				 M976.56,48.319c-0.451,0.451-0.19,0.677,0.789,0.677c0.977,0,1.241-0.226,0.79-0.677c0-0.299-0.151-0.373-0.451-0.225
				C977.385,48.245,977.012,48.319,976.56,48.319z M982.201,14.697l-3.159,3.837c0.752,0,1.654-0.451,2.708-1.354
				C982.801,16.277,982.952,15.451,982.201,14.697z M980.622,27.559c0,0.304,0.074,0.642,0.225,1.016
				c0.148,0.377,0.599,0.564,1.354,0.564c0.451-0.451,0.487-0.938,0.113-1.467C981.937,27.147,981.373,27.108,980.622,27.559z
				 M982.201,77.428c0.451,0.303,0.977,0.339,1.58,0.113c0.599-0.225,0.902-0.564,0.902-1.015c-0.754,0-1.28-0.373-1.579-1.128
				c-0.303-0.752-0.828-1.129-1.579-1.129c-0.451,0.754-0.339,1.354,0.338,1.805C982.54,76.526,982.653,76.977,982.201,77.428z
				 M1024.172,146.478c0-0.752,0.114-1.277,0.339-1.58c0.226-0.299,0.339-0.825,0.339-1.579c-0.754-0.3-1.432-0.261-2.031,0.113
				c-0.602,0.377-1.505,0.339-2.708-0.113c0.3,0.754,0.374,1.241,0.226,1.467c-0.152,0.226-0.226,0.564-0.226,1.015
				c0.752,0,1.428,0.039,2.031,0.114C1022.741,145.991,1023.418,146.178,1024.172,146.478z M1028.234,134.519
				c0.3-0.451,0.374-0.864,0.226-1.241c-0.152-0.374-0.226-0.79-0.226-1.241c-1.206,0-1.805,0.529-1.805,1.58
				c0.451,0,0.752,0.151,0.903,0.451C1027.48,134.37,1027.783,134.519,1028.234,134.519z M1034.552,150.54h-1.579
				c0,0.451,0.261,0.754,0.789,0.903C1034.288,151.593,1034.552,151.294,1034.552,150.54z"/>
			<path class="st0" d="M1144.958,67.726c-1.657-0.451-3.124-0.451-4.4,0c-1.28,0.451-2.747,0.451-4.401,0
				c1.202,8.124,2.708,16.286,4.513,24.483c1.805,8.201,3.646,16.437,5.528,24.709c1.879,8.275,3.723,16.511,5.528,24.709
				c1.805,8.202,3.307,16.36,4.513,24.483h-29.109l-7.221-23.468c-1.354-4.361-2.708-8.497-4.062-12.411
				c-1.354-3.91-2.408-7.82-3.159-11.734c0-1.202-0.077-2.105-0.225-2.708c-0.152-0.599-0.078-1.05,0.225-1.354
				c0-0.451-0.264-0.789-0.789-1.015c-0.529-0.225-0.79-0.712-0.79-1.467c-1.206-6.918-2.447-14.025-3.723-21.324
				c-1.28-7.295-2.973-14.402-5.077-21.324h-7.221c0,8.427,0.299,16.135,0.903,23.129c0.599,6.995,1.051,14.329,1.354,22.001
				c0.451,9.026,0.486,17.679,0.113,25.95c-0.377,8.276-1.167,16.473-2.369,24.597h-9.704h0.677v-1.58h-0.677h-0.903h-0.677
				c-0.603,0-0.903,0.152-0.903,0.451c-0.152,0.152-0.152,0.303,0,0.451v0.677h0.903h-5.641c-1.657,0-3.385,0.113-5.191,0.338
				c-1.805,0.226-3.31,0.114-4.513-0.338c-1.354-0.752-2.221-1.953-2.594-3.61c-0.377-1.654-0.529-3.533-0.451-5.642
				c0.074-2.105,0.225-4.248,0.451-6.431c0.225-2.179,0.261-4.174,0.113-5.98c0-1.654-0.451-3.233-1.354-4.739
				c-0.903-1.501-1.506-2.855-1.805-4.061c-0.603-2.405-0.49-5.265,0.339-8.575c0.825-3.307,1.24-6.318,1.24-9.026
				c0-6.318-0.151-11.995-0.451-17.037c-0.303-5.038-0.451-10.415-0.451-16.134c0-3.159-0.077-6.318-0.225-9.478
				c-0.152-3.159-0.078-6.166,0.225-9.026c0-0.751-0.038-1.276-0.113-1.579c-0.078-0.3,0.261-0.826,1.015-1.58
				c0-0.451-0.225-0.638-0.676-0.564c-0.451,0.078-0.529-0.261-0.226-1.015c0-7.221,0.036-15.757,0.114-25.611
				c0.074-9.852,0.338-19.819,0.789-29.899c7.221,0.151,14.668,0.151,22.339,0c7.672-0.148,15.306-0.3,22.904-0.451
				c7.594-0.148,15.006-0.3,22.227-0.451c7.221-0.148,13.99-0.148,20.308,0c-0.755,3.31-0.642,6.283,0.339,8.913
				c0.977,2.634,1.693,5.606,2.144,8.914c0.299,3.159,0.299,6.621,0,10.38c-0.303,3.762-0.303,7.221,0,10.38
				c0.148,2.408,0.599,5.003,1.354,7.785c0.751,2.785,1.24,5.416,1.467,7.897c0.225,2.483,0,4.665-0.677,6.544
				c-0.677,1.882-2.221,3.124-4.626,3.723c-1.206,0.303-2.408,0.225-3.611-0.226C1147.362,67.951,1146.16,67.726,1144.958,67.726z
				 M1072.524,21.015c1.203,0.451,2.066,0.451,2.595,0c0.526-0.451,0.79-0.938,0.79-1.467c0-0.525-0.265-0.826-0.79-0.903
				c-0.529-0.074-1.167,0.49-1.918,1.693c-0.303,0-0.603-0.074-0.903-0.226C1071.995,19.965,1072.072,20.265,1072.524,21.015z
				 M1072.524,27.559v0.677c0.3,0,0.638,0.078,1.015,0.225c0.374,0.152,0.565-0.147,0.565-0.903c0-0.451-0.191-0.564-0.565-0.338
				C1073.162,27.446,1072.824,27.559,1072.524,27.559z M1123.972,40.422c0.451-2.105,0.712-3.985,0.79-5.642
				c0.074-1.653,0.113-3.533,0.113-5.641c-3.31-0.451-6.734-0.564-10.267-0.339c-3.536,0.226-7.108,0.339-10.719,0.339
				c-0.451-0.451-0.642-0.977-0.564-1.58c0.074-0.599-0.265-0.903-1.015-0.903c-0.451,0.755-0.451,0.981,0,0.677
				c0.451-0.299,0.677-0.226,0.677,0.225v0.677c-1.657,0.754-3.124,1.128-4.401,1.128c-1.28,0-2.746,0.152-4.4,0.451
				c0,1.657,0.148,3.424,0.451,5.303c0.299,1.883,0.451,3.649,0.451,5.303C1105.165,41.024,1114.795,41.024,1123.972,40.422z"/>
		</g>
		<g>
			<path class="st0" d="M1325.701,130.457c1.203-1.203,3.008-1.542,5.416-1.016c2.405,0.529,4.587,0.642,6.544,0.339v31.366
				c-5.416,0.152-11.435,0.152-18.052,0c-6.621-0.148-13.353-0.261-20.195-0.339c-6.848-0.074-13.652-0.074-20.422,0
				c-6.77,0.078-12.94,0.417-18.504,1.016c-1.354-1.354-2.595-2.856-3.723-4.513c-1.129-1.654-2.221-3.307-3.272-4.964
				c-1.055-1.654-2.182-3.233-3.385-4.739c-1.206-1.502-2.634-2.933-4.287-4.287c0-0.3,0.339-0.525,1.015-0.677
				c0.677-0.147,1.163-0.451,1.467-0.903c-0.303-0.299-0.677-0.261-1.128,0.114c-0.451,0.377-0.903,0.338-1.354-0.114
				c0.903-13.687,1.128-27.529,0.677-41.52c-0.451-13.991-0.677-29.109-0.677-45.356c0-5.715-0.078-11.356-0.226-16.924
				c-0.151-5.564-0.077-11.205,0.226-16.924c0.451-2.856,0.677-5.754,0.677-8.687s0.599-5.677,1.805-8.236l33.171-1.58
				c0.751,0,0.938,0.226,0.564,0.677c-0.377,0.451-0.564,1.054-0.564,1.805c-0.451,2.408-0.564,5.003-0.339,7.785
				c0.226,2.786,0.451,5.493,0.677,8.124c0.225,2.634,0.225,5.115,0,7.446c-0.226,2.334-0.941,4.174-2.144,5.528
				c0.451,4.365,0.977,9.443,1.58,15.232c0.599,5.793,0.903,11.698,0.903,17.714c-0.152,1.805-0.451,3.723-0.903,5.753
				c-0.451,2.031-0.828,3.988-1.129,5.867c-0.303,1.883-0.416,3.723-0.338,5.528c0.073,1.805,0.638,3.385,1.692,4.739
				c-1.657,6.77-2.594,13.803-2.82,21.098c-0.225,7.299-0.941,14.181-2.144,20.648c7.521,1.505,15.193,2.03,23.017,1.579
				C1307.347,131.585,1316.073,131.059,1325.701,130.457z M1256.427,9.733c0-0.299-0.039-0.6-0.113-0.903
				c-0.078-0.299-0.339-0.225-0.79,0.226c-0.303,0-0.339,0.113-0.113,0.339C1255.636,9.62,1255.975,9.733,1256.427,9.733z
				 M1266.807,84.649h-1.579v1.579C1266.277,86.228,1266.807,85.703,1266.807,84.649z M1266.807,54.863
				c0.451,0.755,0.451,1.167,0,1.241c-0.451,0.078-0.677,0.49-0.677,1.241c1.05-0.451,1.692-0.3,1.918,0.451
				c0.225,0.754,0.937,1.128,2.143,1.128c0.3-0.451,0.487-1.015,0.565-1.692c0.074-0.677,0.113-1.163,0.113-1.467
				c-0.754-0.451-1.432-0.599-2.031-0.451C1268.235,55.466,1267.557,55.314,1266.807,54.863z M1273.35,72.464
				c0.752-1.953,0.599-3.307-0.451-4.062c-1.054-0.751-1.956-1.502-2.708-2.257h-0.451c-0.303,0-0.451,0.226-0.451,0.677
				l2.483,2.482c-0.754,0.754-1.58,1.167-2.483,1.241c-0.903,0.078-1.731,0.716-2.482,1.918c1.653,0,2.969-0.299,3.949-0.903
				C1271.733,70.962,1272.596,71.262,1273.35,72.464z M1271.771,39.519c-0.754,0-1.28,0.303-1.58,0.903
				c-0.303,0.602-0.903,1.128-1.805,1.579c0.903,0.303,1.693,0.265,2.37-0.113C1271.432,41.515,1271.771,40.725,1271.771,39.519z
				 M1269.288,90.29c1.051,0,1.58-0.299,1.58-0.903C1269.814,89.388,1269.288,89.691,1269.288,90.29z M1273.35,66.146
				c0.752-0.451,0.903-0.825,0.451-1.128c-0.451-0.3-0.903-0.451-1.354-0.451c0.3,0.303,0.451,0.528,0.451,0.676
				c0,0.152,0.074,0.303,0.226,0.451C1273.125,65.846,1273.199,65.997,1273.35,66.146z M1273.35,62.084
				c0.752,0,1.315,0.078,1.693,0.226c0.373,0.151,0.339,0.602-0.113,1.354c0.751,0,1.241-0.148,1.467-0.451
				c0.226-0.3,0.564-0.677,1.015-1.129c-0.754-0.451-1.544-0.863-2.369-1.24C1274.214,60.469,1273.65,60.882,1273.35,62.084z
				 M1276.509,101.573c-0.303-0.451-0.416-0.977-0.338-1.579c0.074-0.6-0.039-0.903-0.339-0.903
				c-0.451,0.451-0.642,0.98-0.564,1.579C1275.343,101.274,1275.755,101.573,1276.509,101.573z"/>
			<path class="st0" d="M1409.193,141.062l1.805,24.822c-11.283-0.903-22.079-1.051-32.381-0.451
				c-10.306,0.602-20.5,0.751-30.577,0.451c0-5.265,0.074-10.568,0.226-15.908c0.148-5.339,0.599-10.19,1.354-14.555
				c1.653-0.451,3.42-0.487,5.303-0.114c1.878,0.377,3.645,0.417,5.302,0.114c0.3-5.265,0.638-10.116,1.015-14.555
				c0.374-4.436,0.565-9.287,0.565-14.555c0.299-0.752,0.789-0.826,1.467-0.226c0.676,0.603,1.241,0.677,1.693,0.226
				c0-0.6-0.152-0.977-0.451-1.129c-0.304-0.148-0.677-0.261-1.129-0.339c-0.451-0.074-0.828-0.148-1.128-0.225
				c-0.303-0.074-0.451-0.339-0.451-0.79c0.299-6.77,0.486-13.764,0.564-20.985c0.074-7.221,0.113-14.667,0.113-22.339
				c0-0.6,0.525-0.903,1.58-0.903c0-0.752-0.265-1.089-0.79-1.015c-0.529,0.077-0.79-0.114-0.79-0.565
				c0-1.202,0.036-2.33,0.113-3.384c0.074-1.051,0.339-1.805,0.79-2.257c-0.754-2.105-0.941-4.513-0.564-7.221
				c0.373-2.708,0.564-5.641,0.564-8.8c-1.657-0.3-3.988-0.3-6.995,0c-3.011,0.303-5.494,0.303-7.447,0l1.58-29.786
				c6.467-0.451,13.765-0.486,21.888-0.113c8.124,0.377,15.87,0.113,23.242-0.79c2.856-0.299,5.451-0.638,7.785-1.015
				c2.331-0.373,5.077-0.564,8.236-0.564V36.36h-19.405c-0.304,15.496-0.642,31.404-1.016,47.725
				c-0.377,16.324-0.564,33.135-0.564,50.433c3.307,0.451,6.505,0.564,9.59,0.338c3.082-0.225,6.054-0.338,8.914-0.338v4.738h-1.58
				h-0.676v0.903c0,0.754,0.113,1.241,0.339,1.467c0.225,0.226,0.338,0.564,0.338,1.015h0.903v-0.903h0.226
				C1409.041,141.739,1409.193,141.513,1409.193,141.062z M1369.027,25.98c0.299,0.303,0.638,0.416,1.015,0.339
				c0.373-0.074,0.564-0.487,0.564-1.241c0,0.451-0.265,0.603-0.79,0.451C1369.288,25.38,1369.027,25.529,1369.027,25.98z
				 M1377.827,12.892h-1.58c0,0.903,0.374,1.354,1.129,1.354C1378.127,14.246,1378.279,13.794,1377.827,12.892z M1378.73,44.484
				l-2.483-1.805c0,1.657,0.3,2.708,0.903,3.159c0.599,0.451,1.129,1.054,1.58,1.805c0.299,0,0.526-0.188,0.677-0.565
				c0.148-0.373,0.451-0.712,0.903-1.015c-0.755,0-1.206-0.187-1.354-0.564C1378.804,45.125,1378.73,44.787,1378.73,44.484z
				 M1378.73,90.29c0.751,0.303,1.202,0.191,1.354-0.338c0.148-0.525,0.225-0.938,0.225-1.241c-0.755,0-1.206,0.151-1.354,0.451
				C1378.804,89.465,1378.73,89.839,1378.73,90.29z M1384.371,50.124c0.3,0.303,0.638,0.339,1.015,0.113
				c0.374-0.225,0.565-0.564,0.565-1.015c-0.755-0.451-1.206-0.525-1.354-0.225C1384.445,49.3,1384.371,49.673,1384.371,50.124z
				 M1385.951,53.284v-1.579c-0.451,0-0.755,0.113-0.903,0.338c-0.152,0.226-0.377,0.339-0.677,0.339
				C1384.371,52.984,1384.896,53.284,1385.951,53.284z M1386.627,28.236c0.451,0.451,0.977,0.642,1.58,0.564
				c0.599-0.074,0.903-0.486,0.903-1.241c-0.303-0.451-0.79-0.524-1.468-0.225C1386.966,27.637,1386.627,27.937,1386.627,28.236z
				 M1390.013,153.924c1.051,0,1.579-0.299,1.579-0.903l-0.903-0.903c0,0.451-0.113,0.754-0.339,0.903
				C1390.125,153.173,1390.013,153.473,1390.013,153.924z M1396.331,15.375h-1.58v0.903c0-0.451,0.261-0.6,0.79-0.451
				C1396.067,15.977,1396.331,15.826,1396.331,15.375z M1397.234,156.181c0.299-0.299,0.638-0.564,1.015-0.79
				c0.373-0.225,0.564-0.712,0.564-1.467c-0.754,0-1.318,0.303-1.693,0.903C1396.743,155.43,1396.782,155.881,1397.234,156.181z"/>
			<path class="st0" d="M1506.073,7.476c0,5.268-0.078,10.458-0.226,15.571c-0.151,5.115-0.077,10.08,0.226,14.892
				c-3.763-1.502-7.863-2.517-12.298-3.046c-4.439-0.525-9.026-0.79-13.765-0.79c-4.739,0-9.517,0.113-14.329,0.339
				c-4.816,0.225-9.555,0.338-14.216,0.338c-0.451,5.268-0.529,10.458-0.226,15.571c0.3,5.115,0.599,10.08,0.903,14.892
				c5.716,1.657,11.696,2.182,17.94,1.58c6.24-0.6,12.597-1.129,19.068-1.58c0.148,2.108,0.187,4.553,0.113,7.334
				c-0.078,2.786-0.113,5.642-0.113,8.575c0,2.934,0.035,5.832,0.113,8.687c0.074,2.86,0.339,5.416,0.79,7.672
				c-6.47,0.754-12.827,0.981-19.068,0.677c-6.244-0.3-12.524-0.3-18.842,0c0.751,11.283,0.977,22.829,0.677,34.637
				c-0.303,11.811-0.226,22.903,0.225,33.283c-5.719,0-10.796,0.074-15.231,0.225c-4.439,0.148-9.065,0.074-13.878-0.225
				c-0.903-11.582-1.392-22.678-1.467-33.283c-0.077-10.605-0.113-22.375-0.113-35.315c0-2.105-0.078-4.136-0.226-6.092
				c-0.151-1.953-0.077-3.984,0.226-6.093c0-1.653,0.261-3.12,0.79-4.4c0.525-1.277,0.789-2.743,0.789-4.401
				c0-0.751-0.151-1.39-0.451-1.918c-0.303-0.525-0.677-1.241-1.128-2.144c0-2.405,0.187-4.925,0.564-7.559
				c0.373-2.631,0.187-5.152-0.564-7.56c0.451-4.062,0.751-7.82,0.903-11.283c0.148-3.458,0.261-6.844,0.339-10.154
				c0.074-3.307,0.113-6.657,0.113-10.041c0-3.385,0.074-7.108,0.225-11.17c-0.303-0.903-0.113-1.314,0.565-1.241
				c0.677,0.078,1.015-0.113,1.015-0.564c-0.755-2.257-0.755-4.661,0-7.221c5.715-1.202,11.847-1.84,18.39-1.918
				c6.544-0.074,13.05,0.038,19.519,0.339c7.221,0.451,14.516,0.642,21.888,0.564C1492.682,4.582,1499.603,5.523,1506.073,7.476z
				 M1427.997,164.982c0,0.451,0.187,0.564,0.565,0.338c0.373-0.225,0.712-0.338,1.015-0.338c-0.303,0-0.642-0.074-1.015-0.226
				C1428.184,164.607,1427.997,164.681,1427.997,164.982z M1429.577,4.994v0.676h0.903c0,0.451,0.113,0.529,0.338,0.226
				c0.226-0.3,0.339-0.6,0.339-0.903c-0.303-0.451-0.642-0.487-1.015-0.113C1429.764,5.259,1429.577,5.297,1429.577,4.994z
				 M1439.28,157.761c0.451,0.451,0.751,0.564,0.903,0.338c0.148-0.225,0.373-0.338,0.677-0.338c0-1.203-0.339-1.879-1.016-2.031
				c-0.677-0.148-1.392-0.225-2.143-0.225c0.299,0.754,0.412,1.354,0.338,1.805c-0.077,0.451,0.036,0.903,0.339,1.354
				c-0.151,0-0.303,0.077-0.451,0.225c-0.151,0.152-0.225,0.603-0.225,1.354c0.751,0,1.202-0.187,1.354-0.564
				C1439.202,159.304,1439.28,158.663,1439.28,157.761z"/>
			<path class="st0" d="M1598.959,158.663c0,1.657,0.188,3.085,0.565,4.287c0.373,1.206,0.187,2.182-0.565,2.934
				c-4.062,0-8.162,0.038-12.298,0.113c-4.139,0.077-7.785-0.261-10.944-1.015c0-0.451-0.303-0.677-0.903-0.677h-0.903h-0.677v0.677
				c-0.603,0.602-1.657,0.903-3.159,0.903c-0.451-0.451-1.129-0.525-2.031-0.226c-0.903,0.303-1.354,0.078-1.354-0.676
				c-1.657,0.451-3.384,0.903-5.19,1.353c-1.805,0.451-3.31,0.3-4.513-0.45c-0.303,0-0.676,0.038-1.128,0.113
				c-0.451,0.077-0.829,0.113-1.129,0.113c-6.921,0.299-13.278,0.373-19.068,0.225c-5.793-0.151-11.547-0.225-17.262-0.225
				c-0.754-8.124-1.318-15.831-1.692-23.129c-0.377-7.295-0.339-14.402,0.113-21.324c0.451-5.715,0.487-11.469,0.113-17.262
				c-0.377-5.789-0.416-11.317-0.113-16.585c0.148-1.654,0.373-3.233,0.677-4.739c0.3-1.501,0.599-2.855,0.903-4.061
				c-0.602-1.805-0.903-3.534-0.903-5.191c0-1.653,0.036-3.307,0.114-4.964c0.074-1.653,0.113-3.346,0.113-5.077
				c0-1.727-0.303-3.646-0.903-5.754c0.751-3.758,1.128-8.046,1.128-12.862c0-4.812-0.077-9.664-0.225-14.555
				c-0.152-4.886-0.113-9.59,0.113-14.103c0.226-4.513,0.938-8.349,2.144-11.508c2.856,0,5.677-0.036,8.461-0.113
				c2.782-0.074,5.603-0.339,8.462-0.79c4.964-0.148,10.19-0.3,15.682-0.451c5.49-0.148,10.945-0.187,16.36-0.113
				c5.416,0.077,10.754,0.338,16.022,0.789c5.264,0.451,10.228,1.206,14.892,2.257c0,4.816-0.151,10.007-0.451,15.571
				c-0.303,5.567-0.451,10.531-0.451,14.892c-3.61-1.805-7.524-2.895-11.733-3.272c-4.214-0.373-8.575-0.451-13.088-0.225
				c-4.513,0.225-9.026,0.528-13.539,0.903c-4.513,0.377-8.878,0.49-13.088,0.338c-0.903,5.268-1.24,10.831-1.015,16.698
				c0.226,5.867,0.564,10.983,1.015,15.345c1.953,0.451,4.175,0.416,6.657-0.113c2.482-0.525,4.774-0.188,6.882,1.015
				c0.451-0.451,0.487-0.712,0.113-0.79c-0.377-0.074-0.941-0.113-1.692-0.113c0.451-0.3,1.05-0.413,1.805-0.339
				c0.751,0.078,0.977,0.49,0.677,1.241c2.856-1.654,6.24-2.517,10.154-2.595c3.911-0.074,7.521-0.261,10.831-0.564
				c0.451,2.859,0.638,5.567,0.564,8.124c-0.077,2.56-0.151,5.115-0.225,7.672c-0.078,2.56-0.152,5.154-0.226,7.785
				c-0.077,2.634,0.114,5.454,0.565,8.461c-6.47,0.451-12.412,0.829-17.826,1.129c-5.416,0.303-11.509,0.451-18.279,0.451
				c0.751,6.318,0.826,12.523,0.226,18.616c-0.603,6.092-0.677,12.298-0.226,18.616c9.626,0,18.917,0.077,27.869,0.225
				c8.948,0.152,17.11,0.078,24.482-0.225c0.3,3.158,0.114,6.921-0.564,11.282C1598.621,151.068,1598.507,155.053,1598.959,158.663z
				 M1528.781,110.373c-0.451,0.755-0.676,1.281-0.676,1.58h1.579C1529.684,110.902,1529.381,110.373,1528.781,110.373z
				 M1529.684,115.112c0,0.451,0.413,0.676,1.241,0.676c0.825,0,1.241-0.225,1.241-0.676c-0.451-0.3-0.868-0.373-1.241-0.226
				C1530.548,115.038,1530.135,115.112,1529.684,115.112z M1532.167,85.326c0.451,0,0.977-0.113,1.579-0.338
				c0.599-0.226,1.163-0.525,1.693-0.903c0.525-0.374,0.903-0.79,1.128-1.241c0.226-0.451,0.114-0.903-0.338-1.354
				c-0.903,0.754-1.731,1.392-2.483,1.918C1532.991,83.937,1532.466,84.575,1532.167,85.326z M1533.746,94.352
				c0,1.055,0.525,1.58,1.58,1.58c0.451-0.451,0.486-0.938,0.113-1.467C1535.061,93.94,1534.497,93.901,1533.746,94.352z
				 M1535.326,144.221c0.451,0.303,0.976,0.303,1.579,0c0.599-0.3,0.903-0.825,0.903-1.58c-0.754,0.304-1.241,0.114-1.467-0.564
				c-0.226-0.676-0.564-1.015-1.015-1.015c-0.451,0.754-0.378,1.354,0.225,1.805C1536.151,143.319,1536.076,143.77,1535.326,144.221
				z M1553.152,25.077c-0.603,0-0.903,0.152-0.903,0.451c-0.152,0.152-0.152,0.303,0,0.451c0.599,0,0.903,0.529,0.903,1.579
				c0.451,0,0.977-0.299,1.579-0.903c-0.451-0.299-0.828-0.451-1.128-0.451C1553.3,26.205,1553.152,25.832,1553.152,25.077z
				 M1561.05,8.154c-0.303,0-0.642,0.077-1.015,0.225c-0.377,0.152-0.564,0.603-0.564,1.354c0.451,0.451,0.937,0.491,1.466,0.114
				C1561.462,9.472,1561.501,8.908,1561.05,8.154z M1563.532,19.436c0,0.451-0.152,0.867-0.451,1.24
				c-0.304,0.377-0.451,0.79-0.451,1.241c0.903-0.451,1.466-0.6,1.692-0.451c0.226,0.152,0.487,0,0.79-0.451h-0.451
				c-0.152,0-0.225-0.225-0.225-0.676c-0.152-0.148-0.226-0.3-0.226-0.451C1563.906,19.587,1563.679,19.436,1563.532,19.436z
				 M1565.111,23.498h-2.482c0,0.754,0.524,1.24,1.579,1.467C1565.26,25.19,1565.563,24.704,1565.111,23.498z M1568.271,18.534
				c-0.754-0.3-1.354-0.188-1.805,0.338c-0.451,0.529-0.903,1.016-1.354,1.467c0.451,0,0.638,0.264,0.564,0.789
				c-0.077,0.529,0.261,0.79,1.015,0.79c0.451-0.451,0.826-0.903,1.129-1.354C1568.118,20.113,1568.271,19.436,1568.271,18.534z
				 M1566.69,15.375v1.579c0.451,0,0.977-0.035,1.58-0.113c0.599-0.074,0.903-0.261,0.903-0.564c-0.451,0-0.79-0.148-1.015-0.451
				C1567.932,15.526,1567.442,15.375,1566.69,15.375z M1569.85,21.918c0,0.754,0.148,1.055,0.451,0.903
				c0.3-0.148,0.677-0.225,1.129-0.225C1571.43,22.144,1570.9,21.918,1569.85,21.918z"/>
		</g>
	</g>
	<g>
		<path class="st0" d="M85.822,71.987c-0.152,1.209-0.039,2.303,0.339,3.282c0.375,0.983,0.793,2.303,1.246,3.961
			c0,2.416-0.152,4.944-0.453,7.583c-0.305,2.642-0.454,5.246-0.454,7.81c0,4.379,0,8.829,0,13.356
			c0,4.527-0.226,9.434-0.679,14.714c-0.304,3.321-0.53,6.264-0.679,8.829c-0.152,2.568,0.074,5.284,0.679,8.149
			c0,0.453,0.113,1.018,0.339,1.697c0.226,0.68,0.339,1.246,0.339,1.698c0,1.209-0.265,2.416-0.792,3.622
			c-0.53,1.21-0.792,2.416-0.792,3.622c-0.304,2.869-0.152,5.812,0.453,8.828c0.601,3.022,0.753,5.964,0.453,8.829
			c-1.209,0.301-2.002,0.226-2.376-0.226c-0.379-0.453-0.945-0.679-1.698-0.679c-4.075,0-7.774-0.375-11.092-1.133
			c-3.321-0.753-6.642-1.132-9.961-1.132c-2.869,0.304-5.812,0.679-8.828,1.132c-3.021,0.453-5.964,0.305-8.829-0.453
			c-0.304-0.149-0.453-0.527-0.453-1.132c0-0.601-0.078-1.245-0.226-1.925c-0.152-0.679-0.339-1.358-0.566-2.037
			c-0.226-0.679-0.644-1.093-1.246-1.246c0.754-0.453,1.019-1.319,0.793-2.603c-0.226-1.28-0.492-2.3-0.793-3.056
			c0.754-1.206,0.941-2.604,0.567-4.188c-0.379-1.585-0.567-3.431-0.567-5.547c0-1.206,0.113-2.224,0.341-3.056
			c0.226-0.828,0.339-1.393,0.339-1.697c-0.305-1.206-0.757-1.847-1.359-1.925c-0.605-0.074-0.905-0.566-0.905-1.471
			c3.169-0.753,6.261-1.054,9.282-0.905c3.016,0.152,5.581,0.226,7.696,0.226c0.753-1.207,1.018-2.452,0.792-3.735
			c-0.226-1.281,0.036-1.925,0.792-1.925c-0.756-4.828-1.018-10.449-0.792-16.865c0.226-6.412,0.188-12.637-0.113-18.675
			c-0.453-9.961-0.905-19.582-1.358-28.862c-0.454-9.282-0.531-18.223-0.226-26.825c-2.568-0.753-4.754-1.167-6.565-1.245
			c-1.811-0.074-3.587-0.036-5.32,0.113c-1.736,0.152-3.548,0.378-5.432,0.679c-1.889,0.304-4.189,0.453-6.904,0.453
			c-0.305,8.454-0.266,16.752,0.113,24.901c0.375,8.15,0.792,16.186,1.245,24.109c0.453,7.923,0.792,15.772,1.018,23.543
			c0.226,7.774-0.039,15.584-0.792,23.429c0.453,0.606,1.054,1.019,1.811,1.246c0.753,0.226,1.507,0.453,2.263,0.679
			c0.753,0.226,1.433,0.566,2.038,1.018c0.601,0.453,0.98,1.132,1.132,2.038c-0.304,0-0.756-0.113-1.358-0.339
			c-0.605-0.226-0.905-0.113-0.905,0.339c0.301,2.416,0.64,5.057,1.018,7.923c0.375,2.869,0.262,6.112-0.339,9.734
			c0,0.453-0.113,1.057-0.339,1.81c-0.226,0.757-0.339,1.511-0.339,2.264c0,0.756,0.374,1.55,1.132,2.377
			c0.753,0.831,1.132,1.623,1.132,2.376c-5.737,0.757-11.771,0.945-18.11,0.566c-6.339-0.374-12.149-0.566-17.431-0.566
			c-1.663-15.994-2.681-31.841-3.056-47.538c-0.378-15.695-0.718-31.314-1.018-46.859c-0.152-6.487,0.339-13.091,1.471-19.808
			C2.63,44.56,2.97,37.956,2.517,31.466c-0.305-4.375-0.832-8.489-1.585-12.337c-0.756-3.848-0.756-7.81,0-11.885
			c10.109,0,20.826-0.035,32.145-0.113C44.396,7.057,55.262,6.87,65.675,6.565c3.168-0.453,6.338-0.566,9.507-0.339
			c3.169,0.226,6.187,1.171,9.055,2.83c0.601,2.416,0.828,4.867,0.679,7.357c-0.152,2.49-0.378,4.98-0.679,7.47
			c-0.305,2.49-0.531,4.981-0.679,7.47c-0.153,2.49,0.073,4.945,0.679,7.357c0,0.906,0.301,1.776,0.905,2.604
			c0.601,0.831,1.054,1.85,1.358,3.056c0.454,2.115,0.226,4.34-0.679,6.678c-0.905,2.342-1.209,4.718-0.905,7.131
			c0,0.756,0.262,1.436,0.792,2.037c0.527,0.606,0.792,1.284,0.792,2.038c0,1.663-0.191,3.282-0.566,4.867
			C85.556,68.704,85.518,70.327,85.822,71.987z M9.082,116.355c0,0.305,0.339,0.339,1.018,0.113
			c0.679-0.226,0.866-0.566,0.566-1.018C9.609,115.45,9.082,115.754,9.082,116.355z M12.251,87.154
			c0.301-0.301,0.64-0.527,1.019-0.679c0.375-0.149,0.566-0.453,0.566-0.905c-0.757-0.301-1.323-0.188-1.698,0.339
			C11.759,86.439,11.798,86.853,12.251,87.154z M15.42,36.447c0-0.753-0.339-1.319-1.018-1.698
			c-0.679-0.375-1.397-0.339-2.151,0.113c0,0.757,0.341,1.21,1.019,1.359C13.949,36.372,14.663,36.447,15.42,36.447z M12.251,45.275
			v1.585h1.585C13.836,45.806,13.305,45.275,12.251,45.275z M13.836,50.029c-0.453,0.453-0.191,0.679,0.792,0.679
			c0.98,0,1.245-0.226,0.792-0.679c0-0.301-0.152-0.375-0.453-0.226C14.663,49.955,14.288,50.029,13.836,50.029z M19.494,16.299
			l-3.168,3.848c0.753,0,1.659-0.453,2.716-1.358C20.096,17.884,20.249,17.057,19.494,16.299z M17.91,29.203
			c0,0.304,0.074,0.643,0.226,1.018c0.149,0.378,0.601,0.566,1.358,0.566c0.454-0.453,0.488-0.941,0.114-1.471
			C19.229,28.789,18.664,28.75,17.91,29.203z M19.494,79.231c0.454,0.304,0.981,0.339,1.585,0.113
			c0.601-0.226,0.905-0.566,0.905-1.018c-0.756,0-1.283-0.375-1.584-1.133c-0.305-0.753-0.832-1.132-1.585-1.132
			c-0.453,0.756-0.339,1.358,0.339,1.81C19.835,78.326,19.948,78.778,19.494,79.231z M61.6,148.5c0-0.753,0.113-1.28,0.339-1.584
			c0.227-0.301,0.341-0.828,0.341-1.584c-0.757-0.301-1.436-0.262-2.038,0.113c-0.605,0.378-1.511,0.339-2.717-0.113
			c0.301,0.756,0.375,1.245,0.226,1.471c-0.152,0.226-0.226,0.566-0.226,1.018c0.753,0,1.433,0.039,2.038,0.113
			C60.164,148.013,60.843,148.199,61.6,148.5z M65.675,136.503c0.301-0.453,0.374-0.866,0.226-1.245
			c-0.153-0.375-0.226-0.793-0.226-1.246c-1.21,0-1.811,0.531-1.811,1.585c0.453,0,0.753,0.152,0.905,0.453
			C64.918,136.354,65.222,136.503,65.675,136.503z M72.013,152.576h-1.584c0,0.453,0.262,0.756,0.792,0.905
			C71.748,153.633,72.013,153.332,72.013,152.576z"/>
		<path class="st0" d="M191.931,78.326c0,8.602,0.113,16.903,0.339,24.901c0.226,8,0.339,16.676,0.339,26.032
			c0,3.169,0.114,6.112,0.34,8.828c0.226,2.717,0.113,5.133-0.34,7.245c-0.756,2.114-2.001,3.887-3.735,5.319
			c-1.736,1.436-3.434,3.208-5.093,5.32c-0.605,0.756-1.21,1.736-1.811,2.942c-0.605,1.21-1.245,2.377-1.924,3.509
			c-0.679,1.133-1.358,2.151-2.038,3.056c-0.679,0.905-1.471,1.436-2.376,1.585c-1.21,0.453-2.982,0.304-5.32-0.453
			c-2.342-0.754-4.566-1.133-6.678-1.133h-28.296c-1.962,0-4.188,0.113-6.678,0.339c-2.489,0.226-4.566,0.113-6.224-0.339
			c-0.757,0-1.246-0.074-1.472-0.226c-0.226-0.149-0.491-0.601-0.792-1.358v0.905c0-1.206-0.378-2.072-1.132-2.604
			c-0.757-0.527-1.511-1.018-2.264-1.471h-0.679v1.584v0.906c0,0.453,0.074,0.679,0.226,0.679h0.453v0.905
			c0.453,0,0.828,0.152,1.132,0.453c0.149,0.152,0.301,0.226,0.453,0.226h0.906l0.905-0.679c-0.453,0.304-0.944,0.643-1.471,1.018
			c-0.531,0.379-1.171,0.566-1.925,0.566c-0.756,0-1.436-0.339-2.038-1.018c-0.605-0.679-1.209-1.507-1.81-2.49
			c-0.605-0.98-1.171-1.959-1.698-2.942c-0.53-0.98-1.096-1.773-1.697-2.377c-0.605-1.206-1.358-2.299-2.264-3.282
			c-0.905-0.98-1.81-1.924-2.716-2.83c-0.906-0.905-1.737-1.846-2.49-2.83c-0.757-0.98-1.21-2.072-1.359-3.281
			c-0.756-1.207-0.983-2.717-0.679-4.528c0.301-1.81,0.527-3.771,0.679-5.885c0.301-9.508,0.149-19.656-0.453-30.447
			c-0.605-10.788-0.756-21.618-0.453-32.484c0.301-9.961,0.414-19.844,0.339-29.655c-0.078-9.808,0.113-20.373,0.566-31.692
			l33.956,2.264c0.149,6.491,0.074,12.942-0.226,19.355c-0.304,6.416-0.605,12.828-0.905,19.241
			c-0.305,6.416-0.491,12.755-0.566,19.015c-0.079,6.264,0.188,12.415,0.792,18.45c1.054,1.51,1.584,3.396,1.584,5.659
			c0,1.663-0.152,3.247-0.453,4.754c-0.304,1.51-0.679,3.095-1.132,4.753c-0.304,4.832-0.644,9.847-1.018,15.053
			c-0.379,5.207-0.567,10.452-0.567,15.733c1.811,0.453,3.962,0.718,6.452,0.792c2.49,0.078,5.055,0.039,7.696-0.113
			c2.639-0.149,5.243-0.301,7.811-0.453c2.564-0.149,4.902-0.226,7.018-0.226c-0.606-9.657-1.171-19.695-1.698-30.108
			c-0.53-10.413-0.905-20.862-1.132-31.353c-0.226-10.488-0.339-20.861-0.339-31.126c0-10.26,0.226-20.069,0.679-29.428
			c5.28-1.206,10.562-1.924,15.846-2.151c5.281-0.226,10.788-0.566,16.525-1.018c0.753,10.112,1.093,21.017,1.018,32.71
			C191.966,54.142,191.931,66.101,191.931,78.326z M103.872,99.378c0.454,0,0.64-0.262,0.567-0.793
			c-0.079-0.527,0.261-0.792,1.018-0.792c0-0.601-0.531-0.905-1.585-0.905c0.454,0.453,0.567,0.87,0.339,1.245
			C103.985,98.511,103.872,98.925,103.872,99.378z M105.457,117.94v-0.905c0-0.301-0.152-0.567-0.453-0.793
			c-0.305-0.226-0.679,0.039-1.133,0.793c0.454,0,0.753,0.152,0.906,0.453C104.926,117.792,105.153,117.94,105.457,117.94z
			 M105.457,94.624h-0.679v1.585c0.301,0,0.488-0.074,0.566-0.226C105.418,95.834,105.457,95.381,105.457,94.624z M123.34,78.326
			c-0.453,0-0.757,0.113-0.905,0.339c-0.153,0.226-0.379,0.113-0.68-0.339c0,0.756,0.341,1.132,1.019,1.132
			C123.454,79.457,123.641,79.082,123.34,78.326z M124.019,113.186c0.453,0,0.753-0.186,0.905-0.566
			c0.149-0.375,0.453-0.792,0.906-1.245c-0.906,0-1.436-0.149-1.585-0.453c-0.152-0.301-0.226-0.679-0.226-1.133l-2.264-1.584
			c0,1.663,0.301,2.681,0.906,3.056C123.263,111.641,123.715,112.281,124.019,113.186z"/>
		<path class="st0" d="M309.66,5.66c0.453,1.811,0.715,4.113,0.792,6.904c0.074,2.794,0.074,5.66,0,8.602
			c-0.078,2.943-0.152,5.85-0.226,8.716c-0.078,2.869-0.039,5.285,0.113,7.244c-5.737-0.301-11.509-0.566-17.318-0.792
			c-5.812-0.226-11.583,0.039-17.318,0.792c-0.453,4.527-0.756,9.508-0.905,14.94c-0.152,5.433-0.265,10.979-0.339,16.639
			c-0.078,5.659-0.113,11.205-0.113,16.639c0,5.432-0.078,10.339-0.226,14.714c-0.304,11.318-0.792,22.449-1.472,33.389
			c-0.679,10.944-1.018,22.525-1.018,34.748c-4.831-0.301-10.187-0.301-16.072,0c-5.886,0.301-11.019,0.301-15.394,0
			c-0.453-9.508-0.679-19.354-0.679-29.541c0-10.187-0.378-21.693-1.132-34.522c-0.152-1.206-0.305-2.526-0.453-3.961
			c-0.153-1.433-0.226-2.752-0.226-3.961c0-1.207,0.261-2.264,0.792-3.169c0.527-0.906,0.792-1.733,0.792-2.49
			c0.453-2.111,0.375-4.301-0.226-6.565c-0.605-2.263-1.057-4.676-1.358-7.244c-0.757-5.733-0.68-11.92,0.226-18.562
			c0.905-6.639,1.358-13.657,1.358-21.053c-3.473-0.149-6.604-0.226-9.395-0.226c-2.794,0-5.51,0-8.149,0
			c-2.642,0-5.285,0.039-7.923,0.113c-2.642,0.078-5.472,0.113-8.49,0.113c0.454-5.734,0.715-11.053,0.793-15.96
			c0.074-4.902,0.113-9.769,0.113-14.601c14.183,0,27.313,0.079,39.389,0.226c12.072,0.153,23.996,0.079,35.767-0.226
			c4.828-0.148,9.621-0.339,14.375-0.566C300.491,5.773,305.133,5.66,309.66,5.66z M241.748,150.311l2.263-1.811
			C242.502,148.5,241.748,149.105,241.748,150.311z M243.333,129.259c0.301,0.304,0.792,0.417,1.472,0.339
			c0.679-0.074,1.018-0.488,1.018-1.245C244.16,128.354,243.333,128.657,243.333,129.259z M251.482,29.882h-1.81
			c0,1.057,0.301,1.584,0.905,1.584C251.178,31.013,251.482,30.486,251.482,29.882z M252.162,72.666v-0.679
			c-1.058,0-1.585,0.53-1.585,1.584c0.453,0,0.753-0.149,0.905-0.453C251.63,72.818,251.857,72.666,252.162,72.666z M254.651,14.489
			c0,0.453,0.262,0.679,0.793,0.679c0.527,0,0.792-0.226,0.792-0.679c-0.453,0-0.832-0.074-1.133-0.227
			C254.8,14.114,254.651,14.188,254.651,14.489z M259.405,83.984c1.054,0,1.584-0.226,1.584-0.679
			c-0.304-0.453-0.643-0.64-1.018-0.566C259.593,82.817,259.405,83.231,259.405,83.984z M265.064,92.813v-1.585
			c-0.304,0-0.679-0.226-1.132-0.679c-0.453-0.453-0.831-0.453-1.132,0c0.301,0.757,0.566,1.323,0.792,1.698
			C263.819,92.626,264.308,92.813,265.064,92.813z"/>
		<path class="st0" d="M403.185,132.428c1.205-1.206,3.015-1.545,5.431-1.018c2.414,0.53,4.602,0.643,6.565,0.339v31.466
			c-5.431,0.152-11.47,0.152-18.109,0c-6.642-0.149-13.395-0.262-20.261-0.34c-6.869-0.073-13.696-0.073-20.487,0
			c-6.79,0.079-12.98,0.418-18.562,1.019c-1.358-1.359-2.604-2.865-3.735-4.527c-1.132-1.66-2.228-3.318-3.282-4.981
			c-1.057-1.659-2.19-3.244-3.396-4.753c-1.209-1.507-2.642-2.943-4.301-4.301c0-0.301,0.339-0.527,1.018-0.68
			c0.68-0.148,1.167-0.453,1.472-0.905c-0.305-0.301-0.679-0.262-1.133,0.113c-0.453,0.378-0.905,0.339-1.358-0.113
			c0.905-13.731,1.132-27.618,0.679-41.653s-0.679-29.202-0.679-45.501c0-5.733-0.078-11.393-0.226-16.977
			c-0.152-5.582-0.078-11.241,0.226-16.978c0.453-2.865,0.679-5.773,0.679-8.716c0-2.942,0.601-5.694,1.811-8.262l33.276-1.584
			c0.753,0,0.941,0.226,0.566,0.679c-0.378,0.453-0.566,1.057-0.566,1.81c-0.453,2.416-0.566,5.02-0.339,7.811
			c0.226,2.794,0.453,5.51,0.679,8.149c0.226,2.642,0.226,5.132,0,7.47c-0.226,2.342-0.944,4.188-2.15,5.546
			c0.453,4.379,0.98,9.472,1.584,15.281c0.601,5.812,0.905,11.735,0.905,17.77c-0.152,1.81-0.453,3.735-0.905,5.772
			c-0.453,2.038-0.831,4.001-1.132,5.886c-0.305,1.889-0.418,3.735-0.339,5.547c0.074,1.81,0.64,3.396,1.697,4.753
			c-1.663,6.791-2.604,13.848-2.83,21.166c-0.226,7.321-0.944,14.226-2.15,20.713c7.545,1.51,15.241,2.037,23.089,1.584
			C384.77,133.56,393.526,133.033,403.185,132.428z M333.688,11.319c0-0.301-0.039-0.601-0.113-0.906
			c-0.078-0.301-0.339-0.226-0.792,0.226c-0.305,0-0.339,0.113-0.113,0.341C332.896,11.206,333.236,11.319,333.688,11.319z
			 M344.102,86.475h-1.584v1.584C343.571,88.059,344.102,87.532,344.102,86.475z M344.102,56.593c0.453,0.757,0.453,1.171,0,1.246
			c-0.453,0.078-0.679,0.491-0.679,1.245c1.054-0.453,1.697-0.301,1.924,0.453c0.226,0.757,0.941,1.133,2.151,1.133
			c0.301-0.454,0.488-1.019,0.566-1.698c0.074-0.679,0.113-1.167,0.113-1.471c-0.756-0.453-1.436-0.601-2.037-0.453
			C345.534,57.199,344.855,57.047,344.102,56.593z M350.666,74.25c0.753-1.959,0.601-3.317-0.453-4.075
			c-1.058-0.753-1.963-1.507-2.717-2.263h-0.453c-0.305,0-0.453,0.226-0.453,0.679l2.489,2.49c-0.756,0.756-1.584,1.17-2.489,1.245
			c-0.906,0.078-1.737,0.718-2.49,1.924c1.659,0,2.979-0.301,3.961-0.905C349.043,72.743,349.909,73.044,350.666,74.25z
			 M349.081,41.2c-0.756,0-1.283,0.304-1.584,0.905c-0.304,0.606-0.905,1.133-1.811,1.585c0.906,0.304,1.698,0.265,2.377-0.113
			C348.742,43.202,349.081,42.41,349.081,41.2z M346.592,92.133c1.054,0,1.584-0.3,1.584-0.905
			C347.119,91.228,346.592,91.533,346.592,92.133z M350.666,67.912c0.753-0.453,0.905-0.828,0.453-1.133
			c-0.453-0.301-0.905-0.453-1.358-0.453c0.301,0.305,0.453,0.531,0.453,0.679c0,0.153,0.074,0.305,0.226,0.454
			C350.44,67.612,350.515,67.764,350.666,67.912z M350.666,63.837c0.753,0,1.319,0.079,1.697,0.227
			c0.375,0.152,0.339,0.605-0.113,1.358c0.753,0,1.246-0.149,1.472-0.453c0.226-0.301,0.566-0.679,1.018-1.133
			c-0.756-0.453-1.55-0.866-2.377-1.245C351.533,62.217,350.967,62.631,350.666,63.837z M353.836,103.453
			c-0.305-0.453-0.418-0.98-0.339-1.585c0.074-0.601-0.039-0.905-0.339-0.905c-0.454,0.453-0.644,0.984-0.567,1.584
			C352.664,103.152,353.078,103.453,353.836,103.453z"/>
		<path class="st0" d="M514.799,133.333h0.226c0.302,0,0.455,0.226,0.455,0.679l5.658,35.088h-22.637
			c-2.114-4.828-3.701-9.694-4.754-14.601c-1.056-4.902-2.414-9.543-4.073-13.922c-4.379,0-9.247-0.149-14.601-0.453
			c-5.36-0.301-10.452-0.453-15.28-0.453c-2.116,4.378-3.51,9.02-4.189,13.922c-0.679,4.905-1.471,9.773-2.376,14.601
			c-3.927,0-8.002,0.188-12.225,0.566c-4.226,0.375-8.755,0.188-13.582-0.566l5.66-38.936c0.752,0.756,1.81,0.756,3.168,0
			c-0.756-0.453-1.358-0.601-1.81-0.453c-0.453,0.152-0.905,0-1.358-0.453c1.66-9.657,3.055-19.543,4.187-29.655
			c1.134-10.108,2.452-20.373,3.962-30.786l2.489-17.883c0.302-1.66,0.907-2.979,1.813-3.962c0.905-0.98,1.358-2.299,1.358-3.961
			c0.752-2.564,1.28-5.167,1.584-7.81c0.302-2.638,0.828-5.167,1.584-7.583c1.207-3.622,2.186-7.244,2.944-10.866
			c0.752-3.622,1.132-7.244,1.132-10.866h6.565c-0.453,0.304-0.756,0.378-0.905,0.226c-0.153-0.149-0.453-0.226-0.905-0.226
			c0,0.756,0.486,1.018,1.471,0.792c0.979-0.226,1.846-0.488,2.603-0.792c0.453,0,0.601,0.152,0.453,0.453
			c-0.151,0.304,0,0.679,0.453,1.132c0.302-0.453,0.601-0.753,0.905-0.905c0.302-0.149,0.226-0.375-0.226-0.679h16.3
			c2.864-0.453,5.054-0.753,6.565-0.905c1.507-0.149,2.563,1.209,3.168,4.075l2.263,11.997c0.754,1.663,1.393,3.434,1.926,5.32
			c0.526,1.888,1.018,3.661,1.471,5.319c0,0.304-0.153,0.418-0.453,0.339c-0.304-0.074-0.453,0.039-0.453,0.339v0.906
			c0-0.601-0.304-0.906-0.905-0.906c-0.455,0-0.681,0.153-0.681,0.453v0.454l-0.905-0.906v0.906c-0.304,0-0.643,0.078-1.018,0.226
			c-0.377,0.152-0.566,0.605-0.566,1.358v0.905h0.905h0.679l-0.679,0.679l0.679-0.679v0.679c-0.453,0.757-0.679,1.284-0.679,1.585
			v0.905l1.584-0.905v0.453c0,0.304,0.226,0.453,0.681,0.453c0.905,0,1.431-0.301,1.584-0.905c0.149-0.601,0.226-1.132,0.226-1.585
			v-0.679h-2.491h0.681c0.453-0.453,0.865-0.753,1.245-0.905c0.375-0.149,0.566-0.375,0.566-0.679l1.584,5.432
			c2.716,9.508,4.868,19.242,6.452,29.203c1.584,9.96,3.43,19.92,5.547,29.881c0,1.058-0.226,1.585-0.679,1.585
			c0.752,1.209,1.358,2.716,1.81,4.527c0.453,1.81,0.905,3.548,1.358,5.206c0.453,3.622,0.981,7.322,1.584,11.092
			c0.601,3.775,0.905,7.322,0.905,10.639C515.553,131.749,515.553,132.58,514.799,133.333z M461.376,11.319l-0.679,0.905h1.584
			h2.263v-0.905l0.905,0.905v-1.585h-0.905V9.734l-0.679,0.905h-0.905h-0.453c-0.153,0-0.304,0.079-0.453,0.227
			C461.902,11.019,461.676,11.171,461.376,11.319z M466.357,109.111c1.959,0.305,4.788,0.379,8.489,0.226
			c3.696-0.148,6.751-0.226,9.167-0.226c-1.209-7.244-2.454-14.41-3.734-21.505c-1.284-7.092-2.982-13.657-5.094-19.694
			c-1.664,6.491-3.361,13.168-5.094,20.033C468.354,94.815,467.109,101.868,466.357,109.111z M498.501,153.481h1.81h0.679
			l2.491,1.584l-0.905-2.489c-0.453-0.454-1.211-0.68-2.265-0.68h-0.905h-0.905l-1.584-0.905v0.905
			c0.453,0.757,0.752,1.21,0.905,1.359C497.971,153.406,498.197,153.481,498.501,153.481z"/>
		<path class="st0" d="M638.623,84.889c0.601-12.524,0.792-24.483,0.566-35.88c-0.226-11.393-0.113-23.125,0.339-35.201
			l33.051-2.489c-0.306,14.187-0.492,28.035-0.568,41.538c-0.078,13.508-0.113,27.129-0.113,40.861v-0.905h-1.584
			c-0.151,0.152-0.304,0.226-0.453,0.226c-0.304,0.304-0.453,0.53-0.453,0.679c-0.453,0.453-0.679,0.983-0.679,1.584
			c0,0.606,0.226,0.906,0.679,0.906l0.905,0.679l0.679-0.679v-0.906c0-0.453,0.302-0.679,0.905-0.679v-0.905v30.561
			c0,3.774-0.038,7.321-0.113,10.639c-0.078,3.321-0.339,6.791-0.792,10.413c-1.358,1.662-2.001,3.36-1.924,5.093
			c0.075,1.737,0.302,3.473,0.679,5.206c0.375,1.737,0.601,3.435,0.679,5.094c0.075,1.663-0.566,3.247-1.924,4.753
			c-1.963,0-4.641,0.039-8.036,0.113c-3.397,0.079-7.095,0.113-11.093,0.113c-4,0-8.036,0.079-12.109,0.226
			c-4.076,0.153-7.812,0.226-11.206,0.226c-3.395,0-6.225,0.04-8.489,0.113c-2.265,0.079-3.548,0.113-3.849,0.113
			c-0.756-0.148-2.341-0.226-4.752-0.226c-2.416,0-5.021,0.04-7.812,0.113c-2.793,0.079-5.431,0.192-7.923,0.341
			c-2.489,0.152-4.038,0.304-4.639,0.453c-0.759,0-1.85-0.149-3.284-0.453c-1.435-0.301-2.755-0.375-3.96-0.227
			c-3.022,0.153-5.999,0.153-8.943,0c-2.942-0.148-5.884-0.3-8.828-0.453c-2.942-0.148-5.85-0.188-8.715-0.113
			c-2.869,0.079-5.66,0.492-8.375,1.246c-1.664-1.207-2.831-2.717-3.51-4.528c-0.679-1.81-1.624-3.77-2.829-5.885
			c-1.209-1.66-2.944-3.282-5.207-4.868c-2.263-1.584-3.774-3.43-4.528-5.546c-0.453-1.66-0.49-3.431-0.113-5.32
			c0.375-1.885,0.641-3.657,0.794-5.319c0.3-3.923,0.373-8.185,0.226-12.79c-0.153-4.602-0.226-8.941-0.226-13.017
			c0-1.206-0.266-2.412-0.794-3.622c-0.53-1.206-0.792-2.412-0.792-3.622c-0.304-6.79-0.038-13.617,0.792-20.486
			c0.828-6.866,0.867-12.939,0.113-18.224c0.302-0.753,0.601-1.132,0.907-1.132c0.3,0,0.226-0.149-0.226-0.453
			c1.205-0.453,1.393-0.64,0.566-0.566c-0.832,0.078-1.247-0.262-1.247-1.018V12.225v-0.453c0-0.301,0.226-0.453,0.681-0.453
			c2.412,0,5.054,0.152,7.923,0.453c2.864,0.304,5.771,0.605,8.715,0.905c2.942,0.304,5.846,0.643,8.715,1.018
			c2.864,0.379,5.507,0.644,7.923,0.793c0,4.527,0.149,9.054,0.453,13.581c0.302,4.528-0.151,8.376-1.358,11.546
			c0.453,14.187,0.528,27.582,0.226,40.181c-0.304,12.603-0.905,25.014-1.81,37.239c-0.304,3.622-0.566,6.943-0.792,9.96
			c-0.226,3.021,0.036,6.19,0.792,9.508c4.073,0.757,8.298,0.757,12.677,0c4.375-0.753,8.75-1.28,13.13-1.584
			c0-6.339-0.04-12.904-0.113-19.695c-0.08-6.791-0.266-13.431-0.568-19.921c-0.304-7.244-0.417-14.375-0.339-21.392
			c0.075-7.018-0.113-14.148-0.566-21.392c-0.151-3.622-0.264-6.904-0.339-9.846c-0.078-2.943-0.151-5.886-0.226-8.829
			c-0.078-2.943-0.113-5.921-0.113-8.942c0-3.016,0-6.486,0-10.412c4.828-1.207,9.962-1.621,15.393-1.246
			c5.433,0.378,11.016,0.566,16.753,0.566c-0.153,10.866-0.304,21.244-0.453,31.126c-0.153,9.886-0.339,19.659-0.566,29.315
			c-0.226,9.66-0.566,19.394-1.02,29.203c-0.453,9.812-1.056,19.999-1.81,30.56c1.81,0.305,3.962,0.606,6.452,0.906
			c2.491,0.304,4.981,0.53,7.47,0.679c2.491,0.152,4.903,0.191,7.244,0.113c2.339-0.074,4.415-0.339,6.225-0.792
			c0-5.281-0.339-10.526-1.018-15.733c-0.679-5.206-1.171-10.449-1.471-15.732c-0.153-1.66-0.453-3.131-0.905-4.415
			c-0.453-1.28-0.679-2.751-0.679-4.414c0.3-1.507,0.599-3.056,0.905-4.64C638.244,88.398,638.47,86.701,638.623,84.889z
			 M541.736,49.349c-0.453-0.453-0.566-0.753-0.339-0.905c0.226-0.149,0.339-0.375,0.339-0.679c-1.662,0.756-2.489,1.81-2.489,3.169
			c0.601,0.304,0.941,0.339,1.018,0.113c0.073-0.226,0.113-0.488,0.113-0.792c0-0.301,0.073-0.567,0.226-0.793
			C540.753,49.236,541.13,49.201,541.736,49.349z M543.32,45.275h-0.905c0,0.757,0.113,1.472,0.339,2.151
			c0.226,0.679,0.941,1.018,2.152,1.018V46.86c-0.306,0-0.532-0.149-0.681-0.453C544.074,46.106,543.772,45.727,543.32,45.275z
			 M544.225,115.45c1.66-0.301,2.98-1.28,3.962-2.943c0.981-1.659,1.245-3.317,0.792-4.98c-0.453,0.304-0.905,0.378-1.358,0.226
			c-0.453-0.149-1.058-0.226-1.81-0.226c0,0.304-0.04,0.756-0.113,1.358c-0.08,0.606-0.339,0.905-0.792,0.905
			c0.453,0.757,0.413,1.436-0.115,2.038c-0.53,0.605-1.018,1.284-1.471,2.038c0.453,0,0.792,0.191,1.018,0.566
			C544.565,114.81,544.527,115.149,544.225,115.45z M544.225,154.16c-0.453,0.453-0.304,0.831,0.453,1.132
			c0.754,0.305,1.134,0.226,1.134-0.226c-0.453,0-0.759-0.149-0.905-0.453C544.753,154.312,544.527,154.16,544.225,154.16z
			 M544.906,42.105c0,0.453,0.526,0.68,1.584,0.68h0.453c0.3,0,0.453-0.227,0.453-0.68c-0.453-0.453-0.87-0.566-1.245-0.339
			C545.771,41.992,545.359,42.105,544.906,42.105z M548.98,62.253c-0.756-0.453-1.511-0.527-2.263-0.226
			c-0.756,0.304-1.358,0.605-1.81,0.905c0,0.905,0.147,1.472,0.453,1.698c0.3,0.226,0.453,0.491,0.453,0.792
			c0.752-0.301,1.358-0.715,1.81-1.245C548.074,63.65,548.527,63.01,548.98,62.253z M546.943,46.181h0.453v-0.906h-0.905
			c-0.153,0.152-0.226,0.453-0.226,0.906c0,0.453,0.073,0.679,0.226,0.679C546.49,46.407,546.639,46.181,546.943,46.181z
			 M553.055,154.16c0.3-0.753,0.375-1.245,0.226-1.471c-0.153-0.226-0.226-0.488-0.226-0.793c-0.453,0-0.872,0.079-1.247,0.226
			c-0.377,0.153-0.792,0.079-1.245-0.226c0.453,0.757,0.488,1.398,0.113,1.925c-0.377,0.53-0.417,1.245-0.113,2.151
			c0.453-0.454,0.792-1.055,1.018-1.811C551.808,153.406,552.297,153.406,553.055,154.16z"/>
		<path class="st0" d="M703,4.076c13.279-0.753,26.448-1.508,39.503-2.264C755.555,1.058,768.196,0.454,780.419,0
			c-0.151,2.416-0.417,5.02-0.792,7.811c-0.377,2.794-0.679,5.584-0.905,8.375c-0.226,2.794-0.304,5.585-0.226,8.375
			c0.075,2.794,0.488,5.398,1.245,7.811c-2.114,0.605-4.526,0.983-7.244,1.132c-2.716,0.152-5.584,0.191-8.602,0.113
			c-3.022-0.074-6.077-0.226-9.167-0.453c-3.095-0.226-6.077-0.488-8.943-0.792h-26.71c-0.304,5.284-0.226,10.413,0.226,15.393
			c0.453,4.98,0.679,10.639,0.679,16.978l54.783,2.263l4.073,32.372c0.453,0.756,0.262,1.132-0.566,1.132
			c-0.832,0-1.171,0.453-1.018,1.358c0.3,6.038,0.262,11.736-0.113,17.091c-0.379,5.359-0.566,10.678-0.566,15.96
			c0,1.358,0.073,3.586,0.226,6.677c0.149,3.095,0.226,6.304,0.226,9.621c0,3.321-0.153,6.416-0.453,9.282
			c-0.304,2.869-0.905,4.831-1.81,5.885c-0.453,0.454-2.003,0.832-4.641,1.133c-2.642,0.304-5.624,0.53-8.941,0.679
			c-3.321,0.149-6.529,0.226-9.622,0.226c-3.095,0-5.318-0.078-6.678-0.226c0-0.753-0.304-1.132-0.905-1.132
			c-0.603,0-1.056,0-1.358,0h-0.905h-0.905v0.905l0.905,0.226c-2.116-0.301-3.962-0.414-5.547-0.339
			c-1.584,0.078-3.208,0.113-4.868,0.113h3.17v-0.905c0-0.753-0.226-1.472-0.679-2.151c-0.453-0.679-1.058-1.018-1.81-1.018h-0.681
			l-0.905,0.905l-0.905,0.679v0.905v0.68h0.905h0.905v0.905c-4.226-0.149-8.227-0.226-11.996-0.226c-3.774,0-7.51,0-11.206,0
			c-3.698,0-7.47,0.039-11.317,0.113c-3.849,0.078-7.963,0.113-12.338,0.113c0-5.28,0.036-10.827,0.113-16.639
			c0.073-5.807,0.262-10.753,0.566-14.827c1.207,0.453,2.565,0.453,4.073,0c1.509-0.453,3.093-0.453,4.754,0
			c1.207,0,2.15,0.265,2.831,0.792c0.679,0.531,1.62,0.792,2.829,0.792c1.66,0.454,3.317,0.531,4.981,0.227
			c1.657-0.301,3.543-0.375,5.658-0.227c5.735,0.305,11.772,0.68,18.111,1.133c6.339,0.453,12.373,0.078,18.111-1.133
			c0-6.486-0.306-12.751-0.907-18.789c-0.604-6.034-1.056-12.676-1.358-19.92c-9.507,0.304-19.207,0.039-29.089-0.793
			c-9.886-0.828-19.582-1.62-29.089-2.376c0-5.281-0.453-10.639-1.358-16.073c-0.905-5.432-0.983-10.562-0.226-15.393
			c0-0.906,0.113-1.733,0.339-2.49c0.226-0.753,0.339-1.28,0.339-1.584c0.149-0.906,0.262-2.752,0.339-5.547
			c0.073-2.791,0.113-5.999,0.113-9.621c0-3.622-0.04-7.47-0.113-11.545c-0.078-4.075-0.113-7.923-0.113-11.545
			s-0.04-6.791-0.113-9.508c-0.078-2.717-0.113-4.602-0.113-5.66c0.149-1.358,0.601-2.186,1.358-2.489
			c0.754-0.301,1.81-0.375,3.17-0.226c1.358,0.152,3.128,0.265,5.318,0.339C697.149,4.945,699.831,4.68,703,4.076z M694.851,62.253
			c0.453,0.304,0.941,0.417,1.471,0.339c0.528-0.074,0.568-0.488,0.115-1.245C695.379,61.347,694.851,61.651,694.851,62.253z
			 M698.926,72.666c0,0.453-0.153,0.792-0.453,1.018c-0.304,0.226-0.453,0.719-0.453,1.472c0.752-0.453,1.245-0.601,1.471-0.453
			c0.226,0.152,0.566,0,1.018-0.454c0-0.301-0.153-0.414-0.453-0.339c-0.304,0.079-0.453-0.035-0.453-0.339v-0.453
			C699.605,72.818,699.379,72.666,698.926,72.666z M698.926,76.74c-0.453,0.757-0.153,1.132,0.905,1.132
			c1.054,0,1.584-0.374,1.584-1.132c-0.905-0.301-1.471-0.375-1.697-0.226C699.492,76.666,699.226,76.74,698.926,76.74z
			 M702.094,75.156c0.453-0.453,0.828-0.906,1.132-1.359c0.302-0.453,0.455-1.054,0.455-1.81c-0.306-0.753-0.794-0.828-1.473-0.226
			c-0.679,0.605-1.245,0.905-1.697,0.905c0.453,0.453,0.641,0.984,0.566,1.584C700.998,74.856,701.338,75.156,702.094,75.156z
			 M702.094,68.591v1.81c0.453,0,1.018-0.035,1.699-0.113c0.679-0.074,1.167-0.339,1.471-0.792c-0.756,0-1.284-0.149-1.584-0.453
			C703.375,68.743,702.849,68.591,702.094,68.591z M705.265,75.156c0,0.605,0.601,0.905,1.81,0.905
			C707.075,75.46,706.47,75.156,705.265,75.156z M720.658,83.984c-0.304,0-0.756,0.039-1.358,0.113
			c-0.606,0.078-0.905,0.339-0.905,0.792c0.3,0.305,0.752,0.418,1.358,0.341C720.354,85.156,720.658,84.742,720.658,83.984z
			 M723.826,66.327c-0.304,0-0.679-0.113-1.132-0.339c-0.453-0.226-0.83-0.113-1.132,0.339c-0.453,0.757-0.191,1.133,0.792,1.133
			C723.336,67.46,723.826,67.085,723.826,66.327z M723.826,15.394c0.601,0,0.907-0.301,0.907-0.905
			C724.128,14.035,723.826,14.34,723.826,15.394z"/>
	</g>
</g>
</svg>
