<svg width="80" height="80" viewBox="0 0 80 80" fill="none" xmlns="http://www.w3.org/2000/svg">
<path d="M40 44.9888C41.5166 44.9892 42.8838 44.0757 43.4649 42.6743C44.0454 41.2734 43.7251 39.6606 42.6524 38.5879C41.168 37.1729 38.834 37.1729 37.3496 38.5879C36.2784 39.6597 35.9571 41.2725 36.5376 42.6733C37.1172 44.0747 38.4839 44.9883 40 44.9888ZM39.1162 40.355C39.6045 39.8672 40.3955 39.8672 40.8838 40.355C41.3716 40.8433 41.3716 41.6348 40.8838 42.1226C40.3897 42.5957 39.6104 42.5957 39.1162 42.1226C38.6284 41.6348 38.6284 40.8433 39.1162 40.355Z" fill="#69B99D"/>
<path d="M55 27.4888C55.3315 27.4888 55.6494 27.3569 55.8838 27.1226L67.1338 15.8725C67.6075 15.3823 67.6006 14.6025 67.1187 14.1201C66.6363 13.6382 65.857 13.6313 65.3662 14.105L54.1162 25.355C53.7593 25.7129 53.6518 26.2505 53.8452 26.7173C54.0386 27.1841 54.4946 27.4888 55 27.4888Z" fill="#69B99D"/>
<path d="M48.75 33.7388C49.0815 33.7388 49.3994 33.6069 49.6338 33.3725L52.1338 30.8725C52.6074 30.3823 52.6006 29.6025 52.1186 29.1201C51.6362 28.6382 50.8569 28.6313 50.3662 29.105L47.8662 31.605C47.5093 31.9629 47.4018 32.5005 47.5952 32.9673C47.7886 33.4341 48.2446 33.7388 48.75 33.7388Z" fill="#69B99D"/>
<path d="M16.25 62.4888C13.4888 62.4888 11.25 64.7275 11.25 67.4888C11.25 70.2505 13.4888 72.4888 16.25 72.4888C19.0112 72.4888 21.25 70.2505 21.25 67.4888C21.25 64.7275 19.0112 62.4888 16.25 62.4888ZM16.25 69.9888C14.8691 69.9888 13.75 68.8701 13.75 67.4888C13.75 66.1084 14.8691 64.9888 16.25 64.9888C17.6309 64.9888 18.75 66.1084 18.75 67.4888C18.75 68.8701 17.6309 69.9888 16.25 69.9888Z" fill="#69B99D"/>
<path d="M63.7964 72.4888C66.5576 72.4888 68.7964 70.2505 68.7964 67.4888C68.7964 64.7275 66.5576 62.4888 63.7964 62.4888C61.0347 62.4888 58.7964 64.7275 58.7964 67.4888C58.7964 70.2505 61.0347 72.4888 63.7964 72.4888ZM63.7964 64.9888C65.1768 64.9888 66.2964 66.1084 66.2964 67.4888C66.2964 68.8701 65.1768 69.9888 63.7964 69.9888C62.416 69.9888 61.2964 68.8701 61.2964 67.4888C61.2964 66.1084 62.416 64.9888 63.7964 64.9888Z" fill="#69B99D"/>
<path d="M76.25 46.2388C73.4888 46.2388 71.25 44.0005 71.25 41.2388C71.25 40.5483 70.6904 39.9888 70 39.9888C69.3096 39.9888 68.75 40.5483 68.75 41.2388C68.75 44.0005 66.5112 46.2388 63.75 46.2388C63.0596 46.2388 62.5 46.7983 62.5 47.4888C62.5 48.1792 63.0596 48.7388 63.75 48.7388C66.5112 48.7388 68.75 50.9775 68.75 53.7388C68.75 54.4292 69.3096 54.9888 70 54.9888C70.6904 54.9888 71.25 54.4292 71.25 53.7388C71.25 50.9775 73.4888 48.7388 76.25 48.7388C76.9404 48.7388 77.5 48.1792 77.5 47.4888C77.5 46.7983 76.9404 46.2388 76.25 46.2388ZM70 49.6021C69.4434 48.7637 68.7251 48.0454 67.8877 47.4888C68.7251 46.9326 69.4434 46.2144 70 45.3765C70.5566 46.2144 71.2749 46.9326 72.1123 47.4888C71.2749 48.0454 70.5566 48.7637 70 49.6021Z" fill="#69B99D"/>
<path d="M3.75 33.7388C6.51123 33.7388 8.75 35.9775 8.75 38.7388C8.75 39.4292 9.30957 39.9888 10 39.9888C10.6904 39.9888 11.25 39.4292 11.25 38.7388C11.25 35.9775 13.4888 33.7388 16.25 33.7388C16.9404 33.7388 17.5 33.1792 17.5 32.4888C17.5 31.7983 16.9404 31.2388 16.25 31.2388C13.4888 31.2388 11.25 29.0005 11.25 26.2388C11.25 25.5483 10.6904 24.9888 10 24.9888C9.30957 24.9888 8.75 25.5483 8.75 26.2388C8.75 29.0005 6.51123 31.2388 3.75 31.2388C3.05957 31.2388 2.5 31.7983 2.5 32.4888C2.5 33.1792 3.05957 33.7388 3.75 33.7388ZM10 30.3765C10.5566 31.2144 11.2749 31.9326 12.1123 32.4888C11.2749 33.0454 10.5566 33.7637 10 34.6021C9.44336 33.7637 8.7251 33.0454 7.8877 32.4888C8.7251 31.9326 9.44336 31.2144 10 30.3765Z" fill="#69B99D"/>
<path d="M32.75 45.4741L20 58.2217C18.8096 57.7354 17.5361 57.4868 16.25 57.4888C10.7271 57.4888 6.25 61.9663 6.25 67.4888C6.25 73.0117 10.7271 77.4888 16.25 77.4888C21.7729 77.4888 26.25 73.0117 26.25 67.4888C26.249 66.8911 26.1924 66.2945 26.083 65.7066L40.0239 52.0816L53.9639 65.7066C53.8535 66.2945 53.7979 66.8911 53.7964 67.4888C53.7964 73.0117 58.2734 77.4888 63.7964 77.4888C69.3188 77.4888 73.7964 73.0117 73.7964 67.4888C73.7964 61.9663 69.3188 57.4888 63.7964 57.4888C62.5103 57.4864 61.2363 57.7354 60.0464 58.2217L47.3115 45.4893L70.9761 18.27C76.4839 11.3853 71.0947 3.12795 71.04 3.04544C70.8369 2.74075 70.5103 2.54055 70.1465 2.49807C69.7812 2.45608 69.4165 2.57424 69.146 2.82278L40.0347 29.8643L10.9199 2.82278C10.6499 2.57424 10.2852 2.45608 9.91992 2.49807C9.55615 2.54055 9.22949 2.74075 9.02637 3.04544C8.9707 3.12795 3.58398 11.3853 9.12354 18.3091L32.75 45.4741ZM23.8384 64.4053C23.5186 64.7183 23.3906 65.1782 23.502 65.6114C24.3057 68.7173 23.0444 71.9898 20.3652 73.7534C17.6855 75.5176 14.1816 75.3819 11.646 73.4165C9.11084 71.4512 8.10596 68.0909 9.14648 65.0567C10.1875 62.022 13.042 59.9854 16.25 59.9888C17.4487 59.9878 18.6299 60.2764 19.6924 60.8316C20.1763 61.0821 20.7661 60.9903 21.1514 60.6055L34.3872 47.3706C35.1274 48.0679 35.9824 48.6328 36.915 49.0391L38.2349 50.3301L23.8384 64.4053ZM60.3555 60.8316C61.417 60.2764 62.5977 59.9878 63.7964 59.9888C67.0293 59.9693 69.9165 62.0117 70.9736 65.0674C72.0308 68.1236 71.0229 71.5127 68.4678 73.4951C65.9131 75.4771 62.3799 75.6114 59.6821 73.8281C56.9849 72.0449 55.7231 68.7412 56.5459 65.6138C56.6582 65.1812 56.5303 64.7207 56.21 64.4077L41.0508 49.5879C42.7725 49.3238 44.3711 48.5386 45.6323 47.3379L58.8955 60.6006C59.2793 60.9878 59.8701 61.0816 60.3555 60.8316ZM69.6724 5.74954C70.7251 7.98831 72.2471 12.6792 69.0576 16.669L44.1162 45.355C41.8516 47.6377 38.166 47.6524 35.8838 45.3882C33.6016 43.1236 33.5869 39.4375 35.8516 37.1558L69.6724 5.74954ZM10.3901 5.73879L38.1978 31.5655L34.1162 35.355C32.7393 36.69 31.8574 38.4532 31.6162 40.355L11.0449 16.7075C7.79834 12.6504 9.32617 7.97512 10.3901 5.73879Z" fill="#69B99D"/>
</svg>
