<svg width="186" height="186" viewBox="0 0 186 186" fill="none" xmlns="http://www.w3.org/2000/svg">
<path d="M117.594 48.5927C116.666 48.7916 115.838 49.3123 115.258 50.0626C114.677 50.8129 114.38 51.7444 114.42 52.6924V133.077C114.326 133.652 114.358 134.241 114.514 134.802C114.67 135.364 114.946 135.885 115.324 136.329C115.701 136.773 116.17 137.13 116.699 137.375C117.228 137.619 117.804 137.746 118.387 137.746C118.97 137.746 119.545 137.619 120.074 137.375C120.603 137.13 121.073 136.773 121.45 136.329C121.827 135.885 122.104 135.364 122.259 134.802C122.415 134.241 122.447 133.652 122.353 133.077V52.6924C122.367 52.1273 122.261 51.5658 122.042 51.0445C121.824 50.5231 121.498 50.0537 121.086 49.6668C120.674 49.2799 120.185 48.9843 119.651 48.7992C119.117 48.6142 118.55 48.5438 117.987 48.5927C117.856 48.5863 117.725 48.5863 117.594 48.5927V48.5927ZM66.8243 52.8235C65.8966 53.0224 65.0692 53.5431 64.4885 54.2934C63.9078 55.0437 63.6112 55.9752 63.6512 56.9231V128.846C63.557 129.421 63.589 130.01 63.7449 130.572C63.9009 131.133 64.1771 131.654 64.5544 132.098C64.9317 132.542 65.4011 132.899 65.93 133.144C66.459 133.389 67.0348 133.515 67.6176 133.515C68.2004 133.515 68.7762 133.389 69.3051 133.144C69.8341 132.899 70.3035 132.542 70.6808 132.098C71.0581 131.654 71.3343 131.133 71.4902 130.572C71.6462 130.01 71.6782 129.421 71.5839 128.846V56.9231C71.5974 56.3581 71.4915 55.7966 71.2732 55.2752C71.0549 54.7539 70.7291 54.2845 70.317 53.8976C69.905 53.5107 69.416 53.2151 68.882 53.03C68.3479 52.8449 67.7809 52.7746 67.2178 52.8235C67.0867 52.8171 66.9554 52.8171 66.8243 52.8235V52.8235ZM104.901 65.5158C103.974 65.7147 103.146 66.2354 102.565 66.9857C101.985 67.736 101.688 68.6675 101.728 69.6154V116.154C101.632 116.73 101.662 117.32 101.817 117.883C101.972 118.446 102.248 118.968 102.625 119.414C103.002 119.859 103.472 120.217 104.002 120.463C104.532 120.709 105.109 120.836 105.692 120.836C106.276 120.836 106.853 120.709 107.383 120.463C107.913 120.217 108.382 119.859 108.76 119.414C109.137 118.968 109.413 118.446 109.568 117.883C109.723 117.32 109.753 116.73 109.657 116.154V69.6154C109.67 69.0512 109.564 68.4904 109.346 67.9697C109.129 67.449 108.804 66.98 108.393 66.5933C107.981 66.2065 107.493 65.9107 106.96 65.7251C106.427 65.5394 105.861 65.4681 105.299 65.5158C105.165 65.5091 105.031 65.5091 104.897 65.5158H104.901ZM54.132 69.7466C53.2043 69.9455 52.3769 70.4661 51.7962 71.2164C51.2155 71.9667 50.9189 72.8983 50.9589 73.8462V111.923C50.8627 112.499 50.893 113.089 51.0479 113.652C51.2028 114.215 51.4785 114.737 51.8558 115.183C52.2331 115.629 52.703 115.987 53.2327 116.232C53.7624 116.478 54.3393 116.605 54.9232 116.605C55.507 116.605 56.0839 116.478 56.6136 116.232C57.1434 115.987 57.6132 115.629 57.9905 115.183C58.3678 114.737 58.6435 114.215 58.7984 113.652C58.9533 113.089 58.9837 112.499 58.8874 111.923V73.8462C58.9007 73.2819 58.795 72.7212 58.5772 72.2005C58.3594 71.6798 58.0344 71.2108 57.6233 70.8241C57.2122 70.4373 56.7243 70.1415 56.1913 69.9558C55.6582 69.7702 55.0921 69.6989 54.5297 69.7466C54.3958 69.7399 54.2617 69.7399 54.1278 69.7466H54.132ZM79.5166 73.9774C78.5889 74.1763 77.7615 74.6969 77.1808 75.4472C76.6001 76.1975 76.3035 77.129 76.3435 78.077V107.692C76.2473 108.268 76.2777 108.858 76.4325 109.421C76.5874 109.984 76.8631 110.507 77.2404 110.952C77.6177 111.398 78.0876 111.756 78.6173 112.001C79.147 112.247 79.7239 112.374 80.3078 112.374C80.8917 112.374 81.4685 112.247 81.9983 112.001C82.528 111.756 82.9978 111.398 83.3751 110.952C83.7524 110.507 84.0281 109.984 84.183 109.421C84.3379 108.858 84.3683 108.268 84.272 107.692V78.077C84.2853 77.5127 84.1796 76.952 83.9618 76.4313C83.744 75.9106 83.419 75.4416 83.0079 75.0548C82.5968 74.6681 82.1089 74.3723 81.5759 74.1866C81.0429 74.001 80.4767 73.9297 79.9143 73.9774C79.7804 73.9707 79.6463 73.9707 79.5124 73.9774H79.5166ZM130.286 73.9774C129.358 74.1763 128.531 74.6969 127.95 75.4472C127.369 76.1975 127.073 77.129 127.113 78.077V107.692C127.019 108.267 127.051 108.856 127.206 109.418C127.362 109.979 127.639 110.5 128.016 110.944C128.393 111.389 128.863 111.745 129.392 111.99C129.921 112.235 130.496 112.361 131.079 112.361C131.662 112.361 132.238 112.235 132.767 111.99C133.296 111.745 133.765 111.389 134.142 110.944C134.52 110.5 134.796 109.979 134.952 109.418C135.108 108.856 135.14 108.267 135.045 107.692V78.077C135.059 77.5119 134.953 76.9504 134.735 76.4291C134.516 75.9077 134.191 75.4383 133.779 75.0514C133.367 74.6646 132.878 74.3689 132.343 74.1838C131.809 73.9988 131.242 73.9284 130.679 73.9774C130.548 73.9709 130.417 73.9709 130.286 73.9774ZM41.4397 82.4389C40.512 82.6378 39.6846 83.1585 39.1039 83.9087C38.5231 84.659 38.2266 85.5906 38.2666 86.5385V99.2308C38.1724 99.8059 38.2044 100.395 38.3603 100.956C38.5163 101.518 38.7925 102.039 39.1698 102.483C39.5471 102.927 40.0165 103.284 40.5454 103.528C41.0744 103.773 41.6502 103.9 42.233 103.9C42.8158 103.9 43.3916 103.773 43.9205 103.528C44.4495 103.284 44.9188 102.927 45.2962 102.483C45.6735 102.039 45.9497 101.518 46.1056 100.956C46.2616 100.395 46.2936 99.8059 46.1993 99.2308V86.5385C46.2127 85.9735 46.1069 85.412 45.8885 84.8906C45.6702 84.3693 45.3444 83.8999 44.9324 83.513C44.5204 83.1261 44.0314 82.8305 43.4973 82.6454C42.9633 82.4603 42.3962 82.39 41.8332 82.4389C41.7007 82.4323 41.568 82.4323 41.4355 82.4389H41.4397ZM92.2089 82.4389C91.2812 82.6378 90.4538 83.1585 89.8731 83.9087C89.2924 84.659 88.9958 85.5906 89.0359 86.5385V99.2308C88.9396 99.8067 88.97 100.397 89.1248 100.96C89.2797 101.523 89.5554 102.045 89.9327 102.491C90.31 102.936 90.7799 103.294 91.3096 103.54C91.8393 103.785 92.4162 103.913 93.0001 103.913C93.584 103.913 94.1608 103.785 94.6906 103.54C95.2203 103.294 95.6902 102.936 96.0675 102.491C96.4448 102.045 96.7204 101.523 96.8753 100.96C97.0302 100.397 97.0606 99.8067 96.9643 99.2308V86.5385C96.9776 85.9742 96.8719 85.4135 96.6541 84.8928C96.4363 84.3721 96.1113 83.9031 95.7002 83.5164C95.2891 83.1296 94.8012 82.8338 94.2682 82.6482C93.7352 82.4625 93.169 82.3912 92.6066 82.4389C92.4727 82.4322 92.3386 82.4322 92.2047 82.4389H92.2089ZM142.978 82.4389C142.05 82.6378 141.223 83.1585 140.642 83.9087C140.062 84.659 139.765 85.5906 139.805 86.5385V99.2308C139.711 99.8059 139.743 100.395 139.899 100.956C140.055 101.518 140.331 102.039 140.708 102.483C141.086 102.927 141.555 103.284 142.084 103.528C142.613 103.773 143.189 103.9 143.771 103.9C144.354 103.9 144.93 103.773 145.459 103.528C145.988 103.284 146.457 102.927 146.835 102.483C147.212 102.039 147.488 101.518 147.644 100.956C147.8 100.395 147.832 99.8059 147.738 99.2308V86.5385C147.751 85.9735 147.645 85.412 147.427 84.8906C147.209 84.3693 146.883 83.8999 146.471 83.513C146.059 83.1261 145.57 82.8305 145.036 82.6454C144.502 82.4603 143.935 82.39 143.372 82.4389C143.241 82.4325 143.109 82.4325 142.978 82.4389Z" fill="url(#paint0_linear)"/>
<circle cx="93" cy="93" r="86.5" stroke="url(#paint1_linear)" stroke-width="13"/>
<defs>
<linearGradient id="paint0_linear" x1="93.0022" y1="48.5776" x2="93.0022" y2="137.746" gradientUnits="userSpaceOnUse">
<stop stop-color="#D407E6"/>
<stop offset="1" stop-color="#DCE000"/>
</linearGradient>
<linearGradient id="paint1_linear" x1="93" y1="0" x2="93" y2="186" gradientUnits="userSpaceOnUse">
<stop stop-color="#D518F4"/>
<stop offset="1" stop-color="#ECC80D"/>
</linearGradient>
</defs>
</svg>
