<svg width="870" height="656" viewBox="0 0 870 656" fill="none" xmlns="http://www.w3.org/2000/svg">
<path fill-rule="evenodd" clip-rule="evenodd" d="M419.731 119.171C475.361 112.481 520.694 49.8501 573.788 65.5022C624.016 80.3093 612.929 148.94 644.442 185.415C674.444 220.141 742.136 231.191 753.281 273.256C764.432 315.347 718.407 352.558 699.312 392.522C682.9 426.872 666.688 459.816 648.115 493.358C625.094 534.932 625.31 596.032 576.147 614.949C526.509 634.049 472.19 593.713 419.731 581.238C379.062 571.567 337.201 566.965 300.372 549.368C264.698 532.323 240.128 504.173 209.698 480.885C174.001 453.568 128.214 434.994 104.48 399.46C78.3957 360.407 43.4768 309.304 68.7545 269.866C97.0445 225.73 184.078 241.543 227.518 207.502C261.941 180.528 244.118 119.111 285.278 100.196C325.771 81.5873 374.177 124.649 419.731 119.171Z" fill="#E9F0BA"/>
<path d="M212.128 207.648V258.217C212.128 258.326 208.778 259.567 208.539 259.675C205.968 260.813 203.641 262.439 201.688 264.462C196.294 270.446 199.948 280.347 208.213 279.912C216.913 279.455 218.957 270.098 219.436 262.918V211.652L253.475 193.831V184.823L212.128 207.648Z" fill="#3B0459"/>
<path d="M246.167 188.522V230.583C246.167 230.692 242.817 231.932 242.578 232.041C240.006 233.178 237.68 234.804 235.727 236.828C230.333 242.812 233.987 252.712 242.252 252.277C250.952 251.82 252.996 242.464 253.475 235.283V186.563C250.995 187.129 248.559 187.782 246.167 188.522Z" fill="#3B0459"/>
<path d="M315.679 137.866V200.098C315.679 200.25 311.547 201.751 311.329 201.882C308.162 203.285 305.297 205.287 302.89 207.779C296.257 215.134 300.715 227.362 310.894 226.797C321.508 226.231 324.118 214.72 324.727 205.886V142.783L366.618 120.872V109.774L315.679 137.866Z" fill="#3B0459"/>
<path d="M357.57 114.344V166.088C357.57 166.24 353.437 167.742 353.22 167.872C350.053 169.275 347.187 171.277 344.781 173.769C338.147 181.124 342.606 193.352 352.785 192.787C363.399 192.221 366.009 180.71 366.618 171.876V111.95C363.529 112.581 360.528 113.43 357.57 114.344Z" fill="#3B0459"/>
<path d="M719.36 411.23L416.034 238.046L155.665 391.516L155.012 385.771L124.78 383.313V409.729L451.269 598.296C449.094 597.034 745.242 425.983 745.242 425.983V399.567L719.36 411.23Z" fill="#4B7794"/>
<path d="M124.78 383.313L451.269 571.88C449.094 570.618 745.242 399.567 745.242 399.567L416.034 211.652L124.78 383.313Z" fill="#231F20"/>
<path d="M424.516 497.68C525.046 497.68 606.542 449.194 606.542 389.383C606.542 329.573 525.046 281.087 424.516 281.087C323.986 281.087 242.49 329.573 242.49 389.383C242.49 449.194 323.986 497.68 424.516 497.68Z" fill="#DCE000"/>
<path opacity="0.13" d="M424.516 497.68C525.046 497.68 606.542 449.194 606.542 389.383C606.542 329.573 525.046 281.087 424.516 281.087C323.986 281.087 242.49 329.573 242.49 389.383C242.49 449.194 323.986 497.68 424.516 497.68Z" fill="black"/>
<path d="M420.689 408.945C446.359 408.945 467.168 396.563 467.168 381.289C467.168 366.015 446.359 353.633 420.689 353.633C395.019 353.633 374.209 366.015 374.209 381.289C374.209 396.563 395.019 408.945 420.689 408.945Z" fill="white"/>
<path d="M328.294 358.115V375.871C328.294 376.159 328.409 376.436 328.613 376.64C328.817 376.844 329.094 376.959 329.382 376.959C329.67 376.959 329.947 376.844 330.151 376.64C330.355 376.436 330.469 376.159 330.469 375.871V358.115C330.469 357.827 330.355 357.55 330.151 357.346C329.947 357.142 329.67 357.027 329.382 357.027C329.094 357.027 328.817 357.142 328.613 357.346C328.409 357.55 328.294 357.827 328.294 358.115Z" fill="#AED4ED"/>
<path d="M420.688 401.264C439.223 401.264 454.248 392.321 454.248 381.289C454.248 370.257 439.223 361.314 420.688 361.314C402.153 361.314 387.128 370.257 387.128 381.289C387.128 392.321 402.153 401.264 420.688 401.264Z" stroke="#E6E6E6" stroke-width="1.015" stroke-miterlimit="10"/>
<path d="M420.579 389.383C428.543 389.383 435 385.185 435 380.005C435 374.826 428.543 370.627 420.579 370.627C412.615 370.627 406.159 374.826 406.159 380.005C406.159 385.185 412.615 389.383 420.579 389.383Z" fill="#3B0459"/>
<path opacity="0.18" d="M368.358 397.152C368.358 397.152 381.082 414.733 415.556 414.211L406.16 489.521C406.16 489.521 322.77 488.454 275.66 439.126L368.358 397.152Z" fill="white"/>
<path opacity="0.18" d="M420.579 347.584C420.579 347.584 453.204 346.3 463.71 363.903L544.772 313.465C544.772 313.465 491.158 280.369 406.159 287.658L420.579 347.584Z" fill="white"/>
<path opacity="0.32" d="M695.304 403.527L643.735 433.533L600.126 404.724L640.864 380.005" fill="url(#paint0_linear)"/>
<path opacity="0.32" d="M503.73 519.897L441.111 554.734L420.667 542.418L480.305 509.692" fill="url(#paint1_linear)"/>
<path d="M477.695 508.123V516.587H507.341V508.123" fill="#3B0459"/>
<path d="M492.529 523.052C500.709 523.052 507.34 519.262 507.34 514.587C507.34 509.913 500.709 506.123 492.529 506.123C484.348 506.123 477.717 509.913 477.717 514.587C477.717 519.262 484.348 523.052 492.529 523.052Z" fill="#3B0459"/>
<path d="M492.529 520.588C500.709 520.588 507.34 516.798 507.34 512.123C507.34 507.448 500.709 503.659 492.529 503.659C484.348 503.659 477.717 507.448 477.717 512.123C477.717 516.798 484.348 520.588 492.529 520.588Z" fill="#9B6D9C"/>
<path d="M446.593 523.139V531.603H476.216V523.139" fill="#3B0459"/>
<path d="M461.405 540.068C469.585 540.068 476.216 536.278 476.216 531.603C476.216 526.929 469.585 523.139 461.405 523.139C453.224 523.139 446.593 526.929 446.593 531.603C446.593 536.278 453.224 540.068 461.405 540.068Z" fill="#3B0459"/>
<path d="M461.405 531.603C469.585 531.603 476.216 527.814 476.216 523.139C476.216 518.464 469.585 514.675 461.405 514.675C453.224 514.675 446.593 518.464 446.593 523.139C446.593 527.814 453.224 531.603 461.405 531.603Z" fill="#9B6D9C"/>
<path opacity="0.32" d="M204.668 380.005L170.15 405.464L141.245 389.732L181.982 365.013" fill="url(#paint2_linear)"/>
<path d="M188.833 384.139C198.251 384.139 205.885 380.194 205.885 375.327C205.885 370.46 198.251 366.514 188.833 366.514C179.416 366.514 171.781 370.46 171.781 375.327C171.781 380.194 179.416 384.139 188.833 384.139Z" fill="#AED4ED"/>
<path d="M188.833 365.296C198.251 365.296 205.885 361.35 205.885 356.483C205.885 351.616 198.251 347.671 188.833 347.671C179.416 347.671 171.781 351.616 171.781 356.483C171.781 361.35 179.416 365.296 188.833 365.296Z" fill="#AED4ED"/>
<path d="M171.781 356.483V375.327H205.907V356.483" fill="#AED4ED"/>
<path d="M335.624 346.822H188.572V360.487H335.624V346.822Z" fill="#FAD0A0"/>
<path d="M335.602 346.822C335.602 346.822 343.149 353.742 335.602 360.487Z" fill="#FAD0A0"/>
<path d="M188.573 346.822C188.573 346.822 182.244 355.33 188.573 360.487Z" fill="#FAD0A0"/>
<path d="M473.824 178.382C473.901 178.154 473.917 177.91 473.87 177.674C473.823 177.438 473.714 177.218 473.555 177.038C473.397 176.857 473.193 176.721 472.965 176.644C472.738 176.566 472.493 176.551 472.258 176.598L470.518 176.881C470.518 176.881 470.518 176.881 470.518 176.75C470.63 176.587 470.709 176.402 470.75 176.208C470.792 176.014 470.794 175.814 470.757 175.619C470.92 175.401 471.014 175.139 471.028 174.867C471.042 174.595 470.974 174.326 470.834 174.092C470.694 173.859 470.488 173.673 470.242 173.557C469.996 173.441 469.721 173.401 469.452 173.443C461.006 175.063 452.376 175.502 443.809 174.748C442.177 174.618 440.481 174.4 438.828 174.422L435.152 174.117H434.217C432.499 174.117 432.499 176.728 434.217 176.772C434.307 177.049 434.473 177.296 434.696 177.485C434.919 177.673 435.19 177.795 435.478 177.838L436.979 177.969C436.912 178.176 436.889 178.396 436.911 178.613C436.933 178.831 437.001 179.041 437.11 179.231C437.189 179.395 437.309 179.538 437.458 179.644C437.656 179.809 437.898 179.915 438.154 179.949H438.567C442.221 180.757 445.928 181.303 449.659 181.581C448.016 182.581 446.66 183.991 445.723 185.671C445.585 185.927 445.533 186.22 445.575 186.507C445.617 186.794 445.751 187.06 445.956 187.266C446.161 187.471 446.427 187.605 446.714 187.647C447.001 187.689 447.294 187.637 447.55 187.499C450.616 185.802 453.748 184.257 456.946 182.843C462.799 183.807 468.804 183.199 474.346 181.08C475.89 180.406 475.303 178.012 473.824 178.382Z" fill="#EF986C"/>
<path d="M512.234 127.486C515.285 127.486 517.758 125.012 517.758 121.96C517.758 118.907 515.285 116.433 512.234 116.433C509.183 116.433 506.709 118.907 506.709 121.96C506.709 125.012 509.183 127.486 512.234 127.486Z" fill="#F7931E"/>
<path d="M441.742 325.193C440.176 326.651 433.869 329.24 434.935 335.006C436.305 342.383 451.921 339.489 451.921 339.489L471.301 331.721L489.505 305.305L474.28 300.104L460.447 320.188" fill="#D4E7F7"/>
<path d="M474.324 300.104C473.737 301.345 461.122 316.054 458.055 318.099C454.989 320.145 442.504 322.908 441.743 325.193C440.982 327.478 448.268 334.593 448.268 334.593C448.268 334.593 465.798 330.241 468.56 328.174C470.272 326.913 471.827 325.452 473.193 323.822L487.113 303.629" fill="#2A343D"/>
<path d="M515.736 348.367C515.279 350.543 511.538 356.179 515.736 360.313C521.043 365.6 532.266 354.351 532.266 354.351L543.815 336.943V304.848L528.351 309.2V333.592" fill="#D4E7F7"/>
<path d="M528.308 309.2C528.547 310.549 526.503 329.828 525.111 333.266C523.719 336.704 515.04 346.06 515.715 348.367C516.389 350.673 526.59 352.349 526.59 352.349C526.59 352.349 538.509 338.749 539.64 335.551C540.339 333.552 540.799 331.478 541.01 329.371V304.848" fill="#2A343D"/>
<path d="M519.999 185.845C519.999 185.845 499.163 230.779 494.726 238.786C491.006 245.532 466.32 298.733 458.425 315.793C461.421 318.771 465.073 321.005 469.088 322.316C473.103 323.627 477.37 323.979 481.545 323.343L538.095 215.373L548.6 184.91L519.999 185.845Z" fill="#FDECE2"/>
<path d="M553.929 217.897C554.69 204.341 552.733 190.741 550.732 177.294C549.47 173.116 548.557 169.961 548.557 169.961L528.525 198.314C528.525 198.314 510.125 260.263 514.257 269.032C518.39 277.801 522.413 329.697 522.413 329.697C522.413 329.697 535.898 340.011 543.359 325.781C545.316 322.038 542.184 264.049 542.184 264.049C542.184 264.049 549.514 237.785 553.929 217.897Z" fill="#FDECE2"/>
<path d="M520.108 131.729C518.933 132.012 509.341 133.361 504.883 139.955C500.424 146.548 493.333 161.714 489.027 165.196C484.72 168.677 462.927 171.723 462.927 171.723C462.927 171.723 460.534 182.603 464.014 186.781C467.494 190.959 493.573 183.887 499.467 182.56C505.361 181.232 522.87 155.36 522.87 155.36" fill="#D560DF"/>
<path d="M531.287 173.225C532.621 173.138 533.948 173.022 535.268 172.877C531.2 155.469 518.933 117.281 516.476 172.333C521.342 173.356 526.333 173.657 531.287 173.225V173.225Z" fill="#35406E"/>
<path d="M546.817 136.081C543.815 134.841 537.269 131.294 533.462 131.36C527.432 131.383 521.412 131.863 515.453 132.796C508.015 140.477 511.103 157.471 512.517 166.392C513.822 174.683 515.888 182.799 517.802 190.937C527.481 196.159 545.164 190.806 552.102 188.13C552.266 170.639 550.493 153.183 546.817 136.081V136.081Z" fill="#D560DF"/>
<path d="M533.245 104.574C532.333 103.709 531.151 103.186 529.898 103.095C528.645 103.004 527.399 103.349 526.372 104.073C526.312 103.983 526.239 103.902 526.154 103.834C524.501 102.572 523.588 101.092 521.348 100.853C519.291 100.736 517.241 101.172 515.41 102.115C513.627 102.904 512.227 104.367 511.517 106.184C511.333 106.124 511.135 106.124 510.951 106.184C508.875 106.639 507.06 107.889 505.893 109.666C504.727 111.443 504.302 113.606 504.709 115.693C505.514 119.283 509.059 122.83 512.865 122.438C514.767 122.766 516.717 122.685 518.585 122.199C518.982 122.09 519.342 121.877 519.629 121.582C519.915 121.288 520.118 120.922 520.215 120.522C520.313 120.123 520.302 119.704 520.184 119.31C520.065 118.917 519.844 118.561 519.542 118.282L519.782 118.064H519.999C520.361 118.368 520.825 118.524 521.297 118.5C521.769 118.476 522.215 118.273 522.544 117.934L522.827 117.695C523.305 117.495 523.757 117.239 524.175 116.933H524.719V117.499C524.688 117.963 524.807 118.424 525.057 118.816C525.308 119.207 525.677 119.508 526.111 119.675C526.549 119.762 527 119.762 527.438 119.675C526.696 121.276 525.603 122.689 524.24 123.809C522.37 125.202 524.023 127.726 525.893 127.552C525.11 128.378 526.176 132.469 527.133 131.686C529.53 129.768 531.5 127.37 532.916 124.646C534.332 121.922 535.162 118.931 535.355 115.867C535.442 113.256 535.55 106.619 533.245 104.574Z" fill="#2A343D"/>
<path d="M510.299 117.238C509.755 117.238 512.8 134.885 520.238 134.798C529.591 134.798 531.113 123.265 531.113 123.265C531.113 123.265 531.113 115.018 524.915 113.321C518.716 111.624 517.019 117.281 510.299 117.238Z" fill="#EF986C"/>
<path d="M510.299 117.238C510.299 117.238 517.715 117.238 521.326 115.323C524.936 113.408 521.565 126.638 524.414 126.203C527.264 125.767 525.915 119.044 528.525 121.176C531.135 123.309 527.024 132.056 527.024 132.056C527.024 132.056 534.093 126.812 534.702 119.827C535.311 112.842 525.698 107.968 517.628 110.057C509.559 112.146 510.299 117.238 510.299 117.238Z" fill="#2A343D"/>
<path d="M517.52 267.835C516.889 257.739 519.999 247.294 521.87 237.372L527.873 206.147C528.199 204.472 525.698 203.753 525.306 205.429L519.325 236.676C517.541 245.989 514.714 255.693 514.757 265.246C514.801 274.798 517.389 284.024 518.716 293.272C520.325 304.456 521.435 315.684 522.196 326.956C522.305 328.653 524.98 328.675 524.849 326.956C524.175 316.837 523.196 306.741 521.848 296.688C520.586 287.136 518.107 277.475 517.52 267.835Z" fill="#2A343D"/>
<path d="M537.073 128.596C537.073 128.596 536.942 119.349 535.833 119.523C534.724 119.697 534.419 123.178 534.137 125.202L532.636 121.503C532.636 121.503 529.917 116.672 527.938 117.151C525.959 117.63 525.98 124.919 525.893 126.377C525.806 127.835 532.201 134.82 532.201 134.82L534.55 131.338L534.746 132.905L537.073 128.596Z" fill="#EF986C"/>
<path d="M537.073 128.596C539.378 127.356 565.87 153.402 561.911 165.13C557.953 176.859 525.872 146.287 525.872 146.287C525.872 146.287 531.657 131.469 537.073 128.596Z" fill="#D560DF"/>
<path d="M529.787 125.55C532.838 125.55 535.311 123.075 535.311 120.023C535.311 116.971 532.838 114.496 529.787 114.496C526.736 114.496 524.262 116.971 524.262 120.023C524.262 123.075 526.736 125.55 529.787 125.55Z" fill="#F7931E"/>
<path d="M521.152 101.701C514.127 100.635 510.973 103.877 509.559 106.554H509.711C510.172 106.359 510.644 106.192 511.125 106.053C511.255 106.038 511.387 106.038 511.517 106.053C512.686 105.272 514.031 104.793 515.432 104.661C526.85 105.031 527.807 117.434 527.807 117.434L531.396 117.303C531.396 117.303 532.484 103.442 521.152 101.701Z" fill="#F7931E"/>
<path d="M525.872 146.287C525.872 146.287 540.379 162.867 551.232 165.674V180.493C551.232 180.493 531.505 157.776 525.872 146.287Z" fill="#D560DF"/>
<defs>
<linearGradient id="paint0_linear" x1="636.992" y1="419.368" x2="652.4" y2="397.484" gradientUnits="userSpaceOnUse">
<stop stop-opacity="0"/>
<stop offset="0.99" stop-color="#005ABF"/>
</linearGradient>
<linearGradient id="paint1_linear" x1="17585.7" y1="11846.3" x2="17853.8" y2="11143.8" gradientUnits="userSpaceOnUse">
<stop stop-opacity="0"/>
<stop offset="0.99" stop-color="#005ABF"/>
</linearGradient>
<linearGradient id="paint2_linear" x1="4935.39" y1="7715.76" x2="5116.44" y2="7312.1" gradientUnits="userSpaceOnUse">
<stop stop-opacity="0"/>
<stop offset="0.99" stop-color="#005ABF"/>
</linearGradient>
</defs>
</svg>
